<?xml version="1.0" encoding="UTF-8"?>
<svg viewBox="0 0 166 37" fill="none" xmlns="http://www.w3.org/2000/svg"> <g id="Group"> <g id="Group_2"> <path id="Vector" d="M32.2633 34.2187C31.5797 34.1731 30.8962 33.8997 30.3949 33.444L28.5266 31.5301L28.2532 31.2567L15.6759 18.5427L17.362 16.8111L34.2228 33.8541C33.5848 34.1276 32.9013 34.2643 32.2633 34.2187ZM25.9291 34.2187C25.2456 34.1731 24.562 33.8997 24.0608 33.444L22.1924 31.5301L21.919 31.2567L12.4861 21.7782L14.0354 20.2288L27.6608 33.9453C27.1139 34.1731 26.4759 34.2643 25.9291 34.2187ZM19.5494 34.2187C18.8658 34.1731 18.1823 33.8997 17.681 33.444L15.8127 31.5301L15.5392 31.2567L9.34177 24.9681L10.8911 23.4187L21.3266 33.9453C20.7342 34.1731 20.1418 34.2643 19.5494 34.2187ZM25.1544 2.95794C25.7468 2.68452 26.4304 2.54781 27.0684 2.59338C27.7519 2.63895 28.4354 2.91237 28.9367 3.36806L30.8051 5.28199L31.0785 5.5554L43.6557 18.2238L41.9696 19.9554L25.1544 2.95794ZM33.4481 2.59338C34.1316 2.63895 34.8152 2.91237 35.3165 3.36806L37.1848 5.28199L37.4582 5.5554L46.8456 15.0339L45.2962 16.5833L31.7165 2.8668C32.2633 2.63895 32.8557 2.54781 33.4481 2.59338ZM39.8278 2.59338C40.5114 2.63895 41.1949 2.91237 41.6962 3.36806L43.5646 5.28199L43.838 5.5554L50.081 11.844L48.5316 13.3934L38.0506 2.8668C38.5975 2.63895 39.2354 2.54781 39.8278 2.59338ZM57.7367 16.8567L41.4228 33.3984C41.1494 33.6263 40.8759 33.8086 40.5114 33.9453C40.1013 34.082 39.6456 34.1731 39.1899 34.1731C38.7342 34.1731 38.2785 34.082 37.8684 33.9453C37.5494 33.8086 37.2304 33.6263 36.957 33.3984L18.9114 15.1706L19.6405 14.4415C19.9139 14.2136 20.8253 13.3022 21.8278 13.3022C22.3291 13.3022 22.7392 13.4389 23.1038 13.6212L33.8582 24.5124L33.9038 24.4668C34.5873 25.1959 35.6354 25.8795 37.2304 25.8795C38.7342 25.8795 40.4658 24.7858 41.1494 23.9655L53.043 12.0719L43.3367 1.77313C42.6532 0.952873 41.5139 0.497176 39.919 0.406037C38.7797 0.360468 37.3215 0.542746 36.319 1.18072C35.6354 0.725025 34.724 0.451607 33.5392 0.406037C32.4 0.360468 30.9418 0.542746 29.9392 1.18072C29.2557 0.725025 28.3443 0.451607 27.1595 0.406037C25.9747 0.360468 24.4253 0.588316 23.4228 1.27186C22.7392 0.770594 21.7823 0.451607 20.5519 0.406037H19.6405C18.0456 0.451607 16.9063 0.952873 16.2228 1.77313L0 18.3149L1.64051 19.9554L17.9089 3.41363C18.1823 3.18578 18.4557 3.00351 18.8203 2.8668C19.2304 2.73009 19.6861 2.63895 20.1418 2.63895C20.5975 2.63895 21.0532 2.73009 21.4633 2.8668C21.7823 3.00351 22.1013 3.18578 22.3747 3.41363L40.4202 21.6415L39.6911 22.3706C39.4177 22.5984 38.5063 23.5098 37.5038 23.5098C36.2734 23.5554 35.5443 22.5984 35.2709 22.3706L25.838 12.801C25.1544 11.9807 24.0152 10.887 22.0557 10.887C20.5519 10.887 18.8203 11.9807 18.1367 12.801L6.19747 24.6946L16.0405 35.0389C16.7241 35.8592 17.8633 36.3149 19.4582 36.406C20.5975 36.4516 22.0557 36.2693 23.0582 35.6314C23.7418 36.087 24.6532 36.3605 25.838 36.406C26.9772 36.4516 28.4354 36.2693 29.438 35.6314C30.1215 36.087 31.0329 36.3605 32.2177 36.406C33.4025 36.4516 34.9519 36.2238 35.9544 35.5402C36.638 36.0415 37.5949 36.3605 38.8253 36.406H39.7367C41.3316 36.3605 42.4709 35.8592 43.1544 35.0389L59.4228 18.4972L57.7367 16.8567Z" fill="#0680C4" /> <path id="Vector_2" d="M68.5335 15.7174C68.5335 16.3554 68.1234 16.5833 67.6221 16.5833H66.1183L66.0727 16.5377V12.2541C66.0727 12.2541 66.0727 12.163 66.1183 12.163H67.6677C67.9867 12.163 68.3056 12.4364 68.3056 12.7098V13.0744C68.3056 13.2567 68.0322 13.7124 67.6677 13.7124H67.0297C66.9386 13.7124 66.8474 13.8035 66.8474 13.8947V14.6238C66.8474 14.7149 66.9386 14.806 67.0297 14.806H67.7588C68.4423 14.8516 68.6246 15.2162 68.6246 15.3985V15.7174H68.5335ZM68.7613 14.1681C68.6702 14.1681 68.6246 14.1225 68.6246 14.0769C68.6246 14.0314 68.6702 13.9858 68.7158 13.9858H68.898C69.536 13.8947 69.9917 13.3934 69.9917 12.7554V12.2997C69.9917 11.6162 69.4449 11.0693 68.7613 11.0693H63.7487C63.7031 11.0693 63.7031 11.1149 63.7031 11.1149V11.8896C63.7031 11.8896 63.7031 11.9352 63.7487 11.9807H63.8398C64.0677 12.0263 64.4322 12.2086 64.4322 12.3453V16.2643C64.4322 16.4466 64.1132 16.5833 63.8398 16.6288C63.8398 16.6288 63.7942 16.6288 63.7487 16.6744C63.7031 16.72 63.7487 16.7655 63.7487 16.7655V17.5402C63.7487 17.5858 63.7942 17.5858 63.7942 17.5858H68.8069C69.6727 17.5858 70.3107 16.72 70.3107 16.0364V15.3985C70.2651 14.7149 69.855 14.1681 68.7613 14.1681ZM158.169 15.7174C158.169 16.3554 157.759 16.5833 157.258 16.5833H155.754L155.708 16.5377V12.2541C155.708 12.2541 155.708 12.163 155.754 12.163H157.303C157.622 12.163 157.941 12.4364 157.941 12.7098V13.0744C157.941 13.2567 157.668 13.7124 157.303 13.7124H156.665C156.574 13.7124 156.483 13.8035 156.483 13.8947V14.6238C156.483 14.7149 156.574 14.806 156.665 14.806H157.394C158.078 14.8516 158.26 15.2162 158.26 15.3985V15.7174H158.169ZM158.397 14.1681C158.306 14.1681 158.26 14.1225 158.26 14.0769C158.26 14.0314 158.306 13.9858 158.351 13.9858H158.533C159.171 13.8947 159.627 13.3934 159.627 12.7554V12.2997C159.627 11.6162 159.08 11.0693 158.397 11.0693H153.384C153.339 11.0693 153.339 11.1149 153.339 11.1149V11.8896C153.339 11.8896 153.339 11.9352 153.384 11.9807H153.475C153.703 12.0263 154.068 12.2086 154.068 12.3453V16.2643C154.068 16.4466 153.749 16.5833 153.475 16.6288C153.475 16.6288 153.43 16.6288 153.384 16.6744C153.339 16.72 153.384 16.7655 153.384 16.7655V17.5402C153.384 17.5858 153.43 17.5858 153.43 17.5858H158.442C159.308 17.5858 159.946 16.72 159.946 16.0364V15.3985C159.901 14.7149 159.49 14.1681 158.397 14.1681ZM83.6626 11.0693H81.6575C81.4753 11.0693 81.4753 11.0693 81.4753 11.2516V11.7073C81.4753 11.7984 81.6575 11.7529 81.6575 11.7529C81.6575 11.7529 81.7487 11.7529 81.8398 11.844L81.8854 11.9352C81.8854 11.9352 81.8854 12.0719 81.7942 12.2086C81.7031 12.3909 81.293 13.0744 81.1107 13.3478C81.1107 13.439 80.974 13.4845 80.8829 13.4845C80.7917 13.4845 80.7461 13.3934 80.7006 13.3478L79.9259 12.2541C79.9259 12.2541 79.7892 12.0263 79.9259 11.7985C79.9715 11.7073 80.1082 11.7073 80.1537 11.7073C80.2449 11.7073 80.2904 11.7073 80.2904 11.525V11.1149C80.2904 11.0693 80.2449 10.9782 80.1537 10.9782H77.6018C77.5107 10.9782 77.4196 10.9782 77.4196 11.1149V11.6162C77.4196 11.7985 77.374 11.844 77.5107 11.844C77.7386 11.844 77.9664 12.0719 77.9664 12.0719L79.7436 14.6238V16.3554C79.7436 16.4466 79.5613 16.4921 79.3791 16.5377L79.1968 16.5833C79.1512 16.5833 79.1512 16.5833 79.1512 16.6288V17.4947C79.1512 17.5402 79.1968 17.5402 79.1968 17.5402H81.9765C82.0221 17.5402 82.0221 17.5402 82.0221 17.4947V16.6288C82.0221 16.5833 81.9765 16.5833 81.9765 16.5833H81.8854C81.6575 16.5377 81.3841 16.401 81.3841 16.3098V14.806L82.8423 12.5276C82.8423 12.5276 83.1158 12.163 83.1613 12.0719C83.2525 11.9807 83.3436 11.9352 83.4348 11.8896L83.6626 11.844C83.8449 11.844 83.8449 11.7985 83.8449 11.6617V11.1605C83.8449 11.0693 83.7993 11.0693 83.6626 11.0693ZM146.047 16.5833V15.2162C146.047 15.125 145.956 15.0339 145.865 15.0339H145.364C145.273 15.0339 145.182 15.125 145.182 15.2162V15.4896C145.182 15.6263 145.136 15.7174 145.09 15.8541C144.954 16.1276 144.635 16.3554 144.498 16.401C144.179 16.5377 143.723 16.4921 143.723 16.4921H143.04C142.949 16.4466 142.903 16.401 142.903 16.3098V12.3909C142.903 12.2541 143.268 12.0719 143.541 12.0263C143.541 12.0263 143.587 12.0263 143.587 11.9807V11.1605C143.587 11.1149 143.541 11.1149 143.541 11.1149H140.852C140.807 11.1149 140.807 11.1605 140.807 11.1605V11.9807C140.807 12.0263 140.852 12.0263 140.852 12.0263C141.126 12.0719 141.49 12.2086 141.49 12.3909V16.3098C141.49 16.4466 141.126 16.6288 140.852 16.6744C140.852 16.6744 140.807 16.6744 140.807 16.72V17.5402C140.807 17.5858 140.852 17.5858 140.852 17.5858H145.911C146.002 17.5858 146.093 17.4947 146.093 17.4035V16.6744C146.047 16.6288 146.047 16.5833 146.047 16.5833ZM125.45 16.5833V15.2162C125.45 15.125 125.359 15.0339 125.268 15.0339H124.766C124.675 15.0339 124.584 15.125 124.584 15.2162V15.4896C124.584 15.6263 124.539 15.7174 124.493 15.8541C124.356 16.1276 124.037 16.3554 123.901 16.401C123.582 16.5377 123.126 16.4921 123.126 16.4921H122.442C122.351 16.4466 122.306 16.401 122.306 16.3098V12.3909C122.306 12.2541 122.67 12.0719 122.944 12.0263C122.944 12.0263 122.989 12.0263 122.989 11.9807V11.1605C122.989 11.1149 122.944 11.1149 122.944 11.1149H120.255C120.209 11.1149 120.209 11.1605 120.209 11.1605V11.9807C120.209 12.0263 120.255 12.0263 120.255 12.0263C120.528 12.0719 120.893 12.2086 120.893 12.3909V16.3098C120.893 16.4466 120.528 16.6288 120.255 16.6744C120.255 16.6744 120.209 16.6744 120.209 16.72V17.5402C120.209 17.5858 120.255 17.5858 120.255 17.5858H125.313C125.404 17.5858 125.496 17.4947 125.496 17.4035V16.6744C125.45 16.6288 125.45 16.5833 125.45 16.5833ZM149.374 16.5377C149.192 16.5377 148.827 16.5377 148.69 16.4921C148.508 16.4466 148.28 16.3554 148.144 16.1731C148.052 15.9909 148.098 15.4896 148.098 15.3073V12.3909C148.098 12.2541 148.463 12.0719 148.736 12.0263C148.736 12.0263 148.782 12.0263 148.782 11.9807V11.1605C148.782 11.1149 148.736 11.1149 148.736 11.1149H145.774C145.728 11.1149 145.728 11.1605 145.728 11.1605V11.9807C145.728 12.0263 145.774 12.0263 145.774 12.0263C146.047 12.0719 146.412 12.2086 146.412 12.3909V15.763C146.412 15.763 146.412 16.5833 146.549 16.8111C146.913 17.4035 147.46 17.7225 149.146 17.7225H149.465C151.151 17.7225 151.789 17.4035 152.154 16.8111C152.29 16.5833 152.29 15.763 152.29 15.763V12.3909C152.29 12.2541 152.655 12.0719 152.928 12.0263C152.928 12.0263 152.974 12.0263 152.974 11.9807V11.1605C152.974 11.1149 152.928 11.1149 152.928 11.1149H149.966C149.921 11.1149 149.921 11.1605 149.921 11.1605V11.9807C149.921 12.0263 149.966 12.0263 149.966 12.0263C150.24 12.0719 150.604 12.2086 150.604 12.3909V15.3073C150.604 15.4896 150.65 16.0364 150.559 16.1731C150.422 16.3554 150.194 16.4921 150.012 16.4921C149.921 16.5377 149.511 16.5377 149.374 16.5377ZM140.306 15.763C140.306 15.6719 140.214 15.5807 140.123 15.5807H139.622C139.531 15.5807 139.44 15.6719 139.44 15.763V15.8541C139.44 16.1276 139.075 16.4921 138.893 16.5377C138.574 16.6744 138.437 16.6744 137.982 16.6744C137.526 16.6744 137.389 16.6744 137.07 16.5377C136.888 16.4466 136.523 16.082 136.387 15.763C136.296 15.5352 136.204 15.2162 136.204 14.2592C136.204 13.3022 136.25 12.8466 136.387 12.6643C136.614 12.3453 136.933 11.9807 137.754 11.9807C138.574 11.9807 138.847 12.2541 138.984 12.482C138.984 12.482 139.212 12.6643 139.212 12.8921V12.9833C139.212 13.0744 139.303 13.1655 139.394 13.1655H139.896C139.987 13.1655 140.078 13.0744 140.078 12.9833V11.4339C140.078 11.4339 140.123 11.3428 139.987 11.206C139.987 11.206 139.212 10.9782 137.982 10.9782C136.933 10.9782 136.068 11.206 135.612 11.4795C135.156 11.7529 134.336 12.5731 134.336 14.2136C134.336 15.8541 134.701 16.4921 135.156 16.9022C135.521 17.2668 136.068 17.5858 137.161 17.7225C137.207 17.7681 137.48 17.7681 137.708 17.7681H137.936C138.164 17.7681 138.346 17.7681 138.528 17.7225C139.85 17.6769 140.169 17.5402 140.169 17.5402C140.26 17.5402 140.351 17.4491 140.351 17.3579L140.306 15.763ZM108.771 15.763V14.1681C108.771 14.0769 108.68 13.9858 108.589 13.9858H106.22C106.128 13.9858 106.037 14.0769 106.037 14.1681V14.8972C106.037 14.9883 106.128 15.0795 106.22 15.0795H107.131V16.4921C107.085 16.5377 107.04 16.5377 106.994 16.5833C106.675 16.72 106.539 16.72 106.083 16.72C105.627 16.72 105.49 16.72 105.171 16.5833C104.989 16.4921 104.625 16.1276 104.488 15.8086C104.397 15.5807 104.306 15.2617 104.306 14.3048C104.306 13.3478 104.351 12.8921 104.488 12.7098C104.716 12.3909 105.035 12.0263 105.855 12.0263C106.63 12.0263 106.949 12.2997 107.085 12.5276C107.085 12.5276 107.313 12.7098 107.313 12.9377V13.0288C107.313 13.12 107.404 13.2111 107.496 13.2111H107.997C108.088 13.2111 108.179 13.12 108.179 13.0288V11.4795C108.179 11.4795 108.225 11.3883 108.088 11.2516C108.088 11.2516 107.313 11.0238 106.083 11.0238C105.035 11.0238 104.169 11.2516 103.759 11.525C103.303 11.7984 102.483 12.6187 102.483 14.2592C102.483 15.8997 102.847 16.5377 103.303 16.9478C103.668 17.3124 104.214 17.6314 105.308 17.7681C105.354 17.8136 105.627 17.8136 105.855 17.8136H106.083C106.311 17.8136 106.493 17.8136 106.675 17.7681C107.997 17.7225 108.589 17.5858 108.589 17.5858C108.68 17.5858 108.771 17.4947 108.771 17.4035V15.763ZM75.5968 15.763C75.5056 16.082 75.0955 16.4466 74.9132 16.5377C74.5942 16.6744 74.4575 16.6744 74.0018 16.6744C73.5461 16.6744 73.4094 16.6744 73.0904 16.5377C72.9082 16.4466 72.5436 16.082 72.4069 15.763C72.3158 15.5352 72.2246 15.2162 72.2246 14.2592C72.2246 13.3022 72.2702 12.8466 72.4069 12.6643C72.6347 12.3453 72.9537 11.9807 73.774 11.9807H74.2297C75.1411 11.9807 75.3689 12.3453 75.5968 12.6643C75.7335 12.8466 75.7791 13.3022 75.7791 14.2592C75.7791 15.2617 75.6879 15.5352 75.5968 15.763ZM76.3259 11.4339C75.9158 11.1605 75.0955 10.9782 74.093 10.9326H73.9107C72.9082 10.9782 72.1335 11.1605 71.6778 11.4339C71.2221 11.7073 70.4018 12.5276 70.4018 14.1681C70.4018 15.8086 70.7664 16.4466 71.2221 16.8567C71.5867 17.2212 72.1335 17.5402 73.2272 17.6769C73.2727 17.7225 73.5461 17.7225 73.774 17.7225H74.0474C74.093 17.7225 74.6854 17.6769 74.731 17.6769C75.8246 17.5402 76.3715 17.1757 76.736 16.8567C77.1917 16.4466 77.5563 15.8541 77.5563 14.1681C77.6018 12.5276 76.7816 11.7073 76.3259 11.4339ZM67.531 25.1048C67.4398 25.3326 67.1664 25.6516 67.0297 25.6972C66.7563 25.7883 66.6651 25.7883 66.3461 25.8339C65.9816 25.8339 65.8905 25.8339 65.6626 25.6972C65.5259 25.6516 65.2525 25.3326 65.1613 25.1048C65.1158 24.9225 65.0246 24.6947 65.0246 23.9655C65.0246 23.2364 65.0702 22.8719 65.1613 22.7352C65.3436 22.4617 65.5715 22.1883 66.2094 22.1883H66.4829C67.0753 22.1883 67.3487 22.4617 67.531 22.7352C67.6221 22.8719 67.6677 23.2364 67.6677 23.9655C67.6677 24.6947 67.5765 24.9225 67.531 25.1048ZM68.0778 21.7326C67.7588 21.5503 67.1208 21.3681 66.3461 21.3681H66.3006H66.255H66.1639C65.3892 21.3681 64.7968 21.5503 64.4322 21.7326C64.1132 21.9605 63.4297 22.5529 63.4297 23.8288C63.4297 25.1048 63.7031 25.5605 64.0677 25.8795C64.3411 26.1529 64.7512 26.4263 65.617 26.5174C65.6626 26.5174 65.8904 26.563 66.0727 26.563H66.3461C66.5284 26.563 66.7563 26.563 66.8018 26.5174C67.6677 26.4263 68.0778 26.1529 68.3512 25.8795C68.6702 25.5605 68.9892 25.1048 68.9892 23.8288C68.9892 22.5529 68.4423 21.9605 68.0778 21.7326ZM112.28 16.6744C112.28 16.6288 112.235 16.6288 112.235 16.6288C111.961 16.5833 111.597 16.4466 111.597 16.2643V12.3453C111.597 12.2086 111.961 12.0263 112.235 11.9807C112.235 11.9807 112.28 11.9807 112.28 11.9352V11.1149C112.28 11.0693 112.235 11.0693 112.235 11.0693H109.546C109.501 11.0693 109.501 11.1149 109.501 11.1149V11.9352C109.501 11.9807 109.546 11.9807 109.546 11.9807C109.82 12.0263 110.184 12.163 110.184 12.3453V16.2643C110.184 16.401 109.82 16.5833 109.546 16.6288C109.546 16.6288 109.501 16.6288 109.501 16.6744V17.4947C109.501 17.5402 109.546 17.5402 109.546 17.5402H112.235C112.28 17.5402 112.28 17.4947 112.28 17.4947V16.72C112.326 16.72 112.326 16.6744 112.28 16.6744ZM99.8854 25.6972H99.8398C99.612 25.6516 99.3385 25.5605 99.3385 25.4238V22.4162C99.3385 22.2795 99.612 22.1883 99.8398 22.1428H99.8854V21.5048C99.8854 21.4592 99.8854 21.4592 99.8398 21.4592H97.7436C97.698 21.4592 97.698 21.4592 97.698 21.5048V22.1428H97.7436C97.9715 22.1883 98.2449 22.2795 98.2449 22.4162V25.4238C98.2449 25.5605 97.9715 25.6516 97.7436 25.6972H97.698V26.3352C97.698 26.3807 97.698 26.3807 97.7436 26.3807H99.8398C99.8854 26.3807 99.8854 26.3807 99.8854 26.3352V25.7428V25.6972ZM119.799 16.6744C119.799 16.6288 119.754 16.6288 119.754 16.6288C119.48 16.5833 119.116 16.4466 119.116 16.2643V15.3985C119.116 14.7149 118.933 14.1681 117.794 14.1681H117.749C117.703 14.1681 117.658 14.1225 117.658 14.0769C117.658 14.0314 117.703 13.9858 117.749 13.9858H117.931C118.569 13.8947 119.025 13.3478 119.025 12.7098V12.3453C119.025 11.6617 118.478 11.1149 117.794 11.1149H112.827C112.782 11.1149 112.782 11.1605 112.782 11.1605V11.9807C112.782 12.0263 112.827 12.0263 112.827 12.0263C113.101 12.0719 113.465 12.2086 113.465 12.3909V16.3098C113.465 16.4466 113.101 16.6288 112.827 16.6744C112.827 16.6744 112.782 16.6744 112.782 16.72V17.5402C112.782 17.5858 112.827 17.5858 112.827 17.5858H115.516C115.561 17.5858 115.561 17.5402 115.561 17.5402V16.7655V16.72C115.561 16.6744 115.516 16.6744 115.516 16.6744C115.242 16.6288 114.878 16.4921 114.878 16.3098V12.3909C114.878 12.2997 114.969 12.2086 115.106 12.163H116.655C116.974 12.163 117.293 12.4364 117.293 12.7098V12.9833C117.293 13.1655 117.02 13.6668 116.655 13.6668H115.652C115.561 13.6668 115.47 13.7579 115.47 13.8491V14.5782C115.47 14.6693 115.561 14.7605 115.652 14.7605H116.701C117.384 14.806 117.339 15.1706 117.384 15.3529V17.1757C117.384 17.1757 117.384 17.3124 117.43 17.4035C117.475 17.5402 117.703 17.5402 117.703 17.5402H119.754C119.799 17.5402 119.799 17.4947 119.799 17.4947V16.72C119.845 16.72 119.845 16.6744 119.799 16.6744ZM97.4246 25.6972H97.3791C97.1512 25.6516 96.8778 25.5605 96.8778 25.4238V24.7402C96.8778 24.1934 96.7411 23.7833 95.8753 23.7833H95.8297C95.7841 23.7833 95.7841 23.7377 95.7841 23.7377C95.7841 23.6921 95.8297 23.6921 95.8297 23.6921H95.9664C96.4677 23.6465 96.8322 23.1909 96.8322 22.6896V22.4162C96.8322 21.8693 96.4221 21.4592 95.8753 21.4592H92.0474C92.0018 21.4592 92.0018 21.4592 92.0018 21.5048V22.1428H92.0474C92.2753 22.1883 92.5487 22.2795 92.5487 22.4162V25.4238C92.5487 25.5605 92.2753 25.6516 92.0474 25.6972H92.0018V26.3352C92.0018 26.3807 92.0018 26.3807 92.0474 26.3807H94.1436C94.1892 26.3807 94.1892 26.3807 94.1892 26.3352V25.7428V25.6972H94.1436C93.9158 25.6516 93.6423 25.5605 93.6423 25.4238V22.4162C93.6423 22.3706 93.7335 22.2795 93.8246 22.2339H95.0094C95.2373 22.2339 95.5107 22.4162 95.5107 22.644V22.8719C95.5107 23.0086 95.2829 23.4187 95.0094 23.3731H94.2803C94.1892 23.3731 94.1436 23.4643 94.1436 23.5098V24.1022C94.1436 24.1934 94.2347 24.239 94.2803 24.239H95.1006C95.6474 24.2845 95.6018 24.5579 95.6018 24.6947V26.2896C95.6474 26.3807 95.8297 26.4263 95.8297 26.4263H97.4246C97.4702 26.4263 97.4702 26.4263 97.4702 26.3807V25.7883C97.4246 25.7428 97.4246 25.7428 97.4246 25.6972ZM85.0297 14.4415C85.5765 14.6238 86.4879 14.8516 87.0803 14.9883C87.7183 15.0795 87.9917 15.3984 87.9006 15.9453C87.8094 16.4921 87.1715 16.5833 86.8525 16.6288C86.8525 16.6288 86.0322 16.6744 85.7132 16.5377C85.5765 16.4921 85.212 16.0364 85.1208 15.9453L84.9841 15.6263C84.9841 15.5807 84.893 15.5352 84.8018 15.5352H84.2094C84.1183 15.5352 84.0727 15.5352 84.0727 15.6263V17.4491C84.0727 17.6314 84.3461 17.6769 85.0753 17.6769H86.9892C86.9892 17.6769 87.8094 17.7225 88.4018 17.3579C88.9031 17.0845 89.3132 16.2643 89.3132 15.6719C89.2677 14.7149 89.2221 14.2136 88.6753 13.8947C88.2196 13.6212 87.217 13.4845 86.6246 13.3478C85.9867 13.2567 85.4854 13.1655 85.4854 12.5731C85.4854 12.0263 86.2145 11.9352 86.5335 11.8896C86.5335 11.8896 86.9436 11.844 87.3082 11.9807C87.4449 12.0263 87.5816 12.0719 87.7639 12.2997C87.855 12.3909 87.9917 12.801 87.9917 12.801C87.9917 12.8921 88.0829 12.9833 88.174 12.9833H88.6753C88.8575 12.9833 88.8575 12.9833 88.8575 12.801V11.1149C88.8575 10.9782 88.2196 11.0238 87.855 11.0238H85.7132C85.7132 11.0238 84.9841 11.0238 84.5284 11.4339C84.2094 11.7529 83.8904 12.3453 83.8904 12.9377C84.0272 13.5301 84.1183 14.1681 85.0297 14.4415ZM126.771 14.4415C127.318 14.6238 128.23 14.8516 128.822 14.9883C129.46 15.0795 129.733 15.3984 129.642 15.9453C129.551 16.4921 128.913 16.5833 128.594 16.6288C128.594 16.6288 127.774 16.6744 127.455 16.5377C127.318 16.4921 126.954 16.0364 126.863 15.9453L126.726 15.6263C126.726 15.5807 126.635 15.5352 126.544 15.5352H125.951C125.86 15.5352 125.814 15.5352 125.814 15.6263V17.4491C125.814 17.6314 126.088 17.6769 126.817 17.6769H128.731C128.731 17.6769 129.551 17.7225 130.144 17.3579C130.645 17.0845 131.055 16.2643 131.055 15.6719C131.009 14.7149 130.964 14.2136 130.417 13.8947C129.961 13.6212 128.959 13.4845 128.366 13.3478C127.728 13.2567 127.227 13.1655 127.227 12.5731C127.227 12.0263 127.956 11.9352 128.275 11.8896C128.275 11.8896 128.685 11.844 129.05 11.9807C129.187 12.0263 129.323 12.0719 129.506 12.2997C129.597 12.3909 129.733 12.801 129.733 12.801C129.733 12.8921 129.825 12.9833 129.916 12.9833H130.417C130.599 12.9833 130.599 12.9833 130.599 12.801V11.1149C130.599 10.9782 129.961 11.0238 129.597 11.0238H127.455C127.455 11.0238 126.726 11.0238 126.27 11.4339C125.951 11.7529 125.632 12.3453 125.632 12.9377C125.769 13.5301 125.86 14.1681 126.771 14.4415ZM161.359 14.4415C161.906 14.6238 162.817 14.8516 163.409 14.9883C164.047 15.0795 164.321 15.3984 164.23 15.9453C164.139 16.4921 163.501 16.5833 163.182 16.6288C163.182 16.6288 162.361 16.6744 162.042 16.5377C161.906 16.4921 161.541 16.0364 161.45 15.9453L161.313 15.6263C161.313 15.5807 161.222 15.5352 161.131 15.5352H160.539C160.447 15.5352 160.402 15.5352 160.402 15.6263V17.4491C160.402 17.6314 160.675 17.6769 161.404 17.6769H163.318C163.318 17.6769 164.139 17.7225 164.731 17.3579C165.232 17.0845 165.642 16.2643 165.642 15.6719C165.597 14.7149 165.551 14.2136 165.004 13.8947C164.549 13.6212 163.546 13.4845 162.954 13.3478C162.316 13.2567 161.814 13.1655 161.814 12.5731C161.814 12.0263 162.544 11.9352 162.863 11.8896C162.863 11.8896 163.273 11.844 163.637 11.9807C163.774 12.0263 163.911 12.0719 164.093 12.2997C164.184 12.3909 164.321 12.801 164.321 12.801C164.321 12.8921 164.412 12.9833 164.503 12.9833H165.004C165.187 12.9833 165.187 12.9833 165.187 12.801V11.1149C165.187 10.9782 164.549 11.0238 164.184 11.0238H162.042C162.042 11.0238 161.313 11.0238 160.858 11.4339C160.539 11.7529 160.22 12.3453 160.22 12.9377C160.356 13.5301 160.447 14.1681 161.359 14.4415ZM95.4651 16.7655C94.0069 16.72 93.8246 16.2187 93.8246 15.444C93.8246 15.0795 94.0069 14.7605 94.2803 14.4871L96.8322 16.5377C96.5588 16.6744 96.012 16.7655 95.4651 16.7655ZM95.1461 11.844C95.7385 11.8896 96.0575 12.163 96.0575 12.4364C96.0575 12.801 95.2373 13.12 95.055 13.12C95.0094 13.12 94.9639 13.12 94.9183 13.0744C94.8272 13.0288 94.736 12.9833 94.6449 12.9833C94.3715 12.8466 94.1436 12.6643 94.1436 12.4364C94.1436 12.163 94.5537 11.844 95.1461 11.844ZM100.113 17.0845C100.068 16.9934 99.9765 17.039 99.8398 16.9934L99.5664 16.9022L98.7917 16.3554C98.8829 16.1731 98.974 15.9453 99.0651 15.8086C99.1563 15.5807 99.2018 14.8516 99.2018 14.5782C99.2018 14.3048 99.2474 13.8947 99.1563 13.8035C99.1107 13.8035 99.0196 13.7579 99.0196 13.7579H97.9715C97.9715 13.7579 97.9259 13.7579 97.8803 13.8035C97.8348 13.8491 97.8347 13.9858 97.8347 13.9858V14.5326C97.8803 14.8516 97.7892 15.1706 97.6525 15.3985L96.0575 14.0769C96.9234 13.7579 97.5158 12.9833 97.5158 12.4364C97.4702 11.3428 96.5132 10.9326 95.1461 10.8871C93.5968 10.8415 92.5942 11.4795 92.5942 12.4364C92.5942 12.7098 92.6854 12.9833 92.8221 13.1655V13.2111L92.8677 13.2567C92.9588 13.3934 93.0955 13.5301 93.2322 13.6668C92.5487 14.1225 92.1385 14.806 92.1385 15.5352C92.1385 16.8567 92.7765 17.8136 95.374 17.9048C96.331 17.9503 97.1968 17.7225 97.8803 17.3124L98.1537 17.4491C98.2449 17.5402 98.336 17.6314 98.5639 17.6314H100.068C100.159 17.6314 100.25 17.5858 100.25 17.4947V17.4035C100.159 17.3579 100.159 17.1301 100.113 17.0845ZM91.774 25.0136C91.774 24.9225 91.6829 24.8769 91.6373 24.8769H91.2272C91.136 24.8769 91.0904 24.9681 91.0904 25.0136L90.9993 25.2415C90.9993 25.3326 90.9082 25.3782 90.8626 25.4693C90.7715 25.6972 88.9031 25.5605 88.9031 25.5605C88.8575 25.5149 88.812 25.4693 88.812 25.4238V24.1022H90.3613C90.4525 24.1022 90.5436 24.239 90.5892 24.3757V24.4212H91.136C91.136 24.4212 91.1816 24.4212 91.1816 24.3757V22.9174C91.1816 22.9174 91.1816 22.8719 91.136 22.8719H90.6347H90.5892V22.9174C90.5436 23.0997 90.4525 23.1909 90.3613 23.1909H88.812V22.2339C88.8575 22.1883 88.9487 22.1883 88.9487 22.1883H90.3613C90.498 22.1883 90.7715 22.1883 90.817 22.2795C90.8626 22.3706 90.8626 22.4617 90.8626 22.4617C90.8626 22.5529 90.9537 22.5984 90.9993 22.5984H91.4094C91.5006 22.5984 91.5461 22.5073 91.5461 22.4617V21.5503C91.5461 21.4592 91.455 21.4136 91.4094 21.4136H87.1259C87.0803 21.4136 87.0803 21.4136 87.0803 21.4592V22.0972H87.1259C87.3537 22.1428 87.6272 22.2339 87.6272 22.3706V25.3782C87.6272 25.5149 87.3537 25.606 87.1259 25.6516H87.0803V26.2896C87.0803 26.3352 87.0803 26.3352 87.1259 26.3352H91.6373C91.7284 26.3352 91.774 26.244 91.774 26.1984V25.0136ZM73.5006 21.4136H69.3993C69.3537 21.4136 69.3537 21.4136 69.3537 21.4592V22.0972H69.3993C69.6272 22.1428 69.9006 22.2339 69.9006 22.3706V25.3782C69.9006 25.5149 69.6272 25.606 69.3993 25.6516H69.3537V26.2896C69.3537 26.3352 69.3537 26.3352 69.3993 26.3352H71.4955C71.5411 26.3352 71.5411 26.3352 71.5411 26.2896V25.6972V25.6516H71.4955C71.3588 25.6516 71.2221 25.5605 71.0854 25.5149H71.0398L70.9942 25.4693V25.4238V24.1022H72.3613C72.4525 24.1022 72.5436 24.239 72.5892 24.3757V24.4212H73.136C73.136 24.4212 73.1816 24.4212 73.1816 24.3757V23.0086C73.1816 23.0086 73.1816 22.963 73.136 22.963H72.6347H72.5892V23.0086C72.5436 23.1909 72.4525 23.282 72.3613 23.282H70.9942V22.2339C71.0398 22.1883 71.131 22.1883 71.131 22.1883H72.3613C72.498 22.1883 72.7715 22.1883 72.817 22.2795C72.8626 22.3706 72.8626 22.4162 72.8626 22.4162C72.8626 22.5073 72.9537 22.5529 72.9993 22.5529H73.4094C73.5006 22.5529 73.5461 22.4617 73.5461 22.4162V21.5048C73.6828 21.5048 73.5917 21.4136 73.5006 21.4136ZM77.3284 21.4136C77.3284 21.4136 77.2829 21.4136 77.2373 21.4592C77.1917 21.5048 77.1917 21.5503 77.1917 21.5503" fill="black" /> <path id="Vector_3" d="M78.3346 23.7837C78.3346 23.8292 78.2434 23.7837 78.2434 23.7837H77.5143H77.4232V23.6925L77.8333 22.5533L78.2434 23.647C78.289 23.647 78.3346 23.7381 78.3346 23.7837ZM86.8105 25.7432V25.6976H86.765C86.5371 25.652 86.2637 25.5609 86.2637 25.4242L85.6257 22.4166C85.6257 22.2799 85.7624 22.1887 85.9447 22.1432H85.9903V21.5052C85.9903 21.4596 85.9903 21.4596 85.9447 21.4596H84.3953H84.1675C84.1219 21.5052 84.0763 21.6419 84.0763 21.6419L83.7574 22.69C83.7574 22.69 83.5751 23.3735 83.4839 23.3735C83.4384 23.3735 83.2561 22.7356 83.2561 22.7356L82.9371 21.733C82.9371 21.733 82.8915 21.5508 82.8004 21.5052C82.7548 21.4596 82.527 21.4596 82.527 21.4596H80.9776C80.932 21.4596 80.932 21.4596 80.932 21.5052V22.1432H80.9776C81.2055 22.1887 81.2966 22.2799 81.2966 22.4166L80.6586 25.4242C80.6131 25.5609 80.5675 25.6065 80.4763 25.6065C80.3852 25.6065 80.3396 25.5609 80.2941 25.4242L78.7447 21.5508L78.6991 21.4596C78.6536 21.4141 78.608 21.4141 78.608 21.4141H77.2409C77.2409 21.4141 77.1953 21.4141 77.1498 21.4596C77.1042 21.5052 77.1042 21.5508 77.1042 21.5508L75.5548 25.4242C75.5548 25.5609 75.2814 25.652 75.0536 25.6976H75.008V26.3356C75.008 26.3811 75.008 26.3811 75.0536 26.3811H77.0131C77.0586 26.3811 77.0586 26.3811 77.0586 26.3356V25.7432V25.6976H77.0131C76.7852 25.652 76.6029 25.6065 76.6485 25.4242L76.9675 24.6495H78.5624L78.8814 25.4242C78.9726 25.5609 78.7903 25.652 78.608 25.6976H78.5624V26.3356C78.5624 26.3811 78.5624 26.3811 78.608 26.3811H82.0257C82.0713 26.3811 82.0713 26.3811 82.0713 26.3356V25.7432V25.6976H82.0257C81.7979 25.652 81.7523 25.5609 81.7523 25.4242L82.0257 23.328C82.0257 23.328 82.0257 23.1457 82.0713 23.1457C82.1169 23.1457 82.208 23.4647 82.208 23.4647L82.6181 24.9685C82.6181 24.9685 82.6637 25.1052 82.7548 25.1508C82.8004 25.1963 82.9827 25.2875 82.9827 25.2875H83.6207C83.6207 25.2875 83.6662 25.2875 83.7574 25.2419C83.8485 25.1963 83.9396 24.9229 83.9396 24.9229L84.3953 23.2824C84.3953 23.2824 84.4409 23.1457 84.4865 23.1457C84.532 23.1457 84.5776 23.3735 84.5776 23.3735L84.851 25.4697C84.851 25.6065 84.8055 25.6976 84.5776 25.7432H84.532V26.3811C84.532 26.4267 84.532 26.4267 84.5776 26.4267H86.6738C86.7194 26.4267 86.7194 26.4267 86.7194 26.3811L86.8105 25.7432ZM106.633 23.7837C106.633 23.8292 106.542 23.7837 106.542 23.7837H105.813H105.722V23.6925L106.132 22.5533L106.542 23.647C106.588 23.647 106.633 23.7381 106.633 23.7837ZM109.231 25.6976H109.185C108.957 25.652 108.684 25.5609 108.684 25.4242L107.135 21.5508L107.089 21.4596C107.043 21.4141 106.998 21.4141 106.998 21.4141H105.631C105.631 21.4141 105.585 21.4141 105.54 21.4596C105.494 21.5052 105.494 21.5508 105.494 21.5508L104.173 24.8773C104.173 24.8773 103.899 25.5153 103.535 25.6065C103.216 25.6976 103.033 25.6976 102.669 25.7432C102.304 25.7432 102.213 25.7432 101.94 25.6065C101.803 25.5609 101.53 25.2419 101.438 25.0141C101.393 24.8318 101.302 24.6039 101.302 23.8748C101.302 23.1457 101.347 22.7811 101.438 22.6444C101.621 22.371 101.848 22.0976 102.486 22.0976C103.079 22.0976 103.307 22.3254 103.443 22.4622C103.443 22.4622 103.626 22.5989 103.626 22.7811V22.8267C103.626 22.9179 103.717 22.9634 103.762 22.9634H104.173C104.264 22.9634 104.309 22.8723 104.309 22.8267V21.6419C104.309 21.6419 104.309 21.5508 104.218 21.4596C104.218 21.4596 103.626 21.2773 102.669 21.2773C101.848 21.2773 101.211 21.4596 100.846 21.6875C100.527 21.9153 99.8434 22.5077 99.8434 23.7837C99.8434 25.0596 100.117 25.5153 100.481 25.8343C100.755 26.1077 101.074 26.29 101.803 26.3811C101.848 26.3811 102.259 26.4267 102.441 26.4267H103.079C103.671 26.3811 103.99 26.4723 104.173 26.4267H105.403C105.448 26.4267 105.448 26.4267 105.448 26.3811V25.7887V25.7432H105.403C105.175 25.6976 104.993 25.652 105.038 25.4697L105.357 24.6951H106.952L107.271 25.4697C107.362 25.6065 107.18 25.6976 106.998 25.7432H106.952V26.3811C106.952 26.4267 106.952 26.4267 106.998 26.4267H109.185C109.231 26.4267 109.231 26.4267 109.231 26.3811V25.7887V25.6976Z" fill="black" /> </g> </g> </svg>
