<?xml version="1.0" encoding="UTF-8"?>
<svg viewBox="0 0 108 50" fill="none" xmlns="http://www.w3.org/2000/svg"> <g clipPath="url(#clip0_1082_1808)"> <path fillRule="evenodd" clipRule="evenodd" d="M21.8835 38.1811C21.8835 39.8004 20.6605 41.1135 19.1523 41.1135H11.5363C10.0282 41.1135 8.80595 39.8004 8.80595 38.1811V32.739C8.80595 31.1197 10.0282 29.8065 11.5363 29.8065H19.1523C20.6605 29.8065 21.8835 31.1197 21.8835 32.739V38.1811ZM8.80595 11.0214C8.80595 9.40125 10.0282 8.08897 11.5363 8.08897H19.1523C20.6605 8.08897 21.8835 9.40125 21.8835 11.0214V14.9591C21.8835 16.5793 20.6605 17.8916 19.1523 17.8916H11.5363C10.0282 17.8916 8.80595 16.5793 8.80595 14.9591V11.0214ZM29.8009 15.2828V8.99686C29.8009 4.51002 26.4178 0.877563 22.2389 0.877563H8.45056C4.27166 0.877563 0.887695 4.51002 0.887695 8.99686V15.2828C0.887695 18.5881 2.7153 21.4039 5.33702 22.6758V23.8381C2.7153 25.11 0.887695 27.9433 0.887695 31.2311V40.2232C0.887695 44.71 4.27166 48.3434 8.45056 48.3434H22.2389C26.4178 48.3434 29.8009 44.71 29.8009 40.2232V31.2311C29.8009 27.9433 27.9741 25.11 25.3516 23.8381V22.6758C27.9741 21.4039 29.8009 18.5705 29.8009 15.2828V15.2828Z" fill="#1F1F1F" /> <path fillRule="evenodd" clipRule="evenodd" d="M66.681 44.8883H77.6066V41.0576H70.3975V38.1059H76.1949V34.3541H70.3975V31.4015H77.6066V27.5717H66.681V44.8883Z" fill="#1F1F1F" /> <path fillRule="evenodd" clipRule="evenodd" d="M88.9041 13.1426H85.1132V6.19958H81.3232V23.5163H85.1132V16.9724H88.9041V23.5163H92.6949V6.19958H88.9041V13.1426Z" fill="#1F1F1F" /> <path fillRule="evenodd" clipRule="evenodd" d="M81.3972 44.8883H92.3228V41.0576H85.1137V38.1059H90.9111V34.3541H85.1137V31.4015H92.3228V27.5717H81.3972V44.8883Z" fill="#1F1F1F" /> <path fillRule="evenodd" clipRule="evenodd" d="M102.283 35.1532H99.4582V31.2427H102.283C103.175 31.2427 103.843 31.562 103.843 33.0787C103.843 34.5138 103.323 35.1532 102.283 35.1532ZM102.729 27.5717H95.7418V44.8892H99.4582V38.7445H102.729C104.512 38.7445 107.485 37.6269 107.485 33.1585C107.485 28.3699 104.586 27.5717 102.729 27.5717" fill="#1F1F1F" /> <path fillRule="evenodd" clipRule="evenodd" d="M72.0321 16.8934H74.2617C74.2617 19.4469 73.4447 20.0864 71.8834 20.0864C70.1743 20.0864 69.5795 19.0487 69.5795 16.8934V11.7066C69.5795 10.2697 70.546 9.39252 71.8834 9.39252C73.4447 9.39252 74.0386 10.4302 74.0386 11.7066H77.9038C77.9038 8.75392 76.046 5.80042 71.8834 5.80042C67.6473 5.80042 65.7887 8.0355 65.7887 11.7066V16.8934C65.7887 19.846 66.6808 23.6767 71.8834 23.6767C76.863 23.6767 77.9782 20.4048 77.9782 17.0539V13.7013H72.0321V16.8934Z" fill="#1F1F1F" /> <path fillRule="evenodd" clipRule="evenodd" d="M45.4242 34.4341C43.6399 34.1157 43.1946 33.2376 43.1946 32.6789C43.1946 31.5622 43.9381 31.0034 45.2012 31.0034C46.6137 31.0034 46.9846 31.9604 46.9846 32.5192H50.5524C50.5524 30.5245 49.2886 27.1727 45.2012 27.1727C40.6677 27.1727 39.4781 30.364 39.4781 32.7587C39.4781 35.5517 41.5598 37.3069 44.6064 37.7859C45.6472 37.9455 47.1333 38.2648 47.1333 39.7017C47.1333 40.8183 46.5394 41.5368 45.2012 41.5368C44.309 41.5368 43.1946 41.3771 43.1946 39.2227H39.4781C39.4781 41.3771 39.9986 45.1271 45.2012 45.1271C50.3294 45.1271 50.9242 41.2175 50.9242 39.6219C50.9242 36.2701 48.8433 35.0736 45.4242 34.4341" fill="#1F1F1F" /> <path fillRule="evenodd" clipRule="evenodd" d="M50.6271 19.6066H43.4171V16.654H49.2145V12.9022H43.4171V9.95045H50.6271V6.11975H39.7015V23.4364H50.6271V19.6066Z" fill="#1F1F1F" /> <path fillRule="evenodd" clipRule="evenodd" d="M57.8363 27.5714H54.1206V44.8881H63.2627V40.8977H57.8363V27.5714Z" fill="#1F1F1F" /> <path fillRule="evenodd" clipRule="evenodd" d="M99.4578 23.5178H103.322V10.1915H106.741V6.20117H95.9651V10.1915H99.4578V23.5178Z" fill="#1F1F1F" /> <path fillRule="evenodd" clipRule="evenodd" d="M56.7214 19.7663H54.1201V23.5163H63.1127V19.7663H60.4378V9.95134H63.0383V6.19958H54.0457V9.95134H56.7214V19.7663Z" fill="#1F1F1F" /> </g> </svg>
