<svg width="164" height="48" viewBox="0 0 164 48" fill="none" xmlns="http://www.w3.org/2000/svg">
  <g clip-path="url(#clip0_foursquare)">
    <path
      d="M0.370605 14.5729H12.587V16.6771H2.49084V22.1595H11.4531V24.2638H2.49084V32.3419H0.370605V14.5729Z"
      fill="#1A1919"
    />
    <path
      d="M13.7734 23.5236C13.7734 18.2558 17.2182 14.1476 22.5021 14.1476C27.7622 14.1476 31.1594 18.2797 31.1594 23.5236C31.1594 28.8629 27.5716 32.7851 22.5021 32.7851C17.404 32.7851 13.7734 28.8629 13.7734 23.5236ZM28.8914 23.4997C28.8914 19.3915 26.39 16.2709 22.4974 16.2709C18.6047 16.2709 16.0794 19.3867 16.0794 23.4997C16.0794 27.7034 18.7905 30.6808 22.4974 30.6808C26.1804 30.6808 28.8914 27.7273 28.8914 23.4997Z"
      fill="#1A1919"
    />
    <path
      d="M33.75 25.6284V14.5729H35.8941V25.6284C35.8941 28.9351 37.5664 30.6576 40.5872 30.6576C43.6794 30.6576 45.3994 28.9589 45.3994 25.6523V14.5729H47.5435V25.6523C47.5435 30.2568 44.9039 32.7857 40.5872 32.7857C36.299 32.7857 33.75 30.3045 33.75 25.6284Z"
      fill="#1A1919"
    />
    <path
      d="M50.9321 14.5729H58.2934C61.7144 14.5729 63.9775 16.72 63.9775 19.6736C63.9775 21.6824 62.915 23.3095 60.9378 24.1159C63.2009 25.4376 62.4243 28.4627 64.4302 32.3371H62.0241C60.6328 29.6937 60.9378 24.6837 57.7312 24.6837H53.0619V32.3371H50.9417V14.5729H50.9321ZM58.2458 22.5794C60.3469 22.5794 61.8049 21.3532 61.8049 19.5782C61.8049 17.8318 60.4136 16.6723 58.2458 16.6723H53.0572V22.5794H58.2458Z"
      fill="#1A1919"
    />
    <path
      d="M66.2646 27.2549L68.3897 26.8302C68.8137 29.3591 70.4194 30.657 73.0828 30.657C75.6558 30.657 77.4469 29.4307 77.4469 27.6796C77.4469 26.1431 76.0558 25.0791 72.6587 24.0913C68.5326 22.908 66.7602 21.1617 66.7602 18.7044C66.7602 15.8939 69.071 14.1476 72.7731 14.1476C76.3802 14.1476 78.5528 15.8033 79.2817 18.9668L77.0898 19.4392C76.618 17.3111 75.2032 16.2518 72.7255 16.2518C70.4146 16.2518 68.9757 17.1489 68.9757 18.6853C68.9757 20.1024 70.1764 21.071 73.5497 22.1112C77.9854 23.4568 79.6343 25.2031 79.6343 27.6843C79.6343 30.781 77.1091 32.7851 73.1924 32.7851C69.2759 32.7851 66.8555 30.8478 66.2646 27.2549Z"
      fill="#1A1919"
    />
    <path
      d="M81.4966 23.5236C81.4966 18.2558 84.941 14.1476 90.2247 14.1476C95.4847 14.1476 98.8825 18.2797 98.8825 23.5236C98.8825 26.124 98.0344 28.3905 96.5714 30.0176C97.281 30.7237 97.9625 31.4347 98.6247 32.1648L97.1144 33.6534C96.4284 32.9234 95.6996 32.1648 94.9655 31.4108C93.6218 32.284 92.0166 32.7802 90.2247 32.7802C85.1314 32.785 81.4966 28.8629 81.4966 23.5236ZM93.3603 29.8553C92.6499 29.1921 91.9684 28.5336 91.2588 27.9181L92.7455 26.4294C93.4981 27.0927 94.2558 27.775 94.9847 28.4621C95.9996 27.2119 96.6144 25.5085 96.6144 23.4997C96.6144 19.3915 94.1129 16.2709 90.2203 16.2709C86.3277 16.2709 83.8025 19.3867 83.8025 23.4997C83.8025 27.7034 86.5136 30.6808 90.2203 30.6808C91.3825 30.6808 92.4403 30.3993 93.3603 29.8553Z"
      fill="#1A1919"
    />
    <path
      d="M101.577 25.6284V14.5729H103.721V25.6284C103.721 28.9351 105.393 30.6576 108.414 30.6576C111.507 30.6576 113.227 28.9589 113.227 25.6523V14.5729H115.37V25.6523C115.37 30.2568 112.731 32.7857 108.414 32.7857C104.122 32.7857 101.577 30.3045 101.577 25.6284Z"
      fill="#1A1919"
    />
    <path
      d="M123.331 14.5729H125.831L132.721 32.3371H130.458L128.476 27.2126H120.667L118.708 32.3371H116.398L123.331 14.5729ZM127.623 25.1322L124.602 17.1495L121.51 25.1322H127.623Z"
      fill="#1A1919"
    />
    <path
      d="M134.615 14.5729H141.977C145.397 14.5729 147.661 16.72 147.661 19.6736C147.661 21.6824 146.598 23.3095 144.621 24.1159C146.884 25.4376 146.108 28.4627 148.114 32.3371H145.708C144.316 29.6937 144.621 24.6837 141.414 24.6837H136.746V32.3371H134.625V14.5729H134.615ZM141.924 22.5794C144.026 22.5794 145.483 21.3532 145.483 19.5782C145.483 17.8318 144.092 16.6723 141.924 16.6723H136.736V22.5794H141.924Z"
      fill="#1A1919"
    />
    <path
      d="M150.761 14.5729H163.12V16.6771H152.886V22.1595H162.344V24.2638H152.886V30.2138H163.335V32.3419H150.761V14.5729Z"
      fill="#1A1919"
    />
  </g>
  <defs>
    <clipPath id="clip0_foursquare">
      <rect width="163.704" height="20" fill="white" transform="translate(0 14)" />
    </clipPath>
  </defs>
</svg>
