<svg preserveAspectRatio="none" width="100%" height="100%" overflow="visible" style="display: block;"
  viewBox="0 0 40.0005 32" fill="none" xmlns="http://www.w3.org/2000/svg">
  <g id="Ketchum">
    <path id="Subtract"
      d="M18.4914 0.0718891C22.3315 -0.294393 26.1736 0.752817 29.3078 3.02013C29.6909 3.29774 30.0822 3.60403 30.4396 3.91466C30.7523 4.18643 31.0612 4.52404 31.3751 4.78771C31.6047 5.068 31.9013 5.34065 32.1115 5.61681C32.4143 5.53066 32.9263 5.42475 33.1925 5.3297C33.3821 5.30968 34.3314 5.05408 34.548 4.99962L38.1525 4.08849C38.55 3.98782 39.592 3.69806 39.9445 3.66076L39.9806 3.69591L39.9826 3.90392C39.952 5.00376 39.9836 6.217 39.9894 7.32384L39.9904 12.3971V14.36C39.9908 14.5105 40.0259 15.0308 39.963 15.1305C39.9127 15.1476 39.8704 15.164 39.8175 15.1735C39.7446 15.1922 39.6144 15.2291 39.5451 15.2418C39.2745 15.3132 38.3128 15.5887 38.0861 15.6207C37.8414 15.6783 37.5974 15.7416 37.3556 15.8102C36.8795 15.9255 36.4037 16.0432 35.9289 16.1637C35.8911 20.4214 34.1624 24.486 31.13 27.4488C30.0323 28.5238 28.9465 29.2969 27.6281 30.0572C27.162 30.2761 26.716 30.5143 26.2433 30.7262C25.4955 31.0613 24.7377 31.2568 23.9689 31.5133L23.9474 31.5172C23.7283 31.551 23.4808 31.6127 23.2628 31.6627C21.9557 31.9615 20.6164 32.0311 19.2804 31.9879C18.9296 31.9681 18.5788 31.9351 18.2277 31.9127C14.466 31.558 10.9164 29.6537 8.31948 26.9195C7.41274 25.9704 6.69449 24.9112 6.04507 23.7731C5.76633 23.876 5.0636 24.0364 4.74917 24.1168C3.92999 24.3284 3.10951 24.5358 2.28823 24.7389C1.96323 24.8247 1.58994 24.9138 1.27163 25.0094C1.1156 25.0455 0.959838 25.0833 0.804835 25.1236C0.660889 25.1615 0.0986527 25.3389 0.000147757 25.2779C0.030696 24.9906 0.0109512 24.2375 0.0108899 23.9215L0.00991338 21.2213C0.00936598 18.793 0.0661914 16.1274 0.00503057 13.7252C0.215594 13.6629 0.432938 13.6041 0.646632 13.5533C1.89298 13.2573 3.13995 12.8884 4.39077 12.6178C4.83985 10.2625 6.18748 7.63178 7.7023 5.79845C10.4035 2.52264 14.2844 0.463012 18.4914 0.0718891ZM22.1828 1.23888C21.3153 1.10473 20.1888 1.03736 19.299 1.0924C15.3018 1.27464 11.5449 3.06933 8.87319 6.07287C7.10567 8.06536 5.72051 10.7963 5.33706 13.4576C4.93802 13.5894 4.49053 13.7004 4.08023 13.7955C3.07803 14.0279 2.0732 14.3268 1.07046 14.5465C1.07039 17.6424 1.12172 20.8737 1.06948 23.9557C2.27756 23.6378 3.48782 23.3262 4.69937 23.0221C5.27679 22.8751 6.05296 22.6977 6.61538 22.524C6.73399 22.8668 7.16652 23.591 7.37417 23.9235C8.86755 26.3106 10.9962 28.2265 13.5177 29.4518C15.991 30.653 18.4671 31.0518 21.1906 30.8854C29.2944 30.0578 35.0851 23.5724 34.8507 15.3229C36.2029 15.0095 37.5701 14.6042 38.9162 14.3043L38.9181 5.00158L33.8517 6.28478C33.5746 6.3545 31.911 6.74418 31.7306 6.85021C31.2732 6.22215 30.5204 5.43772 29.9542 4.92833C27.781 2.95351 25.0769 1.66958 22.1828 1.23888Z"
      fill="currentColor" />
    <path id="Subtract_2"
      d="M17.7652 2.39352C18.0948 2.37944 18.4472 2.38457 18.7759 2.41305C19.3221 2.46062 20.8457 3.23444 21.3541 3.54098C22.1424 4.01638 24.1867 5.45524 24.7515 6.13082C25.0774 5.81106 25.3892 5.4664 25.6939 5.12594C24.7604 4.49992 23.6166 4.05209 22.6187 3.53121C22.2981 3.36386 22.0023 3.1561 21.6802 2.99898C21.3819 2.85347 21.0009 2.8013 20.7066 2.64547C21.1262 2.68877 21.5582 2.8378 21.9673 2.9443C23.5447 3.35491 24.9298 3.92371 26.3843 4.65719L26.649 4.45504C26.8387 4.53928 27.5023 4.72237 27.564 4.76266C28.1964 5.17562 28.8005 5.86906 29.3765 6.37789C29.7017 6.66513 30.0612 6.93798 30.3589 7.22652C28.252 7.72969 26.0924 8.29556 23.9869 8.82516L13.3599 11.4843L8.30133 12.749C8.05033 12.8095 7.12265 13.1028 6.94781 13.0371L6.95367 12.9384C6.9835 12.3429 7.14543 11.7949 7.38336 11.2548C7.52208 10.7581 8.19084 10.64 8.44781 10.3222C8.83434 9.84351 9.24115 9.34786 9.67926 8.90621C9.72501 8.85922 10.0148 8.33008 10.0484 8.25973C10.3779 7.56652 10.7513 7.84938 11.3394 7.74508C11.4955 7.71719 11.6033 7.23376 11.6754 7.0693C11.968 6.40219 13.3881 5.08689 13.983 4.84664C14.5744 5.20247 14.6859 5.73677 14.899 6.33688C15.1682 7.09491 15.3934 7.891 15.857 8.55465C16.0784 8.35138 16.2689 8.17414 16.4752 7.95602C16.3336 7.27304 15.6885 5.66214 15.3306 5.00777C15.2936 4.94012 14.7811 4.52399 14.567 4.21773C14.8675 3.90784 16.073 3.00219 16.4312 2.79C16.7912 3.01909 17.3037 3.44441 17.5738 3.77145C17.616 4.57806 17.2438 5.70592 17.0582 6.50484C16.9685 6.89052 16.8925 7.26934 16.8091 7.65621C17.2297 7.33996 17.9449 6.58213 18.357 6.17867C18.3501 5.35923 18.1138 4.86501 18.2964 4.0234C19.4266 4.4684 22.6311 6.64023 23.2593 7.66109C23.5102 7.37215 23.8533 7.04751 24.1255 6.74703C22.5482 5.16376 21.035 4.16213 19.0191 3.2275C18.595 3.03083 18.1897 2.73732 17.7261 2.59176C17.6556 2.56961 17.5995 2.53478 17.5718 2.46773C17.6401 2.3982 17.6567 2.41384 17.7652 2.39352ZM10.5826 8.20504C10.7711 8.50303 11.0496 8.31919 10.9547 8.7441C10.9026 8.97711 10.8415 9.26559 10.8209 9.50289C11.9012 9.68309 12.0913 9.47322 13.1773 9.92867L13.2759 9.91012L13.3062 9.85934C13.0785 9.37545 11.0704 8.16148 10.5826 8.20504ZM18.8716 6.70211C18.3862 7.21119 17.8808 7.76843 17.3619 8.23824C16.8941 8.66156 16.0171 9.119 15.6529 9.62203C15.95 9.48967 16.2042 9.27377 16.4752 9.09566C16.9416 8.78908 17.5348 8.36715 18.0298 8.1357C18.2594 8.01757 18.5983 7.84695 18.8453 7.82223C19.2965 7.77749 21.1642 7.80608 21.5045 7.915L22.1216 8.10934L22.1968 8.0527C22.2184 7.76119 20.9352 7.38953 20.6597 7.3232C20.0771 7.18289 19.4195 6.94739 18.8716 6.70211ZM12.9039 6.14742C12.7014 6.35147 12.5085 6.52843 12.3629 6.77926C12.6658 7.29618 14.3003 8.98716 14.8111 9.43941L14.8804 9.48824C15.0121 9.45038 15.1429 9.26339 15.233 9.15328C15.029 8.92171 14.7745 8.60625 14.606 8.39547C14.3085 8.0232 13.1774 6.31317 12.9039 6.14742ZM26.7261 4.93941C26.5262 5.14552 25.3654 6.24764 25.3336 6.41891C25.3906 6.42941 25.4188 6.42831 25.4595 6.46969C25.4051 6.56869 24.5795 7.55734 24.4634 7.67965L24.4517 7.70211C24.4008 7.80297 24.3871 7.82096 24.314 7.90914C24.315 7.97797 24.3057 7.94548 24.355 8.0068C24.4638 7.92821 24.5735 7.83741 24.6714 7.74508C25.5863 6.88304 26.3767 5.96009 27.3345 5.14156C27.1241 5.07624 26.9333 5.01522 26.7261 4.93941Z"
      fill="currentColor" />
    <path id="Vector"
      d="M31.6318 17.9801L31.6656 17.9944C31.6582 18.135 30.8725 19.0687 30.7325 19.2183C30.2163 19.7714 29.6021 20.3444 28.884 20.6145C28.5196 20.7516 28.1057 20.7653 27.7228 20.8245C26.1941 21.0192 24.6618 21.7558 23.8394 23.1186C23.6848 23.3746 23.5414 23.6752 23.3606 23.9105C23.1452 24.1642 22.8569 24.3615 22.5973 24.571C21.5111 25.4478 20.8565 26.715 19.7989 27.6228C19.1806 28.1535 18.4597 28.5366 17.6822 28.789C17.2481 28.9177 16.7782 29.0787 16.3239 29.0991C16.1897 29.1051 15.8826 29.0061 15.751 28.9587C15.0468 28.7052 14.339 28.394 13.6726 28.0531C16.7131 27.6449 18.5076 26.2063 20.5053 24.004C21.5049 22.902 22.3107 22.0212 23.7477 21.573C23.2026 21.5369 22.9944 21.5998 22.4887 21.7791C21.6036 22.1487 20.6718 22.91 19.9325 23.5276C17.9742 25.1637 15.9044 26.7542 13.3411 27.2422C13.0895 27.2901 12.8356 27.3273 12.5853 27.3866C11.7877 26.804 11.3336 26.487 10.6074 25.7733C16.5527 26.335 17.2894 22.3994 21.9056 20.7123C22.9921 20.3058 24.117 20.0125 25.2626 19.837C26.3628 19.6646 27.4455 19.5825 28.5299 19.2958C29.6765 18.9927 30.6145 18.5637 31.6318 17.9801Z"
      fill="currentColor" />
    <path id="Subtract_3"
      d="M27.9373 21.6067C29.4565 21.4398 30.5327 22.0908 31.5819 23.1136C31.4329 23.4106 31.2601 23.669 31.075 23.9437C30.8361 23.6292 30.4051 23.2295 30.0789 23.0023C29.8793 23.3324 29.2037 24.4027 29.2098 24.7288C29.2857 24.8762 29.3966 24.885 29.5448 24.8274C29.9976 24.6515 30.5043 24.406 30.9315 24.1819C30.5278 24.6502 30.2409 25.1379 29.7098 25.4446C29.7052 25.4473 29.6791 25.6236 29.6776 25.6253C29.2201 26.1369 28.6798 26.5741 28.1434 26.9964C27.9704 27.132 27.4596 27.5337 27.2742 27.5452C27.1761 27.4174 27.3584 27.2616 27.2166 27.1321C26.9453 27.0751 25.958 27.955 25.6073 28.1712C25.7018 28.2833 25.7288 28.2798 25.7498 28.4046C25.668 28.5646 25.1497 28.7373 24.9149 28.8616C24.3589 28.1193 23.9154 27.1052 23.8397 26.1722C23.7563 25.0689 24.1132 23.9768 24.8299 23.139C25.6468 22.1784 26.7035 21.7044 27.9373 21.6067ZM26.2332 26.4192C25.7779 26.4479 25.2825 26.4884 24.8299 26.5023C24.9156 26.8131 25.0638 27.3572 25.286 27.5892C25.3749 27.5972 25.3396 27.6045 25.4217 27.553C25.6755 27.3974 26.9434 26.7396 26.7733 26.4632C26.5897 26.3732 26.4372 26.4031 26.2332 26.4192ZM25.0028 24.7288C24.8075 25.1816 24.7987 25.3071 24.7703 25.8118C25.308 25.7924 25.845 25.7571 26.3807 25.7073C26.5039 25.7017 26.6015 25.7135 26.6961 25.6419C26.7094 25.59 26.7257 25.5759 26.6961 25.5403C26.5262 25.3369 25.2249 24.7918 25.0028 24.7288ZM26.0487 23.2737C25.7227 23.55 25.5474 23.7749 25.2957 24.1243C25.7415 24.3508 26.2156 24.5832 26.6483 24.8284C26.7725 24.8846 26.8667 24.9417 27.0008 24.9251C27.175 24.8182 27.0472 24.5798 26.9569 24.47C26.8011 24.2806 26.2025 23.3428 26.0487 23.2737ZM27.5379 22.5755C27.156 22.6564 26.953 22.7243 26.6014 22.8948C26.853 23.2971 27.1085 23.6969 27.368 24.094C27.446 24.2253 27.5265 24.3925 27.6522 24.47L27.7381 24.4837C27.897 24.3334 27.8314 23.9643 27.8074 23.7562C27.7644 23.3819 27.7517 22.9676 27.6776 22.6019C27.6108 22.5563 27.6363 22.5688 27.5379 22.5755ZM28.2948 22.5013C28.3052 22.8378 28.2924 24.225 28.5418 24.3812C28.7486 24.3651 28.8117 24.1134 28.8865 23.9378C29.0702 23.5408 29.2508 23.1422 29.4285 22.7425C29.0253 22.5939 28.7287 22.5292 28.2948 22.5013Z"
      fill="currentColor" />
    <path id="Vector_2"
      d="M36.604 7.2917L36.6746 7.31738L37.2605 11.0575C37.3521 11.6357 37.442 12.2957 37.5584 12.8632C37.1151 12.9982 36.6327 13.1096 36.1813 13.2224C36.1652 12.8845 36.0375 12.1891 35.9824 11.8315C35.865 11.0672 35.7525 10.3022 35.6445 9.53651C35.5781 9.75587 35.382 11.0569 35.3427 11.3584C35.2634 11.9684 35.0474 12.9549 35.0071 13.5329C34.6324 13.6448 34.1488 13.7529 33.7648 13.8495C33.6584 13.462 33.3833 12.757 33.2302 12.346C33.0145 11.7659 32.7275 10.8591 32.4615 10.33C32.4854 10.6281 32.4947 10.9135 32.5044 11.2125C32.5689 12.13 32.5418 13.1972 32.5773 14.127C32.2742 14.1717 31.7283 14.3302 31.4162 14.4137C31.3998 12.4765 31.373 10.5393 31.3356 8.60239C31.8682 8.45572 32.5137 8.29924 33.0532 8.19266C33.1889 8.64104 33.393 9.1538 33.5581 9.60186L34.3661 11.8147C34.516 10.4713 34.8784 8.98792 35.0225 7.67177C35.4881 7.58753 36.1314 7.40845 36.604 7.2917Z"
      fill="currentColor" />
    <path id="Vector_3"
      d="M24.8094 10.2174C24.8324 10.221 24.8515 10.2398 24.8744 10.2558C24.9214 10.4489 24.9782 11.4352 24.9999 11.6908L25.2308 14.3434C25.2741 14.8397 25.3099 15.4272 25.3793 15.9111C24.9339 16.0132 24.4705 16.1356 24.0252 16.2457C23.9957 15.5106 23.8918 14.6727 23.849 13.9096C23.3177 14.0148 22.7132 14.1805 22.1783 14.3099C22.286 14.941 22.3439 16.0007 22.3818 16.6542L21.3686 16.9061C21.2551 16.9397 21.154 16.9772 21.0519 16.9395C21.0006 16.7601 20.9056 15.4366 20.8838 15.1745L20.5542 11.2753C20.9226 11.2135 21.5147 11.0442 21.8881 10.9484C21.9758 11.5592 22.017 12.4563 22.0629 13.0854C22.617 12.95 23.1929 12.8169 23.7391 12.6589C23.6303 12.0259 23.6289 11.2101 23.5256 10.5416C23.9549 10.4394 24.3829 10.3313 24.8094 10.2174Z"
      fill="currentColor" />
    <path id="Vector_4"
      d="M30.0656 8.91855L30.1462 8.91475L30.1756 8.95916L30.3711 11.2479C30.4601 12.2759 30.6916 13.5406 29.9887 14.4109C29.3346 15.2208 27.6072 15.6755 26.7626 14.9527C26.1054 14.3902 26.0783 13.2311 26.0082 12.4228L25.8828 10.9308C25.8388 10.6095 25.8514 10.3213 25.7852 9.98068C26.2027 9.89361 26.7188 9.74763 27.14 9.64092C27.1409 9.68029 27.1424 9.71963 27.1445 9.75894C27.1877 10.4631 27.2513 11.2659 27.3363 11.9638C27.4287 12.7242 27.2594 14.2265 28.3286 14.1127C28.5612 14.0869 28.7739 13.9683 28.9191 13.7833C29.2766 13.3286 29.0909 12.2681 29.0435 11.7127C28.9742 10.8827 28.8976 10.0533 28.8139 9.22459C29.2122 9.13973 29.6659 9.01703 30.0656 8.91855Z"
      fill="currentColor" />
    <path id="Vector_5"
      d="M6.82137 14.7062L6.87441 14.7001C6.89743 14.8403 5.61053 17.4524 5.45802 17.7501C5.5601 17.8823 5.67041 18.0175 5.78232 18.1412C6.37649 18.798 6.93912 19.5123 7.5506 20.1504C7.119 20.3159 6.58684 20.5645 6.15382 20.7517C5.97713 20.5002 5.652 20.1283 5.44429 19.8759C5.0596 19.4086 4.66676 18.9191 4.27227 18.4632C4.35984 19.2366 4.44951 20.3261 4.49194 21.0993C4.37932 21.1619 3.38076 21.385 3.16384 21.4435L2.66724 15.7268C3.09719 15.6378 3.59108 15.503 4.01714 15.3901C4.08111 16.2181 4.16368 17.0648 4.20827 17.8918C4.57958 16.9595 5.07521 15.9758 5.46734 15.0333C5.91761 14.9199 6.36897 14.8108 6.82137 14.7062Z"
      fill="currentColor" />
    <path id="Vector_6"
      d="M10.7116 13.7295C10.7554 13.7214 10.7347 13.7242 10.7867 13.7471C10.8486 13.9945 10.8826 14.5628 10.9018 14.8366C10.2622 14.9917 9.60568 15.1685 8.96586 15.311C9.00997 15.6064 9.04411 16.0624 9.06581 16.3605C9.54226 16.2401 10.0315 16.1086 10.5129 16.0154C10.6028 16.3832 10.6969 16.7498 10.7953 17.1153C10.2998 17.2639 9.68848 17.3972 9.17992 17.5166L9.26211 18.7606C9.88584 18.6374 10.6508 18.4232 11.2763 18.2645C11.2868 18.5317 11.3024 18.7988 11.3231 19.0654L11.3599 19.3813C10.4146 19.6736 9.02367 19.9747 8.03837 20.2207C8.03334 19.9777 8.01035 19.7081 7.98511 19.465C7.81519 17.8298 7.74454 16.1539 7.5459 14.5241L10.7116 13.7295Z"
      fill="currentColor" />
    <path id="Vector_7"
      d="M18.8062 11.6909C19.2114 11.686 19.346 11.7218 19.73 11.8233C19.731 12.1919 19.6885 12.6949 19.6666 13.0734C16.4328 11.6242 16.7032 18.5501 20.0007 15.8014C20.0778 16.1286 20.2419 16.6069 20.2502 16.9373C20.2515 16.9875 20.1892 17.014 20.1369 17.0521C19.6761 17.377 19.0651 17.6178 18.5292 17.6688C15.4658 17.9605 15.2133 12.9684 17.6606 11.9593C18.1181 11.7707 18.3305 11.727 18.8062 11.6909Z"
      fill="currentColor" />
    <path id="Vector_8"
      d="M15.4074 12.561L15.4425 12.5766C15.4919 12.6761 15.6743 13.4816 15.7183 13.6497C15.2433 13.7884 14.6266 13.9441 14.1424 14.0388C14.2465 15.4837 14.3942 17.1782 14.5438 18.6082C14.1381 18.692 13.6119 18.8305 13.2099 18.9403L13.0833 17.4237C13.0749 16.5665 12.8584 15.3137 12.8233 14.3805C12.3597 14.5117 11.8133 14.6299 11.3379 14.7472C11.3065 14.3667 11.2723 13.9865 11.2352 13.6066C12.5958 13.2405 14.034 12.9055 15.4074 12.561Z"
      fill="currentColor" />
    <path id="Vector_9"
      d="M11.3365 19.7945C11.9016 20.0618 11.9283 20.6574 11.9681 21.2001C12.3168 21.5322 12.4759 21.6038 12.2241 22.0888C12.3557 22.2242 12.6417 22.4613 12.6291 22.6557C12.5967 22.7013 12.5386 22.7872 12.5558 22.8472C12.695 23.3382 13.0698 23.9281 13.2075 24.4068C13.3361 24.8538 11.7578 25.0104 11.5081 25.0408C11.3006 25.049 9.78207 24.7252 9.62876 24.6054C9.57153 24.4135 9.73493 24.1455 9.82318 23.9618C9.76218 23.8462 9.67422 23.7078 9.6059 23.5935C9.77849 23.4425 9.91246 23.3199 10.0733 23.1563C10.1221 22.8912 10.216 22.3411 10.2711 22.0481C10.2734 22.0358 10.1876 21.9712 10.1906 21.9212C10.2021 21.7283 10.5975 21.3959 10.6601 21.2533C10.9164 20.6686 10.8431 20.3023 11.3365 19.7945Z"
      fill="currentColor" />
    <path id="Vector_10"
      d="M33.5527 16.2862C33.5421 18.1296 33.119 20.1098 32.3439 21.7667C32.2417 21.9855 32.146 22.2079 32.0538 22.4312C31.6201 22.0698 31.1922 21.6946 30.7121 21.3988C30.3581 21.186 29.9744 21.0282 29.5738 20.9306C31.3605 19.8536 32.7557 18.2251 33.5527 16.2862Z"
      fill="currentColor" />
    <path id="Vector_11"
      d="M14.5496 19.6866C14.8018 19.8119 14.8767 20.186 15.0189 20.427C15.1429 20.6373 15.267 20.8557 15.3821 21.0713C15.4283 21.1579 15.426 21.3598 15.4734 21.4515C15.7759 21.8637 15.8989 21.7496 15.712 22.2855C16.8999 23.3492 15.8886 23.4739 14.9494 23.6199C14.6094 23.6623 13.8741 23.9084 13.6164 23.6308C13.5351 23.5432 13.5759 23.3204 13.5905 23.2052C13.5174 23.0724 13.4381 22.9563 13.3544 22.8307C13.4295 22.5603 13.6398 22.1149 13.7511 21.8113L13.5963 21.516C13.7137 21.2571 13.9552 20.9565 14.0908 20.666C14.2548 20.3149 14.2813 19.9324 14.5496 19.6866Z"
      fill="currentColor" />
    <path id="Vector_12"
      d="M22.986 25.9991C23.0376 26.021 23.0137 26.0052 23.0475 26.0624C23.0304 26.7271 23.353 27.8146 23.6271 28.4261C23.4843 28.6561 23.2771 28.9863 23.0694 29.1425C22.1869 29.8061 20.1706 29.7272 19.1585 29.6296C18.8754 29.6171 18.5799 29.5913 18.2962 29.5705C21.0897 29.1455 21.4462 28.0547 22.986 25.9991Z"
      fill="currentColor" />
    <path id="Vector_13"
      d="M17.1965 19.1038C17.6012 19.3026 18.2358 21.1157 18.378 21.5414C18.0569 21.7446 17.8266 21.876 17.4488 21.9482C16.5719 21.9992 16.6938 21.5299 16.3056 20.9326C16.5558 20.5657 16.4982 20.5353 16.6311 20.1297C16.7341 19.8156 16.9875 19.3546 17.1965 19.1038Z"
      fill="currentColor" />
    <path id="Vector_14"
      d="M28.0101 16.4654C28.0986 16.5068 28.1405 16.5266 28.1795 16.6245C28.4632 17.335 28.6171 18.0742 28.9355 18.7752C28.5597 18.9363 28.3489 18.9604 27.957 18.9678C27.7789 18.933 27.2933 18.8568 27.1687 18.7522L27.1704 18.6829C27.2307 18.6011 27.2645 18.572 27.2718 18.4711C27.0823 18.1402 27.3183 18.259 27.3841 18.0322C27.5333 17.5179 27.6764 16.8941 28.0101 16.4654Z"
      fill="currentColor" />
    <path id="Vector_15"
      d="M21.1426 17.6416L21.2438 17.6691C21.4807 17.8659 21.6866 18.2894 21.796 18.5778C21.65 19 21.6302 19.1904 21.3333 19.5167C21.3938 19.6457 21.4864 19.7599 21.4683 19.8932C21.3277 20.0579 20.9835 19.9073 20.7792 20.0014L20.6767 20.0852C20.4944 20.1225 20.3726 20.0937 20.3264 19.8934C20.3017 19.786 20.4027 19.6713 20.4572 19.583C20.4028 19.4643 20.3409 19.3716 20.2714 19.2617C20.3585 19.1892 20.4277 19.1459 20.473 19.0431C20.4329 18.9183 20.4077 18.8513 20.4878 18.7409C20.7277 18.4101 20.8637 17.9304 21.1426 17.6416Z"
      fill="currentColor" />
    <path id="Vector_16"
      d="M22.7462 17.8373C22.8565 17.901 23.4005 18.6615 23.4441 18.7806C23.1809 19.2272 23.6991 19.3337 23.677 19.7347C23.5768 19.7976 23.334 19.7101 23.0854 19.854C22.9362 19.9146 22.5202 20.0302 22.368 20.0127C21.9589 19.9655 22.1731 19.4197 22.2296 19.2011C22.4169 19.0195 22.3451 18.5488 22.4784 18.2658C22.5704 18.0706 22.6208 18.0115 22.7462 17.8373Z"
      fill="currentColor" />
    <path id="Vector_17"
      d="M19.0216 18.5463C19.5359 18.7805 19.6594 20.0294 20.0429 20.5436C19.8337 20.6346 19.707 20.6884 19.4869 20.7533C19.2886 20.7489 19.0903 20.7218 18.8931 20.6987C18.8403 20.5433 18.504 19.7544 18.5 19.6797C18.4892 19.4819 18.8837 18.7221 19.0216 18.5463Z"
      fill="currentColor" />
    <path id="Vector_18"
      d="M24.6816 16.8936C24.9179 16.8925 25.1818 17.4481 25.2747 17.6505C25.1862 18.0064 25.135 18.26 24.8754 18.5179L25.0512 18.9117C24.7969 18.9567 24.6931 18.9575 24.4357 18.9572C24.2247 19.0147 24.3473 19.0744 24.0368 19.0164C23.9703 18.8776 24.0707 18.7607 24.0636 18.6005C24.061 18.5408 24.0094 18.4182 24.0119 18.3714C24.0295 18.042 24.4827 17.1113 24.6816 16.8936Z"
      fill="currentColor" />
    <path id="Vector_19"
      d="M29.4925 16.5022C29.7703 16.6134 30.1076 17.6545 30.2138 17.9563C30.0278 18.0806 29.9478 18.1199 29.7325 18.1771C29.2295 18.2217 29.1917 18.076 29.026 17.6308C29.1417 17.1073 29.2189 16.9608 29.4925 16.5022Z"
      fill="currentColor" />
    <path id="Vector_20"
      d="M30.7515 15.8819C31.0665 15.99 31.296 17.0737 31.5288 17.4462L31.0965 17.588C30.9701 17.5959 30.785 17.5674 30.6541 17.5518C30.5535 17.2646 30.4516 17.0468 30.3226 16.7701C30.4593 16.408 30.5341 16.199 30.7515 15.8819Z"
      fill="currentColor" />
    <path id="Vector_21"
      d="M25.8718 17.5375L25.9507 17.5812C26.1255 17.8573 26.5013 18.6152 26.5727 18.9273C26.4758 19.0675 26.2384 19.0816 26.0632 19.1145C25.9247 19.1375 25.7278 19.1907 25.6053 19.1405C25.4798 19.0263 25.4803 18.9309 25.4269 18.752C25.5343 18.5178 25.5159 18.4514 25.5944 18.2213C25.6689 18.003 25.781 17.7547 25.8718 17.5375Z"
      fill="currentColor" />
  </g>
</svg>