<svg width="170" height="30" viewBox="0 0 170 30" fill="none" xmlns="http://www.w3.org/2000/svg">
<g clip-path="url(#clip0_116_1917)">
<path d="M87.5228 14.4507C85.7984 14.4507 84.3719 13.0243 84.3719 11.236C84.3719 9.44762 85.7984 8.04248 87.5228 8.04248C89.3112 8.04248 90.7376 9.46891 90.7376 11.2573C90.7376 13.0456 89.3112 14.4507 87.5228 14.4507ZM87.5228 22.6474C85.7984 22.6474 84.3719 21.2209 84.3719 19.4326C84.3719 17.6442 85.7984 16.2178 87.5228 16.2178C89.3112 16.2178 90.7376 17.6442 90.7376 19.4326C90.7163 21.1784 89.3112 22.6474 87.5228 22.6474Z" fill="#FBBB12"/>
<path d="M48.3281 22.3069L43.7508 15.9838V22.3069H40.2805V8.40454H43.7508V14.3657L48.3281 8.40454H52.5435L47.1997 15.0683L52.9054 22.3069H48.3281Z" fill="#6BA8DB"/>
<path d="M53.8635 22.3069V8.40454H57.3337V22.3494H53.8635V22.3069Z" fill="#6BA8DB"/>
<path d="M67.2123 13.1307C67.2123 14.5145 66.2542 15.3235 64.7213 15.3235C64.4233 15.3235 63.9123 15.2809 63.6568 15.2171V11.0868C63.9549 11.0443 64.4659 11.0443 64.8704 11.0443C66.4458 11.0443 67.2123 12.0236 67.2123 13.1307ZM70.8741 12.9816C70.8741 10.0223 68.7877 8.29785 65.1258 8.29785C63.4014 8.29785 61.4001 8.34043 60.1866 8.4043V22.3492H63.6568V18.0273C63.9549 18.0273 64.5297 18.0699 64.8278 18.0699C68.3193 18.0699 70.8741 16.09 70.8741 12.9816Z" fill="#6BA8DB"/>
<path d="M79.0707 13.1307C79.0707 14.5145 78.1127 15.3235 76.5798 15.3235C76.2818 15.3235 75.7708 15.2809 75.5153 15.2171V11.0868C75.8134 11.0443 76.3243 11.0443 76.7289 11.0443C78.2617 11.0443 79.0707 12.0236 79.0707 13.1307ZM82.7326 12.9816C82.7326 10.0223 80.6462 8.29785 76.9843 8.29785C75.2599 8.29785 73.2586 8.34043 72.0451 8.4043V22.3492H75.5153V18.0273C75.8134 18.0273 76.3882 18.0699 76.6863 18.0699C80.1778 18.0699 82.7326 16.09 82.7326 12.9816Z" fill="#6BA8DB"/>
<path d="M36.5122 10.7463V10.7037C36.2993 10.1502 36.0438 9.57533 35.8096 9.02179C35.7032 8.91534 35.5541 8.87276 35.5116 8.72373C35.2135 8.02117 35.2561 8.02117 34.4896 8.06375C30.9342 8.21277 27.3149 8.42567 23.6957 8.46825C19.7783 8.51083 15.861 8.68115 11.9436 8.25535C11.4752 8.21277 11.2411 8.46825 11.2411 8.95792C11.2411 9.17082 11.1985 9.51146 11.092 9.57533C10.4746 9.78823 10.1766 10.2779 9.92108 10.7463C9.0482 10.3843 8.49466 10.7889 7.9837 11.4488C7.68564 10.9805 7.28113 10.9805 6.85534 11.3424C6.74889 11.4488 6.64244 11.4914 6.49341 11.5553C6.23793 11.5979 6.0889 11.7043 6.0889 12.0237C6.0889 12.2366 6.04632 12.492 5.72697 12.4282C5.32246 12.3856 5.0244 12.6411 4.76892 12.8327C4.51345 12.9817 4.30055 13.2372 4.06636 13.3862C3.91733 13.4927 3.70443 13.5353 3.5554 13.4927C2.59735 13.1946 1.42641 14.0462 1.42641 14.9617C1.21351 14.9617 0.958029 14.9191 0.76642 14.9617C0.55352 15.0681 0.212882 15.2172 0.212882 15.3662C-1.74639e-05 15.7707 0.0638523 16.2391 0.0638523 16.6862C0.276751 16.7287 0.361911 16.7287 0.53223 16.7287C1.34125 16.7713 2.17155 16.7713 2.98057 16.7713C4.15152 16.7713 5.32246 16.9204 6.45083 16.4733C6.70631 16.3668 7.06823 16.4307 7.25984 16.3242C7.91983 15.9197 8.64369 15.8559 9.34626 15.9197C9.85721 15.9197 10.3043 15.9623 10.8153 16.0262C15.7971 12.9817 24.6963 9.17082 36.5122 10.7463Z" fill="#6BA8DB"/>
<path d="M20.2254 18.3253C20.268 18.3679 20.268 18.3679 20.3319 18.4318C21.7583 19.8582 23.1847 21.242 24.6111 22.6472C24.7602 22.7962 24.9092 22.8601 25.1647 22.7536C25.5266 22.6472 25.9311 22.5407 26.3356 22.4981C26.5911 22.4556 26.8466 22.4556 27.0382 22.7536C27.1872 23.0091 27.6982 22.9026 27.8046 22.6046C28.1665 21.8382 28.5072 21.1356 28.8265 20.3691C28.9756 19.9008 29.3375 19.7092 29.6994 19.4537C30.0613 19.2408 30.402 18.9853 30.7213 18.7937C30.9342 18.6447 31.1258 18.5382 31.3387 18.4318C31.9561 18.1337 32.6587 18.1763 33.3187 18.1763C33.4677 18.1763 33.6806 18.0698 33.7232 17.9634C33.8722 17.6653 34.0851 17.495 34.3406 17.346C34.4896 17.2395 34.6387 16.9415 34.7025 16.7286C34.7025 16.5157 34.5961 16.2602 34.4471 16.175C34.1916 16.026 33.8935 15.9621 33.5316 15.8131C33.6381 15.6641 33.7871 15.5576 33.8297 15.4086C33.8722 15.2596 33.8722 15.1105 33.9361 14.8976C34.0851 14.8976 34.2342 14.8976 34.4045 14.8976C35.2774 14.9402 35.5754 14.7486 35.9374 13.9822C35.9799 13.8331 36.1928 13.7693 36.2993 13.6841C36.4483 13.5777 36.7038 13.4712 36.7677 13.3222C36.9806 12.8538 37.0231 12.3641 36.7677 11.8958C36.7677 11.8532 36.7251 11.8532 36.7251 11.7893C34.5748 11.6616 26.7401 11.4487 20.2254 18.3253Z" fill="#6BA8DB"/>
<path d="M19.5016 17.6654C26.2718 10.9378 35.6819 11.4062 36.4483 11.4488C36.4909 11.4488 36.4909 11.4488 36.4909 11.4488L36.4483 11.0442C36.2993 11.0442 36.0864 11.0017 35.9374 11.0017C35.6819 10.9591 35.4264 10.9591 35.1709 10.9591C24.5473 10.0223 16.6061 13.4287 12.1778 16.1325C12.7314 16.1751 13.3062 16.1751 13.8597 16.239C13.8597 16.3454 13.8597 16.4519 13.9023 16.4945C13.9023 16.6009 13.9449 16.6435 14.0088 16.7499C14.7113 16.4945 14.7113 16.537 15.0307 17.8783C15.0733 17.8783 15.1371 17.8783 15.1797 17.8783C16.4997 17.9209 17.8835 17.9209 19.2035 17.9209C19.3099 17.857 19.3951 17.7719 19.5016 17.6654Z" fill="#FBBB12"/>
<path d="M19.5016 17.6655C19.3951 17.772 19.2887 17.8784 19.2035 17.9636C19.31 17.8571 19.3951 17.772 19.5016 17.6655Z" fill="#FABA1A"/>
<path d="M36.0012 11.0017C36.1503 11.0017 36.3632 11.0443 36.5122 11.0443C36.2993 11.0443 36.1503 11.0443 36.0012 11.0017Z" fill="#FABA1A"/>
<path d="M97.6142 14.4295L95.1233 10.6612V14.4295H93.6756V8.12769H95.1872L97.5078 11.6618V8.12769H98.9555V14.4295H97.6142Z" fill="#6BA8DB"/>
<path d="M102.894 14.5572C101.085 14.5572 99.8923 13.2373 99.8923 11.2999C99.8923 9.34122 101.085 8.02124 102.915 8.02124C104.746 8.02124 105.917 9.34121 105.917 11.2786C105.939 13.216 104.746 14.5572 102.894 14.5572ZM102.915 9.23477C102 9.23477 101.468 10.0225 101.468 11.2786C101.468 12.5347 102 13.3224 102.915 13.3224C103.831 13.3224 104.363 12.5347 104.363 11.2786C104.363 10.0225 103.831 9.23477 102.915 9.23477Z" fill="#6BA8DB"/>
<path d="M110.175 14.4934L108.813 12.2579H108.43V14.4295H106.875V8.12769H109.09C110.622 8.12769 111.517 8.83025 111.517 10.1289C111.517 11.0018 111.069 11.5979 110.324 11.9173L111.879 14.2379L110.175 14.4934ZM108.898 9.29863H108.387V11.1296H108.877C109.558 11.1296 109.941 10.8102 109.941 10.1928C109.941 9.61798 109.579 9.29863 108.898 9.29863Z" fill="#6BA8DB"/>
<path d="M115.349 9.44766V14.4295H113.773V9.44766H111.985V8.12769H116.988L117.201 9.44766H115.349Z" fill="#6BA8DB"/>
<path d="M121.651 14.4295V11.8747H119.458V14.4295H117.904V8.12769H119.458V10.5122H121.651V8.12769H123.226V14.4295H121.651Z" fill="#6BA8DB"/>
<path d="M129.081 14.536C127.186 14.536 126.058 13.2799 126.058 11.2786C126.058 9.31997 127.25 8 129.166 8C129.826 8 130.379 8.14903 130.827 8.40451L130.614 9.80964C130.23 9.51158 129.805 9.29868 129.251 9.29868C128.272 9.29868 127.633 10.0438 127.633 11.2574C127.633 12.4922 128.293 13.216 129.294 13.216C129.805 13.216 130.273 13.0244 130.72 12.7264L130.912 14.025C130.422 14.3444 129.826 14.536 129.081 14.536Z" fill="#6BA8DB"/>
<path d="M133.594 8.08521H135.319L137.512 14.238L135.936 14.4935L135.468 13.1309H133.275L132.849 14.4296H131.316L133.594 8.08521ZM133.658 11.8961H135.085L134.361 9.70324L133.658 11.8961Z" fill="#6BA8DB"/>
<path d="M141.535 14.4934L140.152 12.2579H139.768V14.4295H138.214V8.12769H140.428C141.961 8.12769 142.855 8.83025 142.855 10.1289C142.855 11.0018 142.408 11.5979 141.663 11.9173L143.217 14.2379L141.535 14.4934ZM140.258 9.29863H139.747V11.1296H140.237C140.918 11.1296 141.301 10.8102 141.301 10.1928C141.301 9.61798 140.918 9.29863 140.258 9.29863Z" fill="#6BA8DB"/>
<path d="M146.538 14.5572C144.729 14.5572 143.537 13.2373 143.537 11.2999C143.537 9.34122 144.729 8.02124 146.56 8.02124C148.391 8.02124 149.562 9.34121 149.562 11.2786C149.562 13.216 148.369 14.5572 146.538 14.5572ZM146.538 9.23477C145.623 9.23477 145.091 10.0225 145.091 11.2786C145.091 12.5347 145.623 13.3224 146.538 13.3224C147.454 13.3224 147.986 12.5347 147.986 11.2786C147.986 10.0225 147.454 9.23477 146.538 9.23477Z" fill="#6BA8DB"/>
<path d="M150.477 14.4295V8.12769H152.031V13.0882H153.969L154.182 14.4508H150.477V14.4295Z" fill="#6BA8DB"/>
<path d="M154.991 14.4295V8.12769H156.545V14.4295H154.991Z" fill="#6BA8DB"/>
<path d="M161.676 14.4295L159.185 10.6612V14.4295H157.737V8.12769H159.249L161.59 11.6405V8.12769H163.038V14.4295H161.676Z" fill="#6BA8DB"/>
<path d="M165.997 8.08521H167.722L169.915 14.238L168.339 14.4935L167.871 13.1309H165.699L165.274 14.4296H163.741L165.997 8.08521ZM166.061 11.8961H167.488L166.785 9.70324L166.061 11.8961Z" fill="#6BA8DB"/>
<path d="M95.102 20.1565H94.3143V22.8177H93.6756V16.4946H95.2298C96.5285 16.4946 97.3162 17.1333 97.3162 18.283C97.3162 19.5178 96.4007 20.1565 95.102 20.1565ZM95.2085 17.0482H94.3143V19.5817H95.1233C96.0814 19.5817 96.6775 19.1559 96.6775 18.283C96.6775 17.474 96.1665 17.0482 95.2085 17.0482Z" fill="#6BA8DB"/>
<path d="M101.383 22.9242C99.8923 22.9242 99.0194 21.9236 99.0194 20.4546V16.4946H99.6581V20.3694C99.6581 21.5403 100.233 22.3494 101.404 22.3494C102.532 22.3494 103.15 21.6042 103.15 20.412V16.4946H103.788V20.412C103.767 21.9448 102.852 22.9242 101.383 22.9242Z" fill="#6BA8DB"/>
<path d="M107.365 22.839H105.896V16.4946H107.365C108.664 16.4946 109.324 17.1333 109.324 18.0701C109.324 18.7514 108.941 19.2197 108.366 19.4539C109.111 19.6668 109.622 20.1565 109.622 20.9868C109.622 22.2216 108.728 22.839 107.365 22.839ZM107.365 17.0482H106.535V19.241H107.344C108.238 19.241 108.706 18.7514 108.706 18.0914C108.706 17.4527 108.259 17.0482 107.365 17.0482ZM107.386 19.7733H106.535V22.2855H107.429C108.387 22.2855 109.004 21.8384 109.004 21.0507C109.004 20.1778 108.387 19.7733 107.386 19.7733Z" fill="#6BA8DB"/>
<path d="M111.495 22.839V16.4946H112.134V22.2429H114.582L114.667 22.839H111.495Z" fill="#6BA8DB"/>
<path d="M116.371 22.839V16.4946H117.009V22.8177H116.371V22.839Z" fill="#6BA8DB"/>
<path d="M121.906 22.9455C120.182 22.9455 119.032 21.6256 119.032 19.6669C119.032 17.7295 120.203 16.3669 121.949 16.3669C122.672 16.3669 123.247 16.5798 123.737 16.8992L123.631 17.5379C123.141 17.176 122.587 16.9205 121.949 16.9205C120.543 16.9205 119.692 18.0276 119.692 19.6243C119.692 21.2423 120.565 22.3494 121.949 22.3494C122.63 22.3494 123.247 22.0939 123.758 21.6894L123.843 22.2855C123.375 22.6688 122.672 22.9455 121.906 22.9455Z" fill="#6BA8DB"/>
<path d="M129.762 22.9028C129.081 22.9028 128.506 22.7325 128.08 22.4983L128.165 21.8596C128.549 22.1151 129.145 22.328 129.783 22.328C130.528 22.328 131.082 21.9022 131.082 21.1997C131.082 20.5822 130.763 20.2629 129.805 19.8371C128.591 19.3049 128.144 18.9003 128.144 18.0062C128.144 17.0481 128.91 16.4094 129.954 16.4094C130.55 16.4094 131.018 16.5372 131.359 16.7501L131.274 17.3888C130.912 17.1546 130.486 16.9843 129.954 16.9843C129.209 16.9843 128.804 17.4313 128.804 17.9849C128.804 18.5597 129.102 18.8365 130.081 19.2623C131.252 19.7732 131.742 20.2416 131.742 21.1571C131.721 22.2429 130.869 22.9028 129.762 22.9028Z" fill="#6BA8DB"/>
<path d="M136.17 22.9455C134.446 22.9455 133.296 21.6256 133.296 19.6669C133.296 17.7295 134.467 16.3669 136.213 16.3669C136.937 16.3669 137.512 16.5798 138.001 16.8992L137.895 17.5379C137.405 17.176 136.852 16.9205 136.213 16.9205C134.808 16.9205 133.956 18.0276 133.956 19.6243C133.956 21.2423 134.829 22.3494 136.213 22.3494C136.894 22.3494 137.512 22.0939 138.023 21.6894L138.108 22.2855C137.618 22.6688 136.915 22.9455 136.17 22.9455Z" fill="#6BA8DB"/>
<path d="M144.133 22.839V19.7946H140.62V22.8177H139.981V16.4946H140.62V19.2197H144.133V16.4946H144.771V22.8177H144.133V22.839Z" fill="#6BA8DB"/>
<path d="M149.583 22.9455C147.901 22.9455 146.73 21.6043 146.73 19.6669C146.73 17.7295 147.901 16.3669 149.604 16.3669C151.307 16.3669 152.457 17.7082 152.457 19.6456C152.457 21.583 151.286 22.9455 149.583 22.9455ZM149.583 16.9418C148.242 16.9418 147.39 18.0488 147.39 19.6456C147.39 21.2636 148.263 22.3707 149.604 22.3707C150.946 22.3707 151.797 21.2636 151.797 19.6669C151.797 18.0488 150.924 16.9418 149.583 16.9418Z" fill="#6BA8DB"/>
<path d="M156.971 22.9455C155.289 22.9455 154.118 21.6043 154.118 19.6669C154.118 17.7295 155.289 16.3669 156.992 16.3669C158.695 16.3669 159.845 17.7082 159.845 19.6456C159.845 21.583 158.674 22.9455 156.971 22.9455ZM156.971 16.9418C155.629 16.9418 154.778 18.0488 154.778 19.6456C154.778 21.2636 155.651 22.3707 156.992 22.3707C158.333 22.3707 159.185 21.2636 159.185 19.6669C159.185 18.0488 158.312 16.9418 156.971 16.9418Z" fill="#6BA8DB"/>
<path d="M161.803 22.839V16.4946H162.442V22.2429H164.89L164.976 22.839H161.803Z" fill="#6BA8DB"/>
<path d="M168.02 22.9028C167.339 22.9028 166.764 22.7325 166.338 22.4983L166.423 21.8596C166.806 22.1151 167.403 22.328 168.041 22.328C168.786 22.328 169.34 21.9022 169.34 21.1997C169.34 20.5822 169.021 20.2629 168.063 19.8371C166.849 19.3049 166.402 18.9003 166.402 18.0062C166.402 17.0481 167.168 16.4094 168.212 16.4094C168.808 16.4094 169.276 16.5372 169.617 16.7501L169.532 17.3888C169.17 17.1546 168.744 16.9843 168.212 16.9843C167.466 16.9843 167.062 17.4313 167.062 17.9849C167.062 18.5597 167.36 18.8365 168.339 19.2623C169.51 19.7732 170 20.2416 170 21.1571C170 22.2429 169.148 22.9028 168.02 22.9028Z" fill="#6BA8DB"/>
</g>
<defs>
<clipPath id="clip0_116_1917">
<rect width="170" height="14.9455" fill="white" transform="translate(0 8)"/>
</clipPath>
</defs>
</svg>
