<?xml version="1.0" encoding="UTF-8"?>
<svg viewBox="0 0 596 216" fill="none" xmlns="http://www.w3.org/2000/svg"> <path d="M115.322 182.988C105.051 182.988 99.0932 175.025 99.0932 166.042C99.0932 155.629 105.872 148.688 115.322 148.688C120.252 148.688 123.539 150.729 126.621 152.567L131.551 143.788C128.059 141.542 122.101 138.888 115.938 138.888C99.7095 138.888 88 150.321 88 166.042C88 181.558 99.9149 193.196 115.938 193.196C122.718 193.196 127.648 190.338 131.551 188.092L126.621 179.313C123.539 181.354 119.02 182.988 115.322 182.988ZM150.04 115H160.517V191.767H150.04V115ZM220.913 140.521L219.68 145.013C216.804 141.95 210.847 138.888 204.479 138.888C191.536 138.888 179.622 149.096 179.622 165.633C179.622 182.783 191.536 193.196 204.479 193.196C210.847 193.196 216.599 190.133 219.68 187.071L220.913 191.767H229.746V140.725H220.913V140.521ZM219.886 166.45C219.886 178.088 212.696 183.396 205.917 183.396C198.932 183.396 190.92 178.7 190.92 165.838C190.92 157.671 195.234 148.892 205.095 148.892C212.49 148.892 219.886 154.813 219.886 165.838V166.45ZM267.135 170.533C274.325 172.371 277.406 173.8 277.406 177.475C277.406 180.333 274.941 183.192 269.189 183.192C263.848 183.192 259.534 181.354 255.425 179.108L250.7 187.888C254.398 190.133 262.41 193.196 269.189 193.196C280.693 193.196 287.472 185.438 287.472 177.679C287.472 164.204 274.119 162.163 270.627 160.938C263.231 158.896 261.383 157.467 261.383 154.404C261.383 151.137 264.259 148.892 269.6 148.892C274.325 148.892 277.817 150.321 281.104 151.954L286.034 143.175C281.309 141.133 275.763 139.092 269.6 139.092C258.301 139.092 251.522 147.054 251.522 154.404C251.316 166.042 261.382 169.104 267.135 170.533ZM323.217 170.533C330.407 172.371 333.488 173.8 333.488 177.475C333.488 180.333 331.023 183.192 325.271 183.192C319.93 183.192 315.616 181.354 311.507 179.108L306.782 187.888C310.48 190.133 318.492 193.196 325.271 193.196C336.775 193.196 343.554 185.438 343.554 177.679C343.554 164.204 330.201 162.163 326.709 160.938C319.314 158.896 317.465 157.467 317.465 154.404C317.465 151.137 320.341 148.892 325.682 148.892C330.407 148.892 333.899 150.321 337.186 151.954L342.116 143.175C337.391 141.133 331.845 139.092 325.682 139.092C314.383 139.092 307.604 147.054 307.604 154.404C307.399 166.042 317.465 169.104 323.217 170.533ZM388.954 138.888C382.586 138.888 376.834 141.95 373.752 145.013L372.52 140.317H363.686V213H373.547V187.683L373.958 187.479C376.834 190.542 382.586 192.992 388.133 192.992C401.485 192.992 413.811 184.417 413.811 165.429C414.017 148.279 402.102 138.888 388.954 138.888ZM387.722 183.396C380.942 183.396 373.752 178.088 373.752 166.45V165.838C373.752 154.608 381.148 148.892 388.543 148.892C398.404 148.892 402.718 157.671 402.718 165.838C402.718 178.7 394.706 183.396 387.722 183.396ZM472.359 140.521L471.126 145.217C468.25 142.154 462.293 139.092 455.924 139.092C442.982 139.092 431.067 149.3 431.067 165.838C431.067 182.988 442.982 193.4 455.924 193.4C462.293 193.4 468.045 190.338 471.126 187.275L472.359 191.971H481.192V140.929H472.359V140.521ZM471.331 166.45C471.331 178.088 464.141 183.396 457.362 183.396C450.378 183.396 442.366 178.7 442.366 165.838C442.366 157.671 446.68 148.892 456.541 148.892C463.936 148.892 471.331 154.813 471.331 165.838V166.45ZM518.58 170.533C525.77 172.371 528.852 173.8 528.852 177.475C528.852 180.333 526.387 183.192 520.635 183.192C515.293 183.192 510.979 181.354 506.871 179.108L502.146 187.888C505.844 190.133 513.855 193.196 520.635 193.196C532.139 193.196 538.918 185.438 538.918 177.679C538.918 164.204 525.565 162.163 522.073 160.938C514.677 158.896 512.828 157.467 512.828 154.404C512.828 151.137 515.704 148.892 521.045 148.892C525.77 148.892 529.263 150.321 532.549 151.954L537.48 143.175C532.755 141.133 527.208 139.092 521.045 139.092C509.747 139.092 502.968 147.054 502.968 154.404C502.762 166.042 512.828 169.104 518.58 170.533ZM574.663 170.533C581.853 172.371 584.934 173.8 584.934 177.475C584.934 180.333 582.469 183.192 576.717 183.192C571.376 183.192 567.062 181.354 562.953 179.108L558.228 187.888C561.926 190.133 569.938 193.196 576.717 193.196C588.221 193.196 595 185.438 595 177.679C595 164.204 581.647 162.163 578.155 160.938C570.759 158.896 568.91 157.467 568.91 154.404C568.91 151.137 571.787 148.892 577.128 148.892C581.853 148.892 585.345 150.321 588.632 151.954L593.562 143.175C588.837 141.133 583.291 139.092 577.128 139.092C565.829 139.092 559.05 147.054 559.05 154.404C558.844 166.042 568.91 169.104 574.663 170.533Z" fill="currentColor" /> <path d="M171.86 46.7937V78.9137H159.859V51.2889C159.859 40.7949 156.216 36.9425 148.714 36.9425C141.211 36.9425 136.925 42.4047 136.925 52.2508V78.9087H124.924V51.2839C124.924 40.7898 121.388 36.9374 113.997 36.9374C105.856 36.9374 101.996 42.3996 101.996 52.2457V78.9036H90V26.661H102.001V34.3709H102.214C106.5 28.5897 112.285 25.9118 118.714 25.9118C126.642 25.9118 132.108 29.4453 134.894 35.763C140.036 29.2327 146.358 25.9118 153.43 25.9118C165.431 25.9118 171.86 33.8343 171.86 46.7886V46.7937ZM181.581 78.9137H193.582V26.661H181.581V78.9137ZM187.579 3C183.081 3 179.545 6.63977 179.545 10.9224C179.545 15.2051 183.081 18.9512 187.579 18.9512C192.078 18.9512 195.725 15.3114 195.725 10.9224C195.725 6.53346 192.083 3 187.579 3ZM233.887 25.9118C227.028 25.9118 220.817 28.4834 216.425 34.3709H216.212V26.661H204.211V78.9137H216.212V52.2558C216.212 42.4047 220.391 36.9475 229.175 36.9475C237.21 36.9475 241.07 40.7999 241.07 51.294V78.9188H253.071V46.7987C253.071 33.8444 246.43 25.9219 233.892 25.9219L233.887 25.9118ZM301.208 4.06814H313.102V78.9087H301.638V71.4114H301.425C297.677 76.9799 291.998 79.7642 284.495 79.7642C270.032 79.7642 259.1 69.1638 259.1 52.9949C259.1 36.8261 270.027 25.9067 284.389 25.9067C291.248 25.9067 297.14 28.1544 300.995 33.08H301.208V4.06814ZM301.638 52.7874C301.638 42.6173 295.959 36.7248 286.425 36.7248C278.066 36.7248 271.319 42.9362 271.319 52.7874C271.319 62.6385 277.535 68.8499 286.319 68.8499C295.103 68.8499 301.643 63.4941 301.643 52.7874H301.638ZM377.064 53C377.064 69.1689 366.137 79.7692 351.669 79.7692C344.171 79.7692 338.493 76.985 334.739 71.4165H334.526V78.9137H323.062V4.06814H334.957V33.085H335.169C339.024 28.1595 344.921 25.9118 351.775 25.9118C366.132 25.9118 377.064 37.2614 377.064 53ZM364.85 52.7874C364.85 42.9362 358.098 36.7248 349.744 36.7248C340.21 36.7248 334.526 42.6122 334.526 52.7874C334.526 63.4941 340.742 68.8499 349.85 68.8499C358.959 68.8499 364.85 62.2133 364.85 52.7874ZM436.604 52.9139C436.594 68.7487 425.241 79.7692 409.172 79.7692C393.103 79.7692 381.74 68.207 381.74 52.8937C381.74 37.5803 392.596 25.9928 409 25.9118C424.167 25.8409 436.609 37.7575 436.599 52.9139H436.604ZM424.39 52.8937C424.39 42.9362 417.749 36.1933 409.177 36.1933C400.069 36.1933 393.964 43.4728 393.964 52.8937C393.964 62.3146 400.18 69.3815 409.177 69.3815C417.642 69.3815 424.39 62.6385 424.39 52.8937ZM483.403 4.06814H495.297V78.9087H483.833V71.4114H483.62C479.872 76.9799 474.193 79.7642 466.69 79.7642C452.227 79.7642 441.295 69.1638 441.295 52.9949C441.295 36.8261 452.222 25.9067 466.584 25.9067C473.443 25.9067 479.335 28.1544 483.19 33.08H483.403V4.06814ZM483.833 52.7874C483.833 42.6173 478.154 36.7248 468.62 36.7248C460.262 36.7248 453.514 42.9362 453.514 52.7874C453.514 62.6385 459.73 68.8499 468.514 68.8499C477.298 68.8499 483.838 63.4941 483.838 52.7874H483.833ZM540.004 26.661V51.6079C540.004 61.459 535.931 66.9162 527.359 66.9162C519.538 66.9162 515.789 63.0638 515.789 52.5697V26.661H503.788V57.2827C503.788 70.237 510.323 78.1594 522.643 78.1594C529.391 78.1594 535.931 75.3752 539.786 69.913H539.999V74.1957C539.999 83.404 534.751 88.9724 524.462 88.9724C516.964 88.9724 512.354 86.8311 506.675 83.8342L503.783 94.3283C509.674 97.8618 517.283 99.7905 525.105 99.7905C544.604 99.7905 552 87.9043 552 71.5228V26.661H539.999H540.004Z" fill="currentColor" /> <path fillRule="evenodd" clipRule="evenodd" d="M32 141H21V161H1V172H21V192H32V172H52V161H32V141Z" fill="currentColor" /> </svg>
