<?xml version="1.0" encoding="UTF-8"?>
<svg xmlns="http://www.w3.org/2000/svg" fill="none" viewBox="0 0 97 48"> <g> <path fill="#fff" d="m2.397 11.206 15.529-1.142c1.906-.164 2.397-.053 3.596.817l4.957 3.484c.817.598 1.09.762 1.09 1.415v19.108c0 1.198-.436 1.906-1.961 2.014L7.575 37.99c-1.145.055-1.69-.108-2.289-.87l-3.651-4.737C.98 31.512.708 30.86.708 30.096V13.111c0-.979.436-1.796 1.69-1.904Z" /> <path fill="#000" d="M17.926 10.064 2.397 11.207c-1.253.108-1.689.925-1.689 1.904v16.985c0 .764.272 1.416.927 2.287l3.65 4.737c.599.762 1.144.926 2.29.87l18.032-1.088c1.526-.108 1.962-.816 1.962-2.014V15.78c0-.62-.245-.799-.967-1.325l-.123-.09-4.957-3.484c-1.199-.87-1.69-.98-3.596-.817Zm-9.943 5.402c-1.472.1-1.806.122-2.643-.558l-2.126-1.687c-.217-.218-.108-.49.437-.544l14.928-1.089c1.253-.11 1.907.328 2.398.707l2.56 1.852c.109.054.38.38.054.38l-15.418.927-.19.012ZM6.266 34.724V18.5c0-.707.218-1.034.872-1.089l17.706-1.034c.6-.054.873.328.873 1.034v16.113c0 .71-.11 1.308-1.09 1.362l-16.944.98c-.982.055-1.417-.27-1.417-1.143ZM22.994 19.37c.108.491 0 .982-.493 1.037l-.815.162v11.976c-.71.381-1.363.599-1.908.599-.872 0-1.09-.272-1.744-1.089l-5.34-8.382v8.111l1.69.38s0 .98-1.364.98l-3.758.218c-.11-.218 0-.762.382-.87l.98-.272V21.495l-1.362-.11c-.108-.49.163-1.197.926-1.252l4.033-.27 5.557 8.491v-7.512l-1.416-.163c-.11-.6.326-1.036.87-1.089l3.762-.219Zm25.423-2.804v15.166h-2.42l-7.175-10.376h-.125v10.376h-2.725V16.567h2.443l7.16 10.373h.14V16.568h2.703Zm7.218 15.386c-1.11 0-2.073-.244-2.888-.733a4.93 4.93 0 0 1-1.888-2.05c-.443-.88-.666-1.906-.666-3.08 0-1.176.222-2.205.666-3.088a4.923 4.923 0 0 1 1.888-2.058c.814-.489 1.778-.734 2.888-.734 1.106 0 2.066.245 2.88.734a4.918 4.918 0 0 1 1.888 2.058c.45.883.674 1.912.674 3.087 0 1.175-.225 2.202-.674 3.08a4.929 4.929 0 0 1-1.888 2.052c-.814.488-1.774.732-2.88.732Zm.008-2.133c.612 0 1.12-.164 1.525-.495.405-.335.708-.784.91-1.348.203-.568.304-1.2.304-1.895 0-.696-.1-1.328-.304-1.896-.202-.567-.505-1.02-.91-1.354-.405-.34-.913-.511-1.525-.511-.618 0-1.131.17-1.54.51-.41.337-.716.788-.919 1.355a5.769 5.769 0 0 0-.295 1.896c0 .696.098 1.328.295 1.895.203.564.51 1.013.919 1.348.41.33.922.495 1.54.495Zm12.735-9.46v2.058h-6.515V20.36h6.515Zm-4.903-2.726h2.66v10.684c0 .36.054.636.162.83a.875.875 0 0 0 .445.392c.182.069.387.103.614.103.154 0 .307-.011.459-.037.138-.024.247-.047.326-.066l.444 2.08a5.029 5.029 0 0 1-1.57.266c-.666.02-1.268-.08-1.806-.303a2.844 2.844 0 0 1-1.273-1.044c-.312-.474-.464-1.069-.46-1.784V17.634Zm6.533 14.098V20.359h2.667v11.373h-2.666Zm1.341-12.995a1.54 1.54 0 0 1-1.089-.421 1.36 1.36 0 0 1-.452-1.023c0-.4.15-.74.452-1.021a1.54 1.54 0 0 1 1.088-.43c.425 0 .788.143 1.09.43.305.281.458.622.458 1.021 0 .395-.153.736-.459 1.022a1.538 1.538 0 0 1-1.088.423v-.001Zm8.41 13.216c-1.11 0-2.072-.244-2.887-.733a4.928 4.928 0 0 1-1.888-2.05c-.444-.88-.666-1.906-.666-3.08 0-1.176.222-2.205.666-3.088a4.923 4.923 0 0 1 1.888-2.058c.815-.489 1.777-.734 2.888-.734 1.106 0 2.066.245 2.88.734a4.92 4.92 0 0 1 1.888 2.058c.45.883.674 1.912.674 3.087 0 1.175-.224 2.202-.674 3.08a4.926 4.926 0 0 1-1.888 2.052c-.814.488-1.774.732-2.88.732Zm.008-2.133c.612 0 1.12-.164 1.525-.495.406-.335.709-.784.912-1.348.202-.568.303-1.2.303-1.895 0-.696-.101-1.328-.303-1.896-.203-.567-.506-1.02-.912-1.354-.405-.34-.913-.511-1.525-.511-.617 0-1.13.17-1.54.51-.41.337-.715.788-.918 1.355a5.771 5.771 0 0 0-.296 1.896c0 .696.098 1.328.296 1.895.203.564.509 1.013.919 1.348.41.33.922.495 1.54.495Zm9.736-4.76v6.67h-2.665V20.36h2.547v1.924h.134a3.256 3.256 0 0 1 1.25-1.51c.578-.375 1.292-.563 2.141-.563.78 0 1.46.169 2.044.505.59.338 1.064.846 1.362 1.458.325.636.488 1.409.488 2.317v7.242h-2.657v-6.835c0-.76-.198-1.354-.593-1.784-.396-.434-.941-.652-1.637-.652a2.49 2.49 0 0 0-1.251.312 2.129 2.129 0 0 0-.859.889c-.202.383-.304.85-.304 1.398Z" /> </g> </svg>
