<?xml version="1.0" encoding="UTF-8"?>
<svg xmlns="http://www.w3.org/2000/svg" fill="none" viewBox="0 0 66 48"> <g> <path fill="currentColor" d="M12.23 15.583c-2.25 0-4.109.979-5.054 2.61h-.323v-2.61c-1.787.566-3.822.658-5.725.664V41.2h6.048v-10.16H7.5c.979 1.141 2.74 1.827 4.632 1.827 4.499 0 7.76-3.62 7.76-8.642 0-5.023-3.259-8.643-7.662-8.643Zm-2.314 15.98c-1.957 0-2.74-1.923-2.74-4.892v-4.404c0-3.227.816-5.216 2.805-5.216 2.478 0 3.39 2.934 3.39 7.174s-.944 7.338-3.455 7.338Zm38.933-15.98c-1.863.59-4.125.667-6.197.665v16.294h6.197V15.583Zm9.53 6.85c0-.817.488-1.306 1.304-1.306h5.543l.653-5.544-2.61.163c-2.445.164-4.304 2.087-4.89 5.055h-.325v-5.218c-1.787.573-3.827.66-5.87.664v16.295h6.201l-.007-10.11Zm-27.448-6.85c-5.478 0-8.217 1.86-8.543 6.1l-.083 1.108 6.377-1.252v-.738c0-3.358.587-4.565 2.25-4.565 1.37 0 2.315 1.076 2.315 3.913v3.26l-4.859.88c-4.892.88-6.882 2.51-6.882 5.087 0 2.12 2.087 3.49 5.382 3.49 3.227 0 5.478-1.174 6.358-3.261h.324v2.936h5.741V21.41c.003-4.115-3.153-5.828-8.38-5.828Zm2.316 9.522c0 3.947-1.108 6.133-3.13 6.133-1.273 0-2.088-1.077-2.088-2.74 0-1.794 1.533-3.816 5.218-4.436v1.043ZM48.82 7.065s-2.211.31-6.274.757v5.447c3.767.059 6.274-.757 6.274-.757V7.065Z" /> </g> </svg>
