<svg width="162" height="39" viewBox="0 0 162 39" fill="none" xmlns="http://www.w3.org/2000/svg">
<path fill-rule="evenodd" clip-rule="evenodd" d="M14.6504 10.4793V0H15.7317V10.5258L26.0223 0.205924V11.2667H30.4275V27.0508H26.0223V38.1733L15.7317 27.8535V39H14.6504V27.9011L4.40626 38.1732V27.0508H0V11.2667H4.40518V0.206022L14.6504 10.4793ZM13.9071 11.2667L5.48647 2.82298V11.2667H13.9071ZM4.40518 12.35H1.08129V25.9675H4.40531L4.40631 21.8801L13.9072 12.3522H4.40518V12.35ZM5.48755 22.3286V35.5563L14.6504 26.3684V13.1407L5.48755 22.3286ZM15.7555 13.1179V26.3445L24.9411 35.5562V27.0508H24.9398L24.941 22.3285L15.7555 13.1179ZM26.0223 25.9675V21.8801L16.5214 12.3522H26.0223V12.35H29.3462V25.9675H26.0223ZM24.9411 11.2667V2.82308L16.5214 11.2667H24.9411Z" fill="#0C0A08" />
<path d="M59.9705 14.1136C60.6117 12.9121 61.5081 11.987 62.664 11.3359C63.8177 10.687 65.1715 10.362 66.7242 10.362C68.277 10.362 69.5626 10.6816 70.6385 11.3218C71.7155 11.9621 72.521 12.8103 73.0541 13.8666C73.5872 14.9239 73.8543 16.082 73.8543 17.3408V19.085H61.7752C61.8725 20.5973 62.3818 21.7998 63.303 22.6914C64.2243 23.5841 65.4613 24.0293 67.0151 24.0293C68.2759 24.0293 69.2426 23.7726 69.9108 23.2591C70.5812 22.7456 71.0699 22.0338 71.3813 21.1216H74.1473C73.7786 22.5365 73.0271 23.7639 71.8917 24.8006C70.7574 25.8385 69.1312 26.3563 67.0162 26.3563C65.4245 26.3563 64.0221 26.0313 62.8089 25.3824C61.5967 24.7335 60.6593 23.8072 59.9997 22.6047C59.3401 21.4022 59.0103 19.9874 59.0103 18.3581C59.0103 16.7287 59.3304 15.315 59.9716 14.1125L59.9705 14.1136ZM70.9445 16.9042C70.9445 15.5858 70.605 14.5545 69.9259 13.807C69.2469 13.0606 68.1796 12.6879 66.7232 12.6879C65.365 12.6879 64.2535 13.0508 63.3906 13.7777C62.5267 14.5046 61.9979 15.5479 61.8044 16.9042H70.9445ZM77.4831 13.2111C77.4831 13.3476 77.5512 13.4148 77.6874 13.4148C77.7653 13.4148 77.8226 13.3953 77.8626 13.3563C77.9026 13.3173 77.9405 13.2404 77.9783 13.1245C78.4822 11.5352 79.7343 10.7401 81.7336 10.7401H83.0139V13.3563H81.3541C80.0533 13.3563 79.0834 13.6661 78.4422 14.2869C77.801 14.9076 77.4809 15.9249 77.4809 17.3408V25.9197H74.8609V10.7964H77.4831V13.2111ZM98.3974 22.7347C97.7086 23.9459 96.8155 24.8526 95.719 25.4528C94.6226 26.053 93.4429 26.3541 92.1821 26.3541C89.6984 26.3541 87.951 25.3661 86.9422 23.388C86.8643 23.2341 86.767 23.1561 86.6513 23.1561C86.5356 23.1561 86.4762 23.2146 86.4762 23.3306V31.4436H83.8562V10.7986H86.4762V13.3866C86.4762 13.5026 86.5346 13.5611 86.6513 13.5611C86.7681 13.5611 86.8643 13.4831 86.9422 13.3292C87.951 11.3511 89.6984 10.3631 92.1821 10.3631C93.4429 10.3631 94.6226 10.6642 95.719 11.2644C96.8155 11.8646 97.7075 12.7713 98.3974 13.9836C99.0862 15.1947 99.4311 16.6551 99.4311 18.3591C99.4311 20.0632 99.0862 21.5225 98.3974 22.7347ZM95.3698 14.1851C94.4085 13.1862 93.1423 12.6868 91.5712 12.6868C90.0001 12.6868 88.7328 13.1862 87.7726 14.1851C86.8114 15.1839 86.4589 16.5749 86.4589 18.3581C86.4589 20.1412 86.8114 21.5333 87.7726 22.5311C88.7339 23.5299 90.0001 24.0293 91.5712 24.0293C93.1423 24.0293 94.4096 23.531 95.3698 22.5311C96.331 21.5322 96.8111 20.1412 96.8111 18.3581C96.8111 16.5749 96.331 15.1839 95.3698 14.1851ZM103.233 4.98106V25.9186H100.613V4.98323H103.233V4.98106ZM105.39 14.1125C106.03 12.9111 106.928 11.9859 108.084 11.3348C109.237 10.6859 110.591 10.3609 112.143 10.3609C113.694 10.3609 114.982 10.6805 116.058 11.3207C117.135 11.961 117.941 12.8092 118.474 13.8655C119.008 14.9228 119.274 16.0809 119.274 17.3397V19.0839H107.195C107.292 20.5962 107.801 21.7987 108.723 22.6903C109.644 23.583 110.881 24.0282 112.435 24.0282C113.696 24.0282 114.661 23.7715 115.33 23.258C116.001 22.7445 116.49 22.0327 116.801 21.1206H119.567C119.198 22.5354 118.446 23.7628 117.311 24.7996C116.177 25.8374 114.551 26.3552 112.436 26.3552C110.844 26.3552 109.442 26.0302 108.228 25.3813C107.016 24.7324 106.079 23.8061 105.419 22.6036C104.76 21.4011 104.43 19.9863 104.43 18.357C104.43 16.7276 104.75 15.3139 105.391 14.1114H105.39V14.1125ZM116.364 16.9031C116.364 15.5847 116.025 14.5534 115.346 13.8059C114.666 13.0595 113.599 12.6868 112.143 12.6868C110.786 12.6868 109.673 13.0497 108.81 13.7766C107.946 14.5036 107.419 15.5468 107.224 16.9031H116.364ZM118.108 25.3369L124.104 17.9204L119.185 11.3781V10.7964H122.067L126.173 16.4373L130.597 10.7964H133.536V11.4074L127.89 18.3581L133.1 25.3369V25.9186H130.277L125.823 19.8411L121.05 25.9186H118.11V25.3369H118.108ZM137.34 5.87481V9.14756H134.28V5.87481H137.34ZM137.181 25.9197H134.56V10.7975H137.181V25.9197ZM138.007 10.7975H140.858V6.72631H143.479V10.7975H146.478L147.214 13.014H143.479V20.2485C143.479 21.2365 143.454 21.9688 143.405 22.4444C143.356 22.92 143.333 23.206 143.333 23.3024C143.333 23.4389 143.37 23.5451 143.448 23.622C143.526 23.7 143.632 23.7379 143.769 23.7379C143.866 23.7379 144.152 23.7141 144.628 23.6653C145.103 23.6166 145.836 23.5927 146.826 23.5927H147.845V25.9186H145.808C144.138 25.9186 142.896 25.5124 142.082 24.6966C141.267 23.882 140.859 22.6426 140.859 20.9743V13.0129H138.009V10.7964H138.007V10.7975ZM147.267 10.7975H149.938L154.275 23.4844C154.335 23.6404 154.427 23.8451 154.724 23.8451C155.021 23.8451 155.113 23.6393 155.172 23.4844L159.509 10.7975H162V11.3792L156.574 27.6931C156.108 29.0896 155.454 30.0635 154.61 30.616C153.766 31.1685 152.785 31.4447 151.154 31.4447H148.36V29.1188H150.485C151.164 29.1188 151.717 29.1426 152.144 29.1914C152.57 29.2401 152.843 29.264 152.959 29.264C153.289 29.264 153.512 29.1188 153.63 28.8285L154.445 26.6185C154.542 26.3866 154.551 26.2122 154.474 26.0941C154.435 26.0161 154.388 25.9674 154.329 25.949C154.271 25.9295 154.183 25.9197 154.068 25.9197H152.292L147.27 10.7986H147.267V10.7975ZM57.3451 22.7596C56.6563 23.9708 55.7632 24.8776 54.6668 25.4777C53.5703 26.0779 52.3906 26.3791 51.1299 26.3791C48.6461 26.3791 46.8988 25.3911 45.8899 23.4129C45.8121 23.2591 45.7147 23.1811 45.599 23.1811C45.4833 23.1811 45.4239 23.2396 45.4239 23.3555V31.4686H42.8039V10.8235H45.4239V13.4116C45.4239 13.5275 45.4823 13.586 45.599 13.586C45.7158 13.586 45.8121 13.508 45.8899 13.3541C46.8977 11.376 48.6461 10.388 51.1299 10.388C52.3906 10.388 53.5703 10.6891 54.6668 11.2893C55.7632 11.8895 56.6553 12.7962 57.3451 14.0074C58.0339 15.2186 58.3788 16.6789 58.3788 18.3841C58.3788 20.0892 58.0339 21.5485 57.3451 22.7596ZM54.3175 14.21C53.3562 13.2111 52.09 12.7117 50.5189 12.7117C48.9478 12.7117 47.6805 13.2111 46.7203 14.21C45.7591 15.2088 45.4066 16.5998 45.4066 18.383C45.4066 20.1661 45.7591 21.5582 46.7203 22.556C47.6816 23.5548 48.9478 24.0542 50.5189 24.0542C52.09 24.0542 53.3573 23.5559 54.3175 22.556C55.2788 21.5571 55.7589 20.1661 55.7589 18.383C55.7589 16.5998 55.2788 15.2088 54.3175 14.21Z" fill="#0C0A08" />
</svg>
