<?xml version="1.0" encoding="UTF-8"?>
<svg xmlns="http://www.w3.org/2000/svg" fill="none" viewBox="0 0 169 48"> <path fill="#7E1B55" d="M28.286 16.76a9.09 9.09 0 0 1-8.642 9.515V22.91a5.717 5.717 0 0 0-.329-11.422 5.717 5.717 0 0 0-5.722 5.71v14.277h-3.357v-14.28a9.088 9.088 0 0 1 9.075-9.086 9.088 9.088 0 0 1 8.975 8.653Zm-13.29 14.044a5.717 5.717 0 1 1-6.051-5.717v-3.36a9.086 9.086 0 0 0 .34 18.165 9.096 9.096 0 0 0 9.072-9.086V16.529h-3.355v14.276h-.007Zm54.28-6.826c0 4.042-3.153 7.569-7.79 7.569-4.635 0-7.737-3.482-7.737-7.527 0-4.047 3.153-7.562 7.791-7.562 4.636 0 7.736 3.48 7.736 7.52Zm-1.78-.156a5.923 5.923 0 0 0-6.003-5.841h-.24a5.856 5.856 0 0 0-5.718 5.997v.204a5.928 5.928 0 0 0 6.01 5.846h.245a5.857 5.857 0 0 0 5.71-6.003v-.199l-.006-.004h.002ZM51.29 21.356c0 3.163-2.746 4.793-5.987 4.793h-3.701v5.15h-1.717V16.707h5.7c3.45 0 5.698 1.75 5.698 4.649h.006Zm-1.741.064c0-2.09-1.628-3.19-4.088-3.19h-3.848v6.418h3.771c2.518 0 4.169-1.291 4.165-3.228Zm47.688 1.768H88.45V16.71h-1.717v14.586h1.717v-6.562h8.79v6.562h1.72V16.709h-1.723v6.482-.003Zm13.314 1.477-5.553-7.958h-1.741v14.586h1.677V19.5l5.547 7.795h.087l5.547-7.812v11.812h1.724V16.709h-1.741l-5.547 7.956Zm-32.283-1.46c-3.354-.689-4.135-1.465-4.135-2.854 0-1.39 1.259-2.377 3.24-2.377a6.88 6.88 0 0 1 4.391 1.581l.999-1.265a8.158 8.158 0 0 0-5.355-1.792c-2.89 0-5.005 1.664-5.005 3.998 0 2.336 1.613 3.499 5.129 4.228 3.2.64 3.957 1.419 3.957 2.795 0 1.468-1.348 2.5-3.392 2.5-2.044 0-3.631-.689-5.22-2.06l-1.067 1.21a9.152 9.152 0 0 0 6.223 2.335c3.025 0 5.197-1.623 5.197-4.151-.01-2.249-1.577-3.442-4.97-4.148h.008Zm51.11-6.6 6.955 14.69h-1.852l-1.781-3.853h-8.31l-1.805 3.853h-1.762l6.955-14.69h1.6Zm2.65 9.359-3.456-7.44-3.48 7.44h6.942-.006Zm15.229-.642 4.666 5.98h-2.101l-4.416-5.671h-4.357v5.664h-1.715v-14.59h6.556c3.341 0 5.495 1.728 5.495 4.356 0 2.43-1.74 3.853-4.134 4.256l.006.005Zm-1.525-1.174c2.283 0 3.919-1.122 3.919-3.018 0-1.799-1.436-2.897-3.893-2.897h-4.702v5.918h4.683-.005l-.002-.003Zm15.492-1.062 6.528-6.379h-2.218l-8.747 8.709v-8.707h-1.722v14.586h1.722v-3.919l3.241-3.147 5.851 7.066h2.155l-6.81-8.21Z" /> </svg>
