<?xml version="1.0" encoding="UTF-8"?>
<svg viewBox="0 0 99 31" fill="none" xmlns="http://www.w3.org/2000/svg"> <path fillRule="evenodd" clipRule="evenodd" d="M9.12214 0.417704C3.80006 1.24714 0.667706 5.12647 1.69548 9.61481C2.49419 13.1045 5.24605 15.091 10.8387 16.2153C16.2389 17.3007 18.3586 18.6173 18.9148 21.2328C19.7356 25.0906 15.7997 28.1152 10.7277 27.5245C6.9033 27.0793 4.5853 24.812 3.64161 20.5931C3.56076 20.2309 3.46322 19.9345 3.42495 19.9345C3.37429 19.9345 0.281821 21.5433 0.115826 21.6565C0.0721716 21.6856 0.418175 22.9559 0.630519 23.5471C1.84261 26.923 5.0973 29.6884 8.72656 30.4262C15.9721 31.8986 22.211 28.2677 22.5106 22.4029C22.758 17.5691 19.5696 14.5354 12.9546 13.3104C7.39213 12.2799 5.00729 10.649 5.01161 7.87832C5.01592 5.26767 6.86504 3.73276 10.4113 3.39592C14.4776 3.01003 17.312 4.8252 18.9908 8.891C19.0598 9.05807 19.1228 9.02897 20.5198 8.18714C22.2056 7.17177 22.1237 7.33453 21.5427 6.15316C19.43 1.85938 14.4943 -0.420356 9.12214 0.417704ZM84.3347 6.67917C84.3347 9.90044 84.3039 12.5089 84.2657 12.5089C84.2279 12.5089 84.0991 12.3677 83.979 12.1947C82.0948 9.47576 77.2157 8.51051 73.6603 10.1532C65.2069 14.0589 66.342 28.3798 75.268 30.4364C78.9102 31.2756 82.6235 29.9384 84.3902 27.151C84.4656 27.0314 84.4861 27.3256 84.4899 28.5776L84.4947 30.1545H86.2512H88.0081L87.9876 15.5233L87.9677 0.891974L86.1514 0.870416L84.3347 0.848862V6.67917ZM32.9888 9.43426C28.0936 10.3612 25.0906 14.4227 25.0906 20.1188C25.0906 26.6261 28.9489 30.6741 35.151 30.6736C38.5001 30.673 40.5351 29.8339 43.2487 27.3337C43.6696 26.9457 44.0135 26.6018 44.0135 26.5689C44.0135 26.5366 43.5112 25.9912 42.8968 25.3579L41.7801 24.2062L41.5273 24.5253C39.101 27.5876 35.2836 28.6202 32.1227 27.0696C30.1415 26.0974 28.7495 23.712 28.5878 21.0124L28.5641 20.6131L36.2424 20.5926L43.9213 20.5726L43.979 20.0342C44.2932 17.1018 43.2616 13.6623 41.5101 11.8035C39.7326 9.91608 35.9697 8.86998 32.9888 9.43426ZM54.3871 9.43426C49.4633 10.3666 46.5487 14.3085 46.5341 20.0542C46.5174 26.7193 50.2846 30.68 56.6291 30.6676C60.0051 30.6612 62.094 29.773 64.8178 27.1855C65.561 26.4789 65.6063 26.6385 64.2891 25.324L63.1692 24.2062L62.9191 24.5253C60.5224 27.5865 56.6868 28.6229 53.5151 27.0669C51.5371 26.0963 50.0211 23.4732 50.0049 20.9925L50.0022 20.5732H57.6612H65.3207L65.3778 20.1162C65.761 17.0496 64.5295 13.2462 62.5882 11.5C60.6626 9.76733 57.2144 8.89909 54.3871 9.43426ZM35.9498 12.2238C38.5367 12.6922 40.2091 14.634 40.4731 17.4759L40.5238 18.018H34.6035C31.1817 18.018 28.6837 17.9884 28.6837 17.9469C28.6837 17.6974 29.1833 15.9717 29.3833 15.5319C30.5377 12.9891 33.0863 11.7054 35.9498 12.2238ZM57.8266 12.3117C60.1522 12.9137 61.8989 15.2387 61.8989 17.7319V18.0191L56.0104 17.9986L50.1219 17.9782L50.145 17.7389C50.5175 13.8612 54.0826 11.3427 57.8266 12.3117ZM79.544 12.558C85.6173 14.0304 86.2237 24.7635 80.3713 27.2001C76.4343 28.839 72.4773 26.3738 71.677 21.7842C70.6632 15.9706 74.5965 11.3583 79.544 12.558Z" fill="#233918" /> <path d="M93.0899 7.06894C90.0695 5.63002 90.5983 1.24444 93.8829 0.492163C95.3558 0.154702 97.0794 1.00386 97.7437 2.39415C99.1589 5.35679 96.0501 8.47911 93.0899 7.06894Z" fill="#233918" /> </svg>
