<?xml version="1.0" encoding="UTF-8"?>
<svg xmlns="http://www.w3.org/2000/svg" fill="none" viewBox="0 0 92 48"> <path  fill="#0C0A08"  d="M19.564 14.717c-.094-.01-1.915-.036-1.915-.036s-1.522-1.479-1.672-1.629a.372.372 0 0 0-.212-.098v22.62l6.824-1.695-2.802-18.953a.249.249 0 0 0-.223-.21Z" /> <path  fill="#0C0A08"  d="M19.562 14.716a.249.249 0 0 1 .225.207l2.801 18.954-6.824 1.696L.02 32.851S1.9 18.323 1.968 17.809c.093-.677.116-.698.835-.924l1.27-.394 1.169-.361c.151-1.088.687-2.493 1.39-3.612 1.001-1.587 2.235-2.48 3.474-2.517.643-.019 1.178.199 1.595.646l.087.1.023-.002c.058-.005.117-.01.177-.01h.003c.96.002 1.753.548 2.296 1.583.168.32.285.64.366.9l.765-.237c.113-.034.407-.08.559.071.15.15 1.672 1.629 1.672 1.629s1.82.027 1.913.035Zm-6.48-1.013.783-.242c-.195-.635-.658-1.698-1.598-1.876.292.754.366 1.627.376 2.254l.438-.136ZM9.19 14.91l2.63-.814c.008-.685-.068-1.698-.41-2.413a2.65 2.65 0 0 0-.892.65c-.592.635-1.074 1.603-1.328 2.577Zm1.686-3.889a1.264 1.264 0 0 0-.745-.195c-1.913.054-3.58 3.042-4.007 5.032l2.16-.668c.24-1.265.843-2.575 1.63-3.42.304-.325.627-.576.962-.749Zm.315 10.17.792-2.965s-.684-.341-2.019-.255c-3.465.219-5.036 2.642-4.885 5.033.1 1.598 1.04 2.266 1.866 2.85.643.456 1.216.863 1.264 1.621.026.418-.234 1.01-.96 1.055-1.113.07-2.503-.98-2.503-.98l-.531 2.261s1.38 1.479 3.888 1.32c2.09-.131 3.54-1.803 3.386-4.246-.119-1.88-1.441-2.727-2.486-3.398-.684-.437-1.249-.8-1.282-1.325-.015-.242 0-1.212 1.538-1.309a4.504 4.504 0 0 1 1.932.338Zm20.385 3.245c-.785-.427-1.188-.786-1.188-1.28 0-.627.56-1.03 1.434-1.03 1.02 0 1.929.426 1.929.426l.717-2.198s-.66-.516-2.6-.516c-2.702 0-4.573 1.547-4.573 3.722 0 1.233.873 2.175 2.04 2.846.94.539 1.278.92 1.278 1.479 0 .583-.472 1.054-1.345 1.054-1.303 0-2.533-.673-2.533-.673l-.762 2.198s1.137.762 3.048.762c2.78 0 4.775-1.367 4.775-3.833 0-1.322-1.01-2.263-2.22-2.957Zm11.072-4.619c-1.366 0-2.442.65-3.272 1.637l-.045-.023 1.188-6.21h-3.092l-3.005 15.804h3.093l1.032-5.402c.404-2.04 1.457-3.296 2.443-3.296.695 0 .964.472.964 1.145 0 .425-.045.941-.134 1.366l-1.165 6.187h3.092l1.212-6.389c.135-.672.224-1.478.224-2.017-.001-1.749-.92-2.802-2.535-2.802Zm9.528 0c-3.72 0-6.186 3.362-6.186 7.105 0 2.398 1.479 4.326 4.258 4.326 3.654 0 6.12-3.273 6.12-7.106 0-2.219-1.3-4.325-4.192-4.325Zm-1.523 9.056c-1.055 0-1.503-.897-1.503-2.018 0-1.77.92-4.661 2.6-4.661 1.099 0 1.457.94 1.457 1.86 0 1.905-.918 4.82-2.554 4.82Zm13.627-9.056c-2.088 0-3.273 1.838-3.273 1.838h-.045l.18-1.66h-2.736a66.172 66.172 0 0 1-.627 4.103l-2.152 11.32h3.093l.852-4.573h.068s.635.403 1.815.403c3.632 0 6.008-3.72 6.008-7.487 0-2.084-.92-3.944-3.183-3.944Zm-2.96 9.1c-.803 0-1.278-.448-1.278-.448l.516-2.891c.359-1.928 1.368-3.206 2.443-3.206.942 0 1.233.874 1.233 1.705 0 1.994-1.187 4.84-2.913 4.84Zm10.56-13.539c-.986 0-1.771.784-1.771 1.793 0 .92.583 1.547 1.458 1.547h.045c.964 0 1.792-.65 1.815-1.793 0-.897-.605-1.547-1.547-1.547Zm-4.326 15.647h3.093l2.108-10.962H69.64l-2.085 10.962ZM78.472 20.04l.112-.516c.18-1.054.807-1.996 1.837-1.996.551 0 .987.157.987.157l.605-2.42s-.538-.27-1.682-.27c-1.098 0-2.195.314-3.025 1.031-1.054.897-1.547 2.197-1.794 3.498l-.089.516h-1.435l-.448 2.33h1.435l-1.636 8.653h3.092l1.637-8.653h2.13l.426-2.33h-2.152Zm9.594.022s-1.935 4.872-2.803 7.53h-.045c-.059-.855-.762-7.53-.762-7.53h-3.25l1.86 10.063c.046.225.023.36-.067.517-.359.694-.964 1.367-1.682 1.86-.582.426-1.232.696-1.747.875L80.421 36c.628-.134 1.928-.65 3.026-1.682 1.413-1.32 2.712-3.36 4.058-6.14l3.788-8.116h-3.229l.002.001Z" /> </svg>
