<?xml version="1.0" encoding="UTF-8"?>
<svg xmlns="http://www.w3.org/2000/svg" fill="none" viewBox="0 0 92 48"> <path fill="#95BF47" d="M19.967 14.924a.248.248 0 0 0-.224-.208c-.093-.008-1.914-.036-1.914-.036s-1.523-1.478-1.673-1.629c-.15-.15-.444-.105-.558-.07l-.765.236a5.354 5.354 0 0 0-.366-.9c-.542-1.034-1.336-1.58-2.296-1.582h-.003c-.067 0-.133.006-.2.012a2.954 2.954 0 0 0-.086-.1c-.418-.447-.954-.665-1.596-.646-1.238.036-2.472.93-3.473 2.52-.704 1.118-1.24 2.523-1.391 3.61l-2.44.756c-.717.226-.74.247-.834.924C2.078 18.323.2 32.851.2 32.851l15.745 2.723 6.824-1.697s-2.784-18.823-2.802-18.953Zm-5.922-1.463-1.222.379c-.01-.628-.084-1.5-.376-2.255.94.179 1.402 1.242 1.598 1.876Zm-2.046.634-2.629.814c.254-.973.736-1.941 1.328-2.576.22-.237.528-.5.892-.65.343.715.418 1.727.41 2.412Zm-1.688-3.27c.291-.006.536.058.745.196a3.585 3.585 0 0 0-.962.749c-.787.844-1.39 2.155-1.63 3.42l-2.16.667c.427-1.99 2.095-4.976 4.007-5.031Z" /> <path fill="#5E8E3E" d="M19.743 14.716c-.093-.007-1.913-.035-1.913-.035s-1.523-1.478-1.673-1.629a.372.372 0 0 0-.212-.097l.001 22.618 6.823-1.696s-2.784-18.823-2.801-18.952a.249.249 0 0 0-.225-.209Z" /> <path fill="#fff" d="m12.163 18.225-.793 2.965s-.884-.402-1.932-.336c-1.536.097-1.553 1.066-1.537 1.31.084 1.325 3.572 1.615 3.768 4.721.154 2.444-1.296 4.115-3.386 4.247-2.508.159-3.889-1.32-3.889-1.32l.532-2.261s1.39 1.048 2.502.978c.727-.046.987-.637.96-1.055-.109-1.73-2.95-1.628-3.13-4.47-.15-2.392 1.42-4.815 4.886-5.034 1.336-.085 2.019.255 2.019.255Z" /> <path fill="#000" d="M31.755 24.434c-.785-.426-1.188-.785-1.188-1.278 0-.628.56-1.031 1.435-1.031 1.018 0 1.927.426 1.927.426l.717-2.197s-.66-.516-2.6-.516c-2.7 0-4.573 1.546-4.573 3.721 0 1.233.874 2.174 2.04 2.846.942.538 1.278.92 1.278 1.48 0 .582-.47 1.053-1.344 1.053-1.303 0-2.533-.672-2.533-.672l-.762 2.197s1.136.762 3.048.762c2.78 0 4.775-1.368 4.775-3.834 0-1.321-1.01-2.263-2.22-2.957ZM42.828 19.816c-1.367 0-2.443.65-3.272 1.636l-.045-.022 1.188-6.21h-3.094l-3.003 15.803h3.093l1.031-5.401c.404-2.04 1.457-3.295 2.444-3.295.694 0 .964.47.964 1.143 0 .426-.045.942-.135 1.368l-1.165 6.186h3.094l1.21-6.388c.134-.673.224-1.48.224-2.018-.001-1.748-.92-2.802-2.534-2.802ZM52.355 19.816c-3.722 0-6.187 3.362-6.187 7.105 0 2.399 1.48 4.326 4.26 4.326 3.653 0 6.119-3.272 6.119-7.105 0-2.22-1.3-4.326-4.192-4.326Zm-1.524 9.056c-1.054 0-1.503-.896-1.503-2.017 0-1.771.92-4.663 2.6-4.663 1.1 0 1.457.942 1.457 1.861 0 1.905-.918 4.819-2.554 4.819ZM64.46 19.816c-2.089 0-3.274 1.838-3.274 1.838h-.044l.18-1.659h-2.735a66.25 66.25 0 0 1-.628 4.102l-2.152 11.32h3.094l.85-4.573h.069s.634.403 1.815.403c3.631 0 6.007-3.72 6.007-7.487 0-2.084-.92-3.944-3.183-3.944Zm-2.96 9.1c-.803 0-1.278-.448-1.278-.448l.516-2.892c.359-1.927 1.367-3.205 2.443-3.205.942 0 1.233.874 1.233 1.704 0 1.995-1.188 4.841-2.914 4.841ZM72.058 15.378c-.986 0-1.77.784-1.77 1.793 0 .919.582 1.547 1.456 1.547h.045c.964 0 1.793-.65 1.816-1.794 0-.896-.606-1.546-1.547-1.546ZM67.732 31.023h3.093l2.108-10.96h-3.117l-2.084 10.96ZM80.8 20.04h-2.152l.112-.515c.18-1.054.807-1.995 1.838-1.995.55 0 .986.156.986.156l.606-2.42s-.538-.27-1.682-.27c-1.098 0-2.196.315-3.026 1.032-1.053.896-1.546 2.196-1.793 3.497l-.089.515h-1.435l-.449 2.332h1.436l-1.637 8.652h3.094l1.636-8.652h2.13l.425-2.332ZM88.242 20.063s-1.934 4.872-2.802 7.531h-.045c-.059-.856-.762-7.531-.762-7.531h-3.25l1.86 10.064c.046.224.023.359-.067.516-.359.694-.964 1.367-1.681 1.86-.583.426-1.233.695-1.748.874L80.598 36c.628-.134 1.928-.65 3.026-1.681 1.413-1.323 2.712-3.363 4.057-6.142l3.788-8.115h-3.227Z" /> </svg>
