<?xml version="1.0" encoding="UTF-8"?>
<svg xmlns="http://www.w3.org/2000/svg" fill="none" viewBox="0 0 132 48"> <g fill="#006838"> <path d="M4.7 24c-1.894.366-5.68 3.035-4.105 10.971 6.113 5.326 10.323 3.394 11.59 1.945-.629 1.817-.202 6.415 7.483 9.027 7.685-2.612 8.112-7.21 7.483-9.027 1.265 1.451 5.477 3.38 11.59-1.945 1.572-7.936-2.213-10.603-4.104-10.97 1.893-.367 5.678-3.036 4.104-10.972-6.113-5.326-10.323-3.393-11.59-1.944.629-1.818.202-6.416-7.483-9.028-7.685 2.612-8.112 7.21-7.483 9.028C10.92 9.633 6.71 7.7.598 13.029-.974 20.965 2.81 23.634 4.702 24h-.003Zm30.604-8.996a7.485 7.485 0 0 1-1.013 8.84c-1.502-4.234-4.02-5.234-6.105-4.746 1.468-1.557 1.86-4.228-1.07-7.643 3.191-.736 6.544.708 8.19 3.547l-.002.002ZM25.812 24c.895-.32 2.796-1.093 2.177-4.606A4.851 4.851 0 0 1 31.378 24a4.851 4.851 0 0 1-3.39 4.606c.62-3.513-1.283-4.286-2.176-4.606Zm-14.47 4.606A4.851 4.851 0 0 1 7.954 24a4.851 4.851 0 0 1 3.388-4.606c-.619 3.513 1.284 4.286 2.177 4.606-.895.32-2.796 1.093-2.177 4.606Zm5.252-9.91c-.728-.612-2.35-1.867-5.093.423a4.84 4.84 0 0 1 2.309-5.227 4.882 4.882 0 0 1 5.697.622c-3.362 1.222-3.084 3.25-2.913 4.182ZM11.5 28.878c2.743 2.291 4.365 1.036 5.093.424-.168.932-.45 2.96 2.916 4.182a4.879 4.879 0 0 1-5.698.622 4.842 4.842 0 0 1-2.309-5.228h-.002Zm5.27.115a3.002 3.002 0 0 1-3.389-1.38A2.978 2.978 0 0 1 13.877 24a2.975 2.975 0 0 1-.495-3.613 3.001 3.001 0 0 1 3.39-1.38 2.992 2.992 0 0 1 5.788 0 3.001 3.001 0 0 1 3.389 1.38A2.978 2.978 0 0 1 25.454 24a2.975 2.975 0 0 1 .495 3.613 3.002 3.002 0 0 1-3.389 1.38 2.993 2.993 0 0 1-5.789 0Zm3.053-14.48a4.878 4.878 0 0 1 5.698-.62 4.842 4.842 0 0 1 2.308 5.226c-2.743-2.29-4.365-1.035-5.092-.423.168-.932.448-2.96-2.916-4.182h.002Zm2.914 14.789c.727.612 2.35 1.867 5.092-.424a4.84 4.84 0 0 1-2.308 5.228 4.882 4.882 0 0 1-5.698-.622c3.362-1.222 3.082-3.25 2.914-4.182ZM19.666 6.006c3.29 0 6.223 2.17 7.178 5.294-4.433-.82-6.56.851-7.178 2.896-.62-2.045-2.746-3.719-7.179-2.896.955-3.123 3.888-5.294 7.179-5.294ZM5.04 23.842a7.485 7.485 0 0 1-1.013-8.84c1.647-2.839 5-4.283 8.191-3.547-2.93 3.415-2.539 6.086-1.07 7.643-2.088-.49-4.603.51-6.106 4.747l-.002-.003Zm0 .311c1.502 4.235 4.02 5.235 6.106 4.744-1.47 1.557-1.858 4.228 1.072 7.643-3.192.737-6.544-.708-8.19-3.546a7.484 7.484 0 0 1 1.012-8.84ZM19.666 41.99c-3.29 0-6.224-2.172-7.179-5.294 4.433.822 6.56-.852 7.179-2.896.619 2.044 2.745 3.718 7.178 2.896-.955 3.123-3.888 5.294-7.178 5.294Zm15.638-8.996c-1.646 2.838-5 4.283-8.191 3.546 2.93-3.415 2.541-6.086 1.073-7.643 2.088.49 4.603-.509 6.105-4.744a7.484 7.484 0 0 1 1.013 8.84ZM22.56 25.662v-3.329l-2.894-1.664-2.895 1.664v3.33l2.895 1.663 2.894-1.664ZM64.64 16.267l-.025-.197h-4.941l-.024.197c.89.44 1.21.977 1.21 2.168v11.197c0 1.19-.32 1.728-1.21 2.168l.023.197h4.942l.024-.197c-.876-.44-1.21-.978-1.21-2.169V18.435c0-1.19.337-1.729 1.21-2.168ZM76.898 29.785H71.95v-5.12h3.835c1.044 0 1.637.325 2.071.985l.197-.022V21.54l-.197-.024c-.434.66-1.027.971-2.071.971H71.95v-4.201h4.437c1.507 0 2.597.394 3.495 1.32l.196-.084-.904-3.45H68.256l-.024.195c.838.44 1.15.979 1.15 2.17V29.63c0 1.191-.312 1.73-1.15 2.17l.024.196h11.45l.884-3.573-.176-.084c-.974.993-2.064 1.442-3.518 1.442l.002.003ZM130.387 29.746l-5.268-13.676h-4.272l-.024.227c.975.455 1.227 1.153.814 2.232l-4.385 11.217c-.442 1.108-.852 1.617-1.567 2.057l.007.196h4.697l.024-.196c-.823-.416-.989-.895-.586-1.973l.648-1.746h6.579l.669 1.746c.404 1.076.236 1.554-.578 1.973l.024.196h4.774l.007-.196c-.716-.44-1.126-.95-1.56-2.057h-.003Zm-9.067-3.907 2.443-6.492 2.443 6.492h-4.888.002ZM51.83 22.752l-1.552-.416c-1.553-.41-2.818-.797-2.818-2.193 0-1.32 1.126-2.102 2.801-2.102 1.675 0 3.35.674 4.826 2.284l.207-.084-.67-3.967-.151-.024a.974.974 0 0 1-.602.198c-.754 0-1.834-.622-3.639-.622-3.22 0-5.376 1.76-5.376 4.597 0 2.48 1.675 3.845 4.133 4.43l1.577.402c1.514.371 2.961.95 2.961 2.428 0 1.327-1.164 2.221-2.983 2.221-1.819 0-3.95-.744-5.733-2.647l-.207.084.47 1.984c.243.907.478 1.902 1.532 2.217 1.106.347 2.373.66 3.989.66 3.525 0 5.618-1.875 5.618-4.77 0-2.896-1.934-4.037-4.385-4.68h.003ZM111.881 28.45l-1.987-3.054c2.114-.578 3.54-2.384 3.54-4.59 0-2.717-2.194-4.733-5.177-4.733h-7.711l-.024.196c.837.44 1.149.978 1.149 2.169v11.196c0 1.19-.312 1.729-1.149 2.169l.024.196h4.773l.024-.196c-.792-.44-1.104-.978-1.104-2.17v-4.012h2.818l3.249 4.998c.509.782 1.673 2.114 4.522 1.382l.024-.196c-1.006-.66-1.625-1.284-2.971-3.352v-.003Zm-3.754-5.067h-3.89v-5.089h3.89c1.515 0 2.657 1.107 2.657 2.533 0 1.425-1.142 2.556-2.657 2.556ZM95.088 28.45 93.1 25.396c2.114-.578 3.54-2.384 3.54-4.59 0-2.717-2.194-4.733-5.177-4.733h-7.711l-.024.196c.837.44 1.15.978 1.15 2.169v11.196c0 1.19-.313 1.729-1.15 2.169l.024.196h4.773l.024-.196c-.792-.44-1.104-.978-1.104-2.17v-4.012h2.818l3.25 4.998c1.279 1.968 3.943 1.664 4.931 1.382l.024-.198c-1.567-.744-2.428-1.887-3.381-3.353Zm-3.754-5.067h-3.89v-5.089h3.89c1.515 0 2.657 1.107 2.657 2.533 0 1.425-1.142 2.556-2.657 2.556Z" /> </g> </svg>
