<?xml version="1.0" encoding="UTF-8"?>
<svg viewBox="0 0 87 48" fill="none" xmlns="http://www.w3.org/2000/svg"> <path d="m10.121 22.352-2.514-.45c-1.531-.292-2.674-1.032-2.674-2.381 0-1.72 1.96-2.381 3.706-2.381 1.8 0 4.182.997 4.118 3.373h3.582c-.185-3.678-3.573-6.39-7.541-6.39-3.546 0-7.654 1.694-7.654 5.556 0 3.34 2.62 4.948 5.743 5.558l2.44.45c2.037.37 3.545.973 3.545 2.618 0 2.065-2.143 2.673-3.836 2.673-2.277 0-4.565-1.1-4.772-4.035H.727c.343 4.128 3.466 7.051 8.176 7.051 3.863 0 7.78-1.93 7.78-5.874 0-3.969-3.44-5.213-6.562-5.768ZM17.054 17.536h5.9v16.115h3.785V17.536h5.927v-3.07H17.053v3.07ZM46.32 25.554c0 3.387-.635 5.427-4.128 5.427-3.492 0-4.181-2.038-4.181-5.427V14.467h-3.784v11.066c0 6.324 2.355 8.467 7.965 8.467 5.611 0 7.911-2.143 7.911-8.467V14.467H46.32v11.087ZM58.175 14.467h-5.683V33.65h5.69c6.086 0 10.664-1.986 10.664-9.601-.007-7.599-4.585-9.583-10.67-9.583Zm-.16 16.214H56.27v-13.25h1.747c3.492 0 6.906.873 6.906 6.615 0 5.767-3.414 6.635-6.906 6.635ZM79.906 22.352l-2.513-.45c-1.53-.292-2.673-1.032-2.673-2.381 0-1.72 1.96-2.381 3.704-2.381 1.8 0 4.183.997 4.12 3.373h3.58c-.191-3.678-3.574-6.39-7.547-6.39-3.547 0-7.653 1.694-7.653 5.556 0 3.34 2.62 4.948 5.743 5.558l2.433.45c2.038.37 3.546.973 3.546 2.618 0 2.065-2.143 2.673-3.836 2.673-2.277 0-4.565-1.1-4.772-4.035h-3.532c.344 4.128 3.467 7.051 8.177 7.051 3.863 0 7.779-1.93 7.779-5.874 0-3.969-3.44-5.213-6.556-5.768Z" fill="currentColor" /> </svg>
