<?xml version="1.0" encoding="UTF-8"?>
<svg width="107" height="48" viewBox="0 0 107 48" fill="none" xmlns="http://www.w3.org/2000/svg"> <path d="M34.45 19.7878L34.4043 19.8008C34.3782 19.9053 34.2737 19.9706 34.2606 20.0947C34.2606 20.1339 34.2084 20.1665 34.1822 20.1992C34.0908 20.3559 33.9602 20.48 33.8165 20.578C33.7251 20.6367 33.6467 20.6955 33.5618 20.7478C33.2679 20.9241 32.9479 21.009 32.6279 21.1135C32.2492 21.2376 31.8704 21.3616 31.4916 21.5053C31.0867 21.6555 30.6949 21.8318 30.3031 22.0016C30.1463 22.0735 29.983 22.1649 29.8263 22.2433C29.2777 22.5306 28.7357 22.8114 28.1871 23.0988C27.9716 23.2163 27.7496 23.3404 27.5275 23.4645C27.41 23.5233 27.2924 23.582 27.1814 23.6473C27.0051 23.7453 26.8288 23.8498 26.6524 23.9543C26.3977 24.098 26.1365 24.2416 25.8753 24.3918C25.5945 24.5551 25.3071 24.7249 25.0263 24.8947C24.7977 25.0318 24.5692 25.1625 24.3406 25.2996C24.1186 25.4302 23.89 25.5739 23.6679 25.7176C23.3545 25.9069 23.0475 26.1029 22.7406 26.2922C22.6884 26.3249 22.6492 26.3902 22.5969 26.4163C22.5447 26.4359 22.499 26.4816 22.4533 26.5012C22.2965 26.5535 22.179 26.671 22.0418 26.7559C21.8263 26.8931 21.6173 27.0498 21.4084 27.2C21.3365 27.2457 21.2712 27.2914 21.2255 27.3698C21.1928 27.422 21.1079 27.4482 21.0492 27.4873C20.9839 27.5331 20.9055 27.5722 20.9382 27.6833C20.9512 27.7486 20.9251 27.8204 20.9186 27.8922C20.912 27.9641 20.9055 28.0424 20.912 28.1143C20.912 28.1469 20.9251 28.1796 20.9382 28.2253C20.9186 28.258 20.8924 28.3037 20.8533 28.3494C20.9512 28.4278 20.8728 28.5192 20.8663 28.6171C20.9316 28.6694 20.9316 28.7478 20.9055 28.8327C20.8728 28.9241 20.8141 29.0155 20.9055 29.1135C20.9251 29.1396 20.9055 29.1984 20.8337 29.1788C20.8337 29.2114 20.8337 29.2441 20.8533 29.2702C20.899 29.3355 20.899 29.4008 20.8598 29.4727V29.5053C20.9316 29.6359 20.8467 29.7665 20.8598 29.9037C20.8663 30.0343 20.8402 30.1649 20.8663 30.302C20.8728 30.3478 20.8728 30.4 20.8794 30.4522C20.8859 30.4849 20.912 30.5437 20.8467 30.5698C20.8271 30.5763 20.8141 30.622 20.8467 30.6612C20.8728 30.7069 20.8794 30.7788 20.8728 30.831C20.8271 31.0465 20.8728 31.2555 20.8402 31.4776C20.8402 31.5494 20.8271 31.6278 20.8271 31.6996C20.8271 31.7518 20.801 31.7976 20.8533 31.8433V31.8759C20.8141 31.9673 20.8467 32.0588 20.8337 32.1567C20.8337 32.2482 20.8467 32.3461 20.8598 32.4506C20.7096 32.4767 20.7814 32.6139 20.7749 32.7184C20.8206 32.738 20.8924 32.751 20.8728 32.8424C20.8467 32.8424 20.8141 32.8555 20.7684 32.862C20.801 32.9078 20.8271 32.9404 20.8663 32.9992L20.8206 33.0122C20.9186 33.1755 20.8075 33.2931 20.7553 33.4302C20.7879 33.502 20.8271 33.5935 20.8598 33.6718C20.8859 33.7241 20.8924 33.7633 20.8337 33.7959C20.7553 33.8416 20.7488 33.8873 20.7814 33.9657C20.8075 34.018 20.8337 34.0637 20.8663 34.1159C20.8271 34.129 20.7945 34.1355 20.7618 34.1486C20.7618 34.2073 20.7618 34.2661 20.7749 34.3314C20.8075 34.3118 20.8271 34.3053 20.8467 34.2922C20.8663 34.338 20.8794 34.3902 20.8924 34.4424C20.8728 34.4555 20.8467 34.4686 20.8141 34.4816C20.8337 34.5535 20.9055 34.6253 20.7945 34.6971L20.9577 34.8604C20.9382 34.9061 20.912 34.9714 20.8859 35.0302L20.9773 35.0498C20.9447 35.0955 20.8924 35.1412 20.9773 35.1804L20.9969 35.2065C20.9643 35.3045 21.0492 35.3959 21.01 35.5004C20.9969 35.5004 20.9773 35.4939 20.9382 35.4808C20.9773 35.5657 20.9577 35.631 20.9382 35.7029C20.9251 35.7355 20.9773 35.7878 20.9969 35.8335C21.0296 35.8139 21.0492 35.8008 21.0818 35.7747C21.0949 35.84 21.1014 35.8922 21.1079 35.9445C21.1145 36.0424 21.1341 36.1404 21.1928 36.2188C21.2255 36.2645 21.2255 36.3037 21.1928 36.3429C21.1667 36.3886 21.1341 36.4278 21.1014 36.4735C21.1145 36.48 21.1275 36.4996 21.1537 36.5257C21.1145 36.5388 21.0884 36.5518 21.0557 36.5584C21.0557 36.6237 21.0557 36.6955 21.0753 36.7673C21.0753 36.7869 21.1145 36.8131 21.1406 36.8261C21.1406 36.8261 21.1733 36.8 21.1994 36.7739C21.1733 36.8588 21.3496 36.8653 21.2712 36.9829L21.3888 37.0547C21.2777 37.0743 21.2777 37.1722 21.2647 37.231C21.2647 37.2833 21.232 37.3094 21.2059 37.342C21.2124 37.4269 21.3626 37.4204 21.2908 37.5249C21.3496 37.551 21.3888 37.5706 21.4345 37.5967C21.3757 37.6555 21.3169 37.7078 21.3496 37.7992L21.33 37.8253C21.2451 37.9037 21.2451 37.9233 21.3496 37.9755L21.3757 38.0016C21.33 38.0408 21.2777 38.0735 21.2451 38.1127C21.2124 38.1584 21.2059 38.2171 21.1733 38.2629C21.1275 38.3347 21.0753 38.4065 21.01 38.4522C20.8859 38.5437 20.7422 38.6155 20.6116 38.6939H20.1284C20.1284 38.6939 20.0892 38.6743 20.0696 38.6678C19.7104 38.5829 19.4753 38.3673 19.3773 37.9951C19.299 37.7012 19.2467 37.4073 19.2533 37.1004C19.2533 36.8914 19.2728 36.689 19.2794 36.48C19.2924 36.2318 19.2924 35.9837 19.2924 35.742C19.2924 35.6441 19.2924 35.5461 19.299 35.4482C19.3055 35.1673 19.3055 34.8865 19.3382 34.6122C19.3577 34.3967 19.3643 34.1878 19.3382 33.9788V33.2473C19.3382 33.0841 19.3773 32.9273 19.3316 32.7641V32.7053C19.3904 32.6596 19.3773 32.6073 19.3773 32.5486V29.5902C19.3773 29.3812 19.3904 29.1657 19.3904 28.9567V28.6302C19.2402 28.7151 19.1096 28.7869 18.992 28.8653C18.7569 29.0351 18.5349 29.2114 18.3063 29.3878C18.0582 29.5837 17.8165 29.7731 17.5749 29.9625C17.4639 30.0539 17.3398 30.1453 17.2222 30.2367C17.0263 30.3869 16.8304 30.5371 16.641 30.6939C16.4255 30.8637 16.2296 31.0465 16.0141 31.2163C15.7202 31.458 15.4263 31.6931 15.1324 31.9347C14.832 32.1894 14.5382 32.4376 14.2312 32.6922C14.0157 32.8751 13.7937 33.0514 13.5716 33.2343C13.539 33.2604 13.5063 33.2996 13.4737 33.3322C13.4018 33.4041 13.3235 33.4824 13.2451 33.5543C13.1733 33.6327 13.1079 33.7241 13.0231 33.7959C12.8924 33.9135 12.7488 34.018 12.6182 34.142C12.4745 34.2727 12.3439 34.4163 12.2067 34.5535C12.1218 34.6318 12.0369 34.7167 11.952 34.7951C11.9194 34.8343 11.8802 34.8931 11.8475 34.9388C11.8084 34.991 11.7626 35.0433 11.7169 35.089C11.6582 35.1478 11.5994 35.2065 11.5406 35.2718C11.3186 35.5069 11.0965 35.7486 10.8549 35.9706C10.6786 36.1273 10.5349 36.3102 10.3847 36.4865C10.3586 36.5192 10.3259 36.5453 10.2998 36.578C10.2475 36.6367 10.1953 36.689 10.1431 36.7412C10.1235 36.7673 10.1039 36.7869 10.0843 36.8131C9.90795 36.9829 9.72509 37.1527 9.54877 37.3224C9.44428 37.4204 9.33326 37.5184 9.2353 37.6163C9.13081 37.7143 9.02632 37.7731 8.87611 37.7796C8.67366 37.7796 8.47775 37.7796 8.2753 37.7012C7.96183 37.5706 7.81815 37.3224 7.77897 37.0024C7.76591 36.9045 7.74632 36.8 7.77897 36.702C7.80509 36.6367 7.81815 36.5714 7.85734 36.5127C7.92264 36.4147 7.99448 36.3167 8.06632 36.2253C8.33407 35.8922 8.62795 35.5853 8.94142 35.298C9.11774 35.1412 9.28754 34.9714 9.45734 34.8082C9.74468 34.5404 10.019 34.2661 10.3063 34.0114C10.7635 33.6065 11.2337 33.2082 11.6973 32.8163C11.9324 32.6139 12.1675 32.4245 12.4026 32.2286C12.5659 32.0849 12.7226 31.9347 12.8859 31.791C13.0231 31.6735 13.1798 31.5624 13.3235 31.4514C13.5455 31.2686 13.761 31.0857 13.9831 30.9094C14.1071 30.8114 14.2377 30.7069 14.3684 30.609C14.5316 30.4718 14.6949 30.3478 14.8582 30.2041C14.9496 30.1257 15.0475 30.0408 15.139 29.969C15.3349 29.8188 15.5308 29.6882 15.7267 29.5445L16.6279 28.8784C16.8173 28.7412 17.0067 28.6106 17.1961 28.4735C17.379 28.3494 17.5553 28.2122 17.7316 28.0816C18.0451 27.8465 18.352 27.6049 18.6655 27.3698C18.8875 27.2 19.1226 27.0433 19.3708 26.8735V26.351C19.3708 26.2465 19.3708 26.1486 19.3643 26.0506C19.3643 26.0245 19.3512 25.9788 19.3316 25.9788C19.299 25.9788 19.2663 25.9853 19.2467 26.0049C19.09 26.1094 18.9267 26.2204 18.77 26.3314L18.7373 26.3445C18.6263 26.3706 18.5218 26.3902 18.4173 26.4424C18.3259 26.4882 18.228 26.5273 18.1104 26.5143C18.0059 26.5012 17.8884 26.5469 17.7773 26.5796C17.5292 26.6318 17.281 26.6318 17.0459 26.5469C16.752 26.4359 16.5039 26.2596 16.3863 25.9331C16.3014 25.6849 16.2557 25.4367 16.2557 25.1755C16.2557 24.8424 16.2622 24.5094 16.2557 24.1763C16.2557 24.0588 16.2296 23.9543 16.2296 23.8367C16.2296 23.7649 16.2492 23.6931 16.2688 23.6147C16.2818 23.4841 16.3014 23.3535 16.3079 23.2229C16.3079 22.9747 16.3537 22.72 16.3928 22.4653C16.432 22.2041 16.4843 21.9363 16.5626 21.6816C16.6475 21.4139 16.7324 21.1461 16.8957 20.911C17.072 20.6498 17.2484 20.382 17.4443 20.1273C17.5618 19.9771 17.7251 19.8661 17.8884 19.7682C17.9145 19.7551 17.9471 19.742 17.9667 19.7224C18.1822 19.5331 18.45 19.4808 18.7177 19.4286C18.8157 19.409 18.9333 19.4416 19.0182 19.4873C19.1357 19.5461 19.1488 19.6833 19.1357 19.7878C19.1357 19.9118 19.0835 20.0294 19.0573 20.1535C19.0443 20.2514 18.9724 20.3167 18.9398 20.4016C18.8941 20.5061 18.8157 20.578 18.7243 20.6367C18.6982 20.6498 18.6786 20.6694 18.6655 20.689C18.6067 20.7869 18.561 20.898 18.4565 20.9763L18.4435 20.9959C18.4304 21.1265 18.3259 21.2114 18.2802 21.329C18.2671 21.3551 18.2475 21.3943 18.241 21.4335C18.2279 21.5314 18.2084 21.6229 18.13 21.7012C18.1039 21.7339 18.0908 21.7731 18.0777 21.8188C18.0451 21.9429 18.0124 22.0735 17.9798 22.2041C17.9667 22.2433 17.9471 22.2824 17.9406 22.3216C17.921 22.4522 17.8818 22.5763 17.9079 22.7069C17.9079 22.7331 17.9341 22.7592 17.9471 22.7853C17.9733 22.8506 17.9733 22.9094 17.9471 22.9747C17.921 23.0204 17.9079 23.0792 17.9014 23.1314C17.8884 23.2425 17.8753 23.3535 17.8688 23.458C17.8622 23.5233 17.8688 23.582 17.8688 23.6473C17.8688 23.6735 17.8818 23.7061 17.8688 23.7257C17.7904 23.8563 17.8426 23.9869 17.8492 24.1241V24.3461C17.8492 24.4898 17.9079 24.6204 17.9733 24.751C18.0386 24.8816 18.1496 24.96 18.3128 24.9535C18.6067 24.9404 18.8418 24.8163 19.0443 24.6073C19.2533 24.4049 19.3251 24.1502 19.3643 23.889C19.4231 23.4971 19.4688 23.1053 19.521 22.7135C19.5471 22.5176 19.5733 22.3282 19.5863 22.1322C19.5928 22.0278 19.5798 21.9233 19.5798 21.8188V21.7861C19.6451 21.7143 19.632 21.6229 19.6386 21.538C19.6647 21.231 19.6843 20.9306 19.7104 20.6302C19.7235 20.4473 19.743 20.2645 19.7561 20.0882C19.7692 19.8922 19.7822 19.6963 19.8018 19.5004C19.8149 19.3567 19.8149 19.2131 19.8802 19.0759C19.9716 18.88 20.1284 18.7625 20.3177 18.671C20.4941 18.5796 20.6835 18.5665 20.8728 18.5927C21.0035 18.6122 21.1341 18.6514 21.2124 18.769C21.2582 18.8408 21.3431 18.8865 21.3496 18.991C21.3496 19.0237 21.3626 19.0629 21.3626 19.0955C21.3626 19.2065 21.3496 19.3241 21.3431 19.4351C21.3431 19.4808 21.3626 19.5265 21.3757 19.5788C21.3757 19.6049 21.3235 19.618 21.3496 19.6767C21.3692 19.7224 21.3561 19.7747 21.33 19.8335C21.3071 19.9012 21.3071 19.9747 21.33 20.0424C21.3496 20.1404 21.3169 20.2318 21.33 20.3363C21.343 20.4278 21.2908 20.5257 21.2777 20.6237C21.2647 20.6563 21.2386 20.6955 21.2908 20.7282L21.3039 20.7412C21.2124 20.8653 21.2451 21.0155 21.232 21.1592C21.1928 21.5445 21.1733 21.9298 21.1471 22.3151C21.1275 22.6155 21.1014 22.9159 21.0818 23.2163C21.0818 23.2882 21.0492 23.36 21.0492 23.4318C21.0557 23.6278 21.0231 23.8237 21.01 24.0131C21.01 24.0914 21.0035 24.1633 21.0296 24.2416C21.0557 24.3069 21.0557 24.3853 21.0361 24.4506C20.9904 24.5747 21.0035 24.6988 21.01 24.8229V25.0122C20.9904 25.1363 20.9643 25.2539 20.9773 25.391C20.9904 25.5151 20.9773 25.6392 20.9773 25.7567C20.9773 25.7829 20.9839 25.8024 20.9904 25.8482C21.0361 25.822 21.0688 25.8024 21.1079 25.7829C21.2908 25.6588 21.4737 25.5282 21.6696 25.4106C22.0092 25.2016 22.3488 24.9927 22.6884 24.7771C22.7863 24.7184 22.8843 24.6531 22.9822 24.5943C23.1847 24.4637 23.3741 24.3135 23.5896 24.2024C23.8573 24.0718 24.0663 23.8629 24.3471 23.778C24.3994 23.7649 24.432 23.7061 24.4843 23.6931C24.5692 23.6669 24.5953 23.5298 24.7194 23.5755C24.7977 23.5298 24.8826 23.4776 24.961 23.4384C25.0394 23.3927 25.1177 23.3535 25.1896 23.3078C25.2745 23.262 25.3528 23.2163 25.4312 23.1641C25.5096 23.1184 25.5879 23.0661 25.6728 23.0139C25.7773 22.9486 25.8884 22.8898 25.9994 22.831C26.3977 22.6024 26.8026 22.3739 27.2141 22.1518C27.5341 21.969 27.8606 21.7927 28.1806 21.6098C28.5333 21.4073 28.8794 21.2049 29.232 20.9959C29.3104 20.9502 29.3822 20.9045 29.4671 20.8522C29.4279 20.8196 29.4149 20.8 29.3888 20.7869C29.1798 20.689 29.0753 20.5192 29.0296 20.3037C29.0035 20.1861 29.0035 20.0686 29.0035 19.951C29.0035 19.8139 28.9969 19.6702 28.9969 19.5331V19.4939C29.0753 19.3176 29.0165 19.1282 29.0622 18.9518C29.0688 18.9257 29.0688 18.8996 29.0622 18.88C28.9969 18.7233 29.0361 18.5665 29.0753 18.4098C29.0884 18.3706 29.0753 18.3314 29.0688 18.2857C29.0622 18.2465 29.0361 18.2008 29.0492 18.1747C29.1014 18.0833 29.0753 17.9853 29.0949 17.8873C29.121 17.7894 29.1145 17.6784 29.1145 17.5673V16.6727C29.1145 16.5878 29.1145 16.5159 29.0622 16.4441C29.0035 16.3592 28.9382 16.2939 28.8206 16.3004C28.7618 16.3004 28.6965 16.2873 28.6377 16.2939C28.4745 16.3135 28.3504 16.3984 28.2263 16.4963C28.1871 16.529 28.1349 16.5486 28.1022 16.5812C28.0537 16.6332 28.014 16.6928 27.9847 16.7576C27.9651 16.8163 27.9259 16.8425 27.8802 16.8816C27.8018 16.9469 27.7235 16.9992 27.6973 17.1102C27.6777 17.1624 27.6059 17.1951 27.5537 17.2473C27.5406 17.3388 27.5406 17.4498 27.4622 17.5282L27.4492 17.5804C27.4426 17.6718 27.4688 17.7698 27.41 17.8482C27.3839 17.8808 27.4818 17.9004 27.4296 17.9396C27.4035 17.9592 27.3643 17.9657 27.3382 17.9788C27.3251 17.9788 27.3251 17.9984 27.312 18.018C27.3382 18.031 27.3643 18.0441 27.3839 18.0441L27.3643 18.2335C27.2598 18.2596 27.2533 18.2596 27.2728 18.3837C27.2859 18.4359 27.299 18.4882 27.3251 18.5404C27.3512 18.5861 27.3447 18.6449 27.3055 18.6645C27.2337 18.6971 27.2337 18.769 27.1814 18.8147C27.1684 18.8278 27.1749 18.8996 27.1945 18.9127C27.2598 18.9649 27.2728 19.0237 27.2663 19.102C27.2663 19.1412 27.2794 19.1804 27.2859 19.2261C27.2467 19.2522 27.1945 19.2784 27.1618 19.3176C27.1096 19.3698 27.1618 19.422 27.1749 19.4416C27.1553 19.52 27.1292 19.5657 27.1226 19.6245C27.1161 19.7159 27.1226 19.8008 27.1226 19.8922C27.1226 19.9706 27.103 20.0424 27.2206 20.049C27.1618 20.1469 27.0769 20.2253 27.1879 20.3233C27.1684 20.3363 27.1553 20.3494 27.1422 20.3559C27.2271 20.4278 27.2141 20.4212 27.1879 20.5192C27.1684 20.5845 27.1226 20.6563 27.1684 20.7282C27.1684 20.7412 27.1618 20.7673 27.1618 20.7869C27.1618 20.8196 27.1422 20.8522 27.1553 20.8653C27.2271 20.9371 27.1749 21.0025 27.1292 21.0547C27.0443 21.1657 26.992 21.2833 26.9724 21.4139C26.9724 21.4335 26.9594 21.4531 26.9463 21.4727C26.8288 21.5706 26.7243 21.6751 26.5806 21.7404C26.4761 21.7861 26.3782 21.8449 26.2737 21.8971C26.1169 21.9755 25.9537 21.969 25.7839 21.9363C25.5749 21.8971 25.49 21.7665 25.4573 21.5184C25.4377 21.3551 25.4639 21.1918 25.4704 21.0286C25.4769 20.7478 25.49 20.4735 25.503 20.1927C25.5161 19.8727 25.5292 19.5527 25.5357 19.2327L25.5749 18.4163C25.601 18.0506 25.6141 17.6849 25.6337 17.3192C25.6467 17.1951 25.6467 17.0776 25.6663 16.96C25.7055 16.7445 25.7904 16.542 25.9079 16.3657C26.1365 16.0457 26.45 15.8759 26.8288 15.8302C26.8549 15.8302 26.8745 15.8171 26.9071 15.8302C27.0116 15.8367 27.1161 15.8563 27.2206 15.7845C27.2728 15.7518 27.3512 15.7845 27.4165 15.8171C27.5341 15.8629 27.6777 15.889 27.8084 15.8302C27.939 15.778 28.0631 15.7127 28.161 15.6147C28.2067 15.5625 28.259 15.5102 28.3047 15.4514C28.3439 15.4122 28.3765 15.3731 28.4092 15.3273C28.5202 15.2163 28.6247 15.1118 28.7292 15.0008L28.7553 14.9747C28.9708 14.8441 29.1863 14.6939 29.4345 14.622C29.6043 14.5698 29.7871 14.5306 29.9635 14.5567C30.1267 14.5894 30.2835 14.6286 30.401 14.7657C30.5186 14.8898 30.5512 14.9355 30.5839 15.0922C30.5969 15.151 30.6035 15.2098 30.6688 15.2359L30.6949 15.2816C30.5969 15.3665 30.61 15.4384 30.721 15.5233C30.721 15.6016 30.721 15.6604 30.7341 15.7388C30.721 15.7518 30.6688 15.7584 30.6557 15.7845C30.6296 15.8237 30.6296 15.8759 30.6361 15.9216C30.6361 15.9804 30.6361 16.0327 30.6492 16.098C30.6773 16.0838 30.7036 16.0662 30.7275 16.0457C30.7406 16.1306 30.6688 16.2155 30.7733 16.2873C30.7341 16.2873 30.721 16.2939 30.6884 16.3004C30.7014 16.4245 30.7079 16.5486 30.721 16.6857C30.7014 16.6857 30.6688 16.6988 30.6361 16.7053C30.5969 16.7837 30.6361 16.8229 30.7014 16.862C30.6688 16.8882 30.6426 16.9078 30.6165 16.9339C30.6361 16.9731 30.6622 17.0057 30.6688 17.0253C30.6426 17.058 30.61 17.0841 30.61 17.1102C30.61 17.3127 30.6035 17.5151 30.61 17.7241C30.61 17.7698 30.6426 17.822 30.6688 17.8743C30.6361 17.92 30.5773 17.9592 30.6361 18.031L30.623 18.0833C30.5969 18.1682 30.5969 18.1747 30.6753 18.2269C30.6753 18.2922 30.6753 18.3641 30.6884 18.4425C30.6818 18.4425 30.6492 18.4751 30.6492 18.5012C30.6622 18.5796 30.6818 18.6514 30.61 18.7102V18.7494C30.6426 18.7951 30.6492 18.8408 30.623 18.8865L30.61 18.9257C30.61 18.9257 30.6622 18.9649 30.6949 18.991C30.6426 19.0171 30.61 19.0433 30.6296 19.1086C30.6426 19.1478 30.5904 19.2065 30.6753 19.2327L30.6949 19.2588C30.6557 19.3437 30.721 19.3698 30.7798 19.4024C30.7667 19.4351 30.7537 19.4547 30.7471 19.4743C30.7341 19.4939 30.721 19.5069 30.6949 19.5331C30.7602 19.5592 30.8059 19.5918 30.7994 19.6702C30.7994 19.6833 30.8124 19.7616 30.8777 19.7616L30.9235 19.8008C31.0084 19.9118 31.0867 19.9445 31.2239 19.8988C31.3349 19.8661 31.4524 19.8269 31.5569 19.7812C31.8573 19.631 32.1577 19.4743 32.4516 19.3176C32.6345 19.2261 32.8173 19.1282 33.0002 19.0433C33.2353 18.9388 33.4835 18.9257 33.7382 18.9649C33.8296 18.978 33.921 18.9845 34.0124 18.9845C34.1169 18.991 34.2149 19.0694 34.2671 19.1804C34.3194 19.298 34.3912 19.4155 34.45 19.5331V19.5853C34.4108 19.6376 34.3977 19.6833 34.45 19.7355V19.7878ZM12.1937 8.05225L12.1675 8.06531C11.8541 8.14367 11.6059 8.31347 11.3969 8.54204C11.2467 8.69878 11.1096 8.86204 11.0116 9.06449C10.9333 9.24082 10.8288 9.39755 10.7504 9.57388C10.6655 9.77633 10.5871 9.98531 10.5153 10.1943C10.3063 10.7363 10.1039 11.2784 9.89489 11.8139C9.75774 12.1796 9.6206 12.5453 9.48999 12.9176C9.40509 13.1331 9.33326 13.3616 9.26142 13.5771C9.07856 14.0931 8.88917 14.609 8.70632 15.1184C8.68019 15.1902 8.64754 15.249 8.62142 15.3208C8.5953 15.3927 8.56264 15.4645 8.53652 15.5429C8.49734 15.6539 8.47775 15.7649 8.43856 15.8759C8.39285 16.0065 8.32754 16.1241 8.28836 16.2547C8.20999 16.5225 8.13815 16.7837 8.06632 17.0514C8.05326 17.0906 8.03366 17.1298 8.0206 17.169C8.00101 17.2278 7.98142 17.2931 7.96836 17.3518C7.9553 17.4433 7.98142 17.5347 7.90305 17.6131C7.88346 17.6327 7.88999 17.6784 7.87693 17.711C7.86387 17.7633 7.85081 17.8155 7.84428 17.8743C7.72672 18.2857 7.60264 18.6971 7.48509 19.1086C7.43938 19.2849 7.42632 19.4743 7.37407 19.6571C7.32183 19.8596 7.24999 20.0555 7.19774 20.2514C7.08672 20.6694 6.98223 21.0808 6.87121 21.4988C6.85815 21.5641 6.83203 21.6294 6.81897 21.6947C6.78632 21.8318 6.76019 21.969 6.72754 22.1061C6.70142 22.2237 6.66223 22.3412 6.63611 22.4653C6.54468 22.9159 6.46632 23.3731 6.36836 23.8302C6.28999 24.1959 6.21162 24.5616 6.15285 24.9339C6.09407 25.3388 6.00917 25.7371 5.93734 26.142C5.89815 26.3771 5.87203 26.6122 5.83938 26.8473C5.77407 27.2327 5.7153 27.6245 5.65652 28.0098C5.62387 28.258 5.59774 28.5061 5.55856 28.7543C5.55856 28.8261 5.51938 28.8914 5.49325 28.9567C5.45407 28.9241 5.43448 28.911 5.40836 28.8849C5.38876 28.8588 5.36264 28.8392 5.36264 28.8065C5.35611 28.7347 5.34305 28.6563 5.36264 28.5845C5.3757 28.4996 5.35611 28.4669 5.29081 28.4408C5.27775 28.2645 5.30387 28.0882 5.23856 27.9249C5.2255 27.8922 5.23203 27.8596 5.23856 27.8269C5.25162 27.7224 5.27121 27.631 5.26468 27.5265C5.25953 27.4689 5.24169 27.4132 5.21244 27.3633C5.16019 27.298 5.10142 27.2196 5.17325 27.1282C5.14713 27.1282 5.11448 27.1151 5.0753 27.1086C5.09489 26.978 5.08183 26.8473 5.13407 26.7298C5.19285 26.6057 5.16672 26.5078 5.12101 26.3902L5.10142 26.3576C5.06223 26.2335 4.99693 26.1094 5.00346 25.9788C5.00346 25.8612 4.98387 25.7567 4.94468 25.6457C4.91203 25.5478 4.85979 25.4302 4.94468 25.3257C4.86632 25.182 4.85979 25.182 4.85325 25.0057C4.85325 24.9273 4.80754 24.8555 4.78795 24.7771C4.74223 24.6727 4.65734 24.5616 4.70305 24.4571C4.66387 24.4049 4.63121 24.3722 4.62468 24.3331C4.61162 24.2155 4.60509 24.098 4.57897 23.9804C4.53979 23.8629 4.53979 23.7453 4.50713 23.6212C4.48754 23.5363 4.48754 23.4449 4.46795 23.36C4.46142 23.2294 4.36999 23.1053 4.45489 22.9682C4.46142 22.9551 4.44836 22.929 4.44183 22.9029C4.44183 22.8702 4.40917 22.831 4.4157 22.8049C4.44836 22.7265 4.40264 22.7004 4.36999 22.6808C4.35693 22.609 4.35693 22.5567 4.3504 22.511C4.34387 22.4522 4.32428 22.3935 4.31121 22.3347C4.30468 22.302 4.31121 22.2498 4.30468 22.2302C4.22632 22.1322 4.25244 22.0082 4.22632 21.8971C4.1806 21.6751 4.16101 21.4531 4.12836 21.2245C4.05652 20.7804 3.97162 20.3363 3.89325 19.8922C3.86307 19.7159 3.7939 19.5486 3.69081 19.4024C3.44264 19.0563 2.92672 18.9976 2.58713 19.2065C2.40428 19.3241 2.28019 19.4808 2.20183 19.6833C2.14958 19.8204 2.10387 19.9641 2.05815 20.1078C1.94713 20.4343 1.84264 20.7543 1.73162 21.0808C1.71856 21.1331 1.69897 21.1984 1.67285 21.2441C1.63366 21.3159 1.60754 21.3878 1.59448 21.4727C1.57489 21.551 1.5357 21.6229 1.51611 21.7012C1.48346 21.7992 1.44428 21.8906 1.42468 21.9886C1.37897 22.2498 1.26795 22.4849 1.19611 22.7331C1.16346 22.8245 1.13081 22.9094 1.10468 23.0008C1.0655 23.1641 1.02632 23.3339 0.928357 23.4841C0.889174 23.5363 0.882643 23.6082 0.876112 23.6735C0.863051 23.7714 0.843459 23.8759 0.784684 23.9478C0.7455 23.9935 0.712847 24.0457 0.706316 24.1045C0.680194 24.2873 0.614888 24.4637 0.543051 24.6335C0.484276 24.7706 0.4255 24.9012 0.399378 25.0514C0.353663 25.2604 0.262235 25.4629 0.196929 25.6653C0.138153 25.8547 0.0663164 26.0506 0.0075409 26.2531C0.00101029 26.2792 -0.00552032 26.3184 0.0075409 26.351C0.0663164 26.6384 0.229582 26.8473 0.52999 26.9127C0.621418 26.9388 0.719378 26.9127 0.810806 26.9127C1.00019 26.8996 1.14387 26.8147 1.26795 26.6776C1.29407 26.6449 1.32672 26.6253 1.33979 26.6188C1.36591 26.5535 1.37897 26.5078 1.39856 26.4555C1.39856 26.4359 1.42468 26.4098 1.43121 26.3902C1.48346 26.2269 1.5357 26.0702 1.62713 25.9265C1.65979 25.8808 1.67285 25.8351 1.67938 25.7829C1.69897 25.698 1.72509 25.6196 1.80346 25.5869C1.80346 25.5543 1.78387 25.5282 1.7904 25.5086C1.82958 25.4171 1.8753 25.3257 1.91448 25.2343C1.92754 25.2147 1.92754 25.1886 1.92754 25.1624C1.93407 25.1167 1.9406 25.071 1.9406 25.0188C2.0255 25.0188 1.98632 24.9469 2.00591 24.8947C2.03856 24.8033 2.0255 24.6857 2.1104 24.6139V24.5878C2.07774 24.4571 2.21489 24.3918 2.21489 24.2808C2.30632 24.2024 2.29326 24.098 2.28672 23.9869L2.36509 23.9478C2.37815 23.9086 2.39121 23.8563 2.39121 23.8563C2.45652 23.8563 2.46305 23.8041 2.48264 23.7649C2.5153 23.6865 2.53489 23.6147 2.56754 23.5429C2.5806 23.5167 2.60672 23.4841 2.62632 23.4906C2.67856 23.5037 2.73081 23.5298 2.76999 23.5624C2.80917 23.5951 2.84183 23.6408 2.80917 23.7061C2.79611 23.7257 2.80917 23.7518 2.8157 23.778C2.85489 23.7649 2.88754 23.7518 2.91366 23.7388C2.91366 23.8106 2.92672 23.8759 2.91366 23.9412C2.88754 24.0327 2.91366 24.1241 2.91366 24.209C2.91366 24.2678 2.92672 24.3069 2.96591 24.3527C2.99856 24.3918 3.04428 24.4441 3.04428 24.4898C3.04428 24.6073 3.08346 24.7118 3.09652 24.8229C3.14223 25.0971 3.18142 25.378 3.22713 25.6522C3.25326 25.8416 3.29244 26.031 3.27285 26.2204C3.27285 26.2596 3.27285 26.3053 3.29244 26.3314C3.35774 26.4098 3.35121 26.5078 3.35774 26.5992C3.37081 26.6971 3.3904 26.8016 3.39693 26.9061C3.46223 27.2849 3.52101 27.6702 3.57979 28.0555C3.6255 28.3886 3.67121 28.7282 3.72346 29.0678L3.8606 30.0082C3.91285 30.3216 3.95856 30.6286 4.01734 30.942C4.04999 31.1184 4.08264 31.2882 4.01734 31.4645V31.4906C4.13489 31.5886 4.1806 31.6473 4.04346 31.8041C4.12836 31.7845 4.16101 31.8171 4.17407 31.889C4.20672 32.0849 4.21979 32.2873 4.27203 32.4833C4.28509 32.542 4.30468 32.6073 4.27203 32.6661C4.2655 32.6857 4.28509 32.7118 4.29815 32.738C4.29815 32.7641 4.32428 32.7902 4.33081 32.8163C4.37652 33.058 4.40917 33.3061 4.45489 33.5478C4.5006 33.809 4.53325 34.0571 4.57897 34.3118C4.64428 34.6188 4.72264 34.9257 4.79448 35.2327C4.82713 35.3894 4.91203 35.5069 5.03611 35.6114C5.2255 35.7682 5.43448 35.7551 5.64999 35.7029C5.92428 35.631 6.08754 35.4547 6.17897 35.1869C6.2704 34.9192 6.30305 34.6318 6.34877 34.3576C6.40101 34.0898 6.43366 33.8155 6.47285 33.5412C6.51856 33.2212 6.56428 32.8947 6.60346 32.5682C6.6753 32.0327 6.73407 31.4971 6.79938 30.9616L6.89734 30.2041C6.91693 30.0604 6.92999 29.9102 6.96917 29.7796C7.00836 29.662 7.0606 29.551 7.04754 29.4269C7.20428 29.3682 7.21081 29.3224 7.10632 29.2049L7.07366 29.1461C7.07366 29.0808 7.08019 29.0155 7.09325 28.9567C7.10632 28.8065 7.13897 28.6629 7.13897 28.5127C7.13897 28.4016 7.18468 28.3167 7.24999 28.2384C7.2957 28.1927 7.30877 28.1404 7.32183 28.0816C7.32183 28.0555 7.32183 28.0294 7.33489 28.0098C7.41979 27.8792 7.38713 27.742 7.38713 27.6049C7.38713 27.5918 7.36754 27.5657 7.34795 27.5657C7.28917 27.5592 7.28917 27.5135 7.28917 27.4743C7.28917 27.2784 7.35448 27.0824 7.38713 26.8931C7.40019 26.8147 7.40672 26.7298 7.43285 26.658C7.45897 26.5992 7.4655 26.5469 7.45244 26.4882C7.43938 26.4294 7.45244 26.3902 7.49162 26.351C7.51774 26.3249 7.53734 26.2988 7.54387 26.2661C7.5504 26.1486 7.55693 26.0245 7.5504 25.9004C7.5504 25.8482 7.56346 25.7959 7.58305 25.7437C7.62223 25.6261 7.68101 25.5086 7.65489 25.3714C7.64183 25.3322 7.67448 25.28 7.69407 25.2343C7.72019 25.182 7.75938 25.1363 7.77897 25.0776C7.80509 24.9665 7.81815 24.8555 7.77897 24.738C7.75938 24.6988 7.77244 24.6465 7.77897 24.6073C7.77897 24.5616 7.79856 24.5225 7.81162 24.4833C7.81162 24.4441 7.82468 24.4114 7.86387 24.3853C7.89652 24.3657 7.92264 24.3004 7.91611 24.2547C7.91611 24.2155 7.89652 24.1829 7.9357 24.1567V24.098C7.91611 24.0522 7.92917 24.0261 7.9553 23.9935C7.96183 23.9739 7.9553 23.9478 7.96183 23.9216C7.96183 23.8824 7.9553 23.8367 7.96183 23.7976C8.0206 23.5429 8.08591 23.2882 8.13815 23.0335C8.20999 22.7135 8.2753 22.3935 8.35366 22.08C8.41897 21.8188 8.46468 21.5445 8.58877 21.3029C8.6606 21.1527 8.66713 20.9698 8.78468 20.8392L8.79774 20.7935C8.82387 20.6759 8.85652 20.5584 8.88917 20.4473C8.8957 20.4147 8.9153 20.369 8.94795 20.3559C9.07203 20.271 9.09815 20.1404 9.12428 20.0033C9.13734 19.9184 9.12428 19.8269 9.13734 19.742C9.15693 19.6114 9.18305 19.4808 9.20917 19.3437C9.22223 19.2653 9.22223 19.1804 9.24836 19.1086C9.26795 19.0302 9.32019 18.9649 9.35285 18.8931C9.37244 18.8539 9.39203 18.8147 9.39856 18.7755C9.43121 18.6449 9.46387 18.5078 9.49652 18.3706C9.50958 18.3445 9.52264 18.3184 9.5357 18.2988C9.57489 18.2335 9.6206 18.1616 9.65325 18.0963C9.66632 18.0767 9.65326 18.0376 9.64019 18.018C9.60754 17.9657 9.61407 17.92 9.64672 17.8612C9.68591 17.7763 9.72509 17.6849 9.75774 17.5935C9.77081 17.5739 9.75774 17.5543 9.75774 17.5347C9.76428 17.4955 9.76428 17.4694 9.77081 17.4367C9.78387 17.3976 9.7904 17.3649 9.79693 17.3257C9.82958 17.2147 9.8557 17.1037 9.88183 16.9927C9.92101 16.862 9.97326 16.738 10.0124 16.6073C10.0516 16.4833 10.0843 16.3592 10.1365 16.2351C10.1692 16.1437 10.2084 16.0457 10.2475 15.9543C10.2802 15.8825 10.3194 15.8106 10.339 15.7388C10.3977 15.5167 10.4631 15.2882 10.5871 15.0922C10.6067 15.0596 10.6263 15.0139 10.6459 14.9812C10.6851 14.8963 10.7308 14.8049 10.7635 14.72C10.7831 14.6808 10.7961 14.6351 10.7961 14.5894C10.7831 14.5045 10.8092 14.4261 10.8418 14.3543C10.9594 14.0931 11.0639 13.8253 11.1814 13.5576C11.3447 13.1853 11.521 12.8131 11.6843 12.4408C11.73 12.3429 11.8084 12.2645 11.8475 12.1731C11.9324 11.9902 12.05 11.8269 12.1675 11.6571C12.3112 11.4416 12.4941 11.2457 12.6639 11.0433C12.7161 10.978 12.7879 10.9192 12.8533 10.8669C12.8728 10.8473 12.9251 10.8539 12.9316 10.8343C12.9512 10.8082 12.9577 10.769 12.9708 10.7363L13.0035 10.7167C13.0492 10.6841 13.0884 10.6514 13.1406 10.6253C13.1928 10.5992 13.2124 10.5012 13.2451 10.4359C13.2582 10.4098 13.2451 10.3706 13.2647 10.351C13.3235 10.2596 13.3953 10.1747 13.4541 10.0833C13.5324 9.95265 13.6043 9.82204 13.6304 9.66531C13.6696 9.43674 13.65 9.22123 13.5847 8.99918C13.4671 8.59429 13.2059 8.33306 12.801 8.19592C12.6965 8.16327 12.579 8.13061 12.4745 8.09796H12.161L12.1937 8.05225ZM14.2051 24.1894C14.2312 24.1306 14.2443 24.0653 14.2508 24C14.2704 23.8955 14.3031 23.778 14.3488 23.6735C14.4402 23.4645 14.5839 23.2816 14.7471 23.1184C14.9169 22.9486 15.1128 22.7984 15.3022 22.6547C15.4655 22.5371 15.6092 22.4196 15.7137 22.2498C15.8182 22.08 15.8116 21.8971 15.7724 21.7208C15.7594 21.6163 15.6745 21.5249 15.6288 21.4269C15.5439 21.2571 15.3937 21.2114 15.2239 21.231C15.0867 21.2441 14.9626 21.2963 14.8451 21.3682C14.7733 21.4139 14.6949 21.4465 14.6231 21.4727C14.5316 21.5118 14.4467 21.5314 14.3684 21.5706C14.2182 21.6555 14.0549 21.7078 13.8851 21.7208C13.6435 21.7469 13.4018 21.8057 13.1863 21.9167C12.9839 22.0278 12.801 22.178 12.69 22.3869C12.579 22.5959 12.5202 22.8376 12.5006 23.0727C12.4745 23.36 12.4679 23.6539 12.4484 23.9478C12.4418 24.0914 12.4288 24.2416 12.4222 24.3918C12.4092 24.5682 12.3896 24.738 12.3831 24.9143C12.3831 24.9927 12.3831 25.0776 12.3569 25.1559C12.3177 25.2669 12.2916 25.378 12.2982 25.4955C12.3112 25.6392 12.2459 25.7829 12.3047 25.9265V25.9722C12.259 26.1159 12.2263 26.2661 12.2851 26.4163C12.2916 26.4359 12.2916 26.462 12.2851 26.4947C12.2786 26.5861 12.2655 26.6776 12.2655 26.769C12.2655 26.9192 12.2002 27.0629 12.2328 27.2196C12.2524 27.3633 12.2328 27.5135 12.2328 27.6637C12.2328 27.7878 12.272 27.9118 12.3373 28.0163C12.4288 28.1796 12.592 28.2776 12.7553 28.2449C13.0622 28.1861 13.3692 28.0359 13.6239 27.7878C13.8459 27.5722 13.9439 27.3045 13.97 27.0041C13.9831 26.8669 13.9504 26.7233 14.0157 26.5927V26.5404C14.0157 26.4163 14.0026 26.2922 14.0092 26.1747C14.0222 25.8939 14.0418 25.6131 14.0549 25.3388C14.0549 25.2473 14.081 25.169 14.081 25.0906C14.0875 24.9339 14.081 24.7771 14.0875 24.6204C14.0941 24.5551 14.0875 24.4637 14.1724 24.4376C14.1724 24.3396 14.1724 24.2612 14.192 24.1959M11.0835 23.6473C11.09 23.5167 11.0573 23.3861 10.9594 23.2882C10.8484 23.151 10.6916 23.1445 10.5414 23.1837C10.1953 23.2751 9.90142 23.4645 9.68591 23.7518C9.41815 24.111 9.32019 24.529 9.28101 24.9665L9.24183 25.4498C9.24183 25.5151 9.22877 25.5804 9.22877 25.6522C9.22877 25.7763 9.22877 25.9004 9.2157 26.031C9.20264 26.3118 9.18305 26.5927 9.16999 26.8735C9.16999 26.9061 9.15693 26.9453 9.1504 26.9845C9.14387 27.0237 9.13081 27.0498 9.13081 27.089C9.12428 27.2131 9.13081 27.3371 9.11121 27.4612C9.10468 27.5984 9.07856 27.7224 9.07856 27.8596C9.07856 28.1665 9.04591 28.4735 9.03938 28.7804C9.03285 29.0482 9.00672 29.3159 9.03938 29.5837C9.0655 29.871 9.14387 29.969 9.45081 30.0016C9.57489 30.0147 9.67285 29.982 9.77734 29.9233C9.98632 29.8057 10.1822 29.6751 10.352 29.5053L10.3977 29.4792C10.4761 29.5053 10.4892 29.44 10.5022 29.3943C10.6263 29.4008 10.6459 29.3682 10.6263 29.2441H10.5284C10.5284 29.1984 10.5414 29.1657 10.5414 29.1331C10.5545 29.0743 10.5741 29.022 10.5871 28.9633C10.6198 28.7935 10.6459 28.6237 10.6786 28.4539C10.6786 28.4278 10.6982 28.4016 10.6916 28.3755C10.6394 28.1796 10.6916 27.9771 10.6786 27.7747V27.7094C10.7047 27.5396 10.7373 27.3698 10.7569 27.1935C10.7765 27.0498 10.7896 26.8996 10.8288 26.7624C10.8418 26.7037 10.8353 26.6318 10.8418 26.5731C10.8418 26.5078 10.8418 26.4424 10.8549 26.3771C10.8745 26.2792 10.9202 26.1878 10.9333 26.0898C10.9463 25.9527 10.9594 25.809 10.9528 25.6653C10.9528 25.5412 10.9398 25.4237 10.992 25.3061C11.0377 25.2016 11.0377 25.0841 11.0508 24.9731C11.0573 24.8947 11.0769 24.8229 11.0704 24.7445C11.0639 24.6596 11.0769 24.5943 11.1161 24.5224C11.1357 24.4898 11.1488 24.431 11.1422 24.4049C11.1096 24.3331 11.1422 24.2808 11.1553 24.2416C11.1226 24.1567 11.0769 24.0849 11.0704 24.0065C11.0443 23.902 11.0639 23.8825 11.1684 23.8367C11.1357 23.7714 11.0704 23.7322 11.0769 23.6539M24.1839 20.8065C24.1055 20.7673 24.112 20.689 24.1186 20.6302C24.1186 20.5518 24.1382 20.4735 24.1904 20.4082L24.223 20.3624C24.1904 20.258 24.2557 20.1535 24.1969 20.049C24.1773 20.0229 24.1904 19.9902 24.1969 19.9641C24.21 19.9314 24.2035 19.9118 24.1969 19.8727C24.1839 19.7878 24.1969 19.7029 24.1969 19.618C24.1969 19.5527 24.1708 19.4873 24.1904 19.4286C24.2296 19.3371 24.1969 19.2522 24.1904 19.1673C24.1904 19.0694 24.1839 18.9714 24.1839 18.88C24.1839 18.8408 24.1969 18.8016 24.21 18.7624C24.223 18.7102 24.2622 18.6514 24.2492 18.5992C24.2348 18.552 24.2371 18.5012 24.2557 18.4555C24.2818 18.3771 24.2949 18.2857 24.2818 18.2139C24.2622 18.0963 24.3079 17.9984 24.3275 17.8939C24.3406 17.7959 24.3667 17.7045 24.3145 17.6065C24.2818 17.5478 24.2426 17.489 24.2426 17.4041C24.2426 17.2669 24.1839 17.2016 24.0467 17.182C23.9488 17.169 23.8377 17.182 23.7333 17.1951C23.57 17.2212 23.4328 17.3192 23.3022 17.4302C23.0475 17.6457 22.9235 17.9396 22.8516 18.2531C22.819 18.4294 22.8059 18.6057 22.7798 18.782C22.7602 18.9061 22.7471 19.0237 22.7341 19.1478C22.7079 19.4351 22.6818 19.729 22.6492 20.0229C22.623 20.2514 22.5969 20.4865 22.5773 20.7151C22.5251 21.218 22.4794 21.7208 22.4337 22.2237C22.4337 22.3151 22.4271 22.4 22.4141 22.4914C22.4075 22.6547 22.3749 22.8245 22.3814 22.9878C22.3879 23.1249 22.4467 23.2686 22.5904 23.3404C22.7145 23.4057 22.8451 23.4188 22.9692 23.3731C23.2565 23.2686 23.5243 23.1249 23.7528 22.9159C23.8704 22.8114 23.9161 22.6612 24.0206 22.5567C24.0206 22.4065 24.1055 22.2629 24.0402 22.1192C24.0273 22.0836 24.0251 22.045 24.0337 22.0082C24.0402 21.7992 24.0533 21.5967 24.0598 21.3812C24.0728 21.2702 24.0794 21.1592 24.0859 21.0482C24.1251 21.0547 24.1577 21.0678 24.1904 21.0808C24.1577 21.009 24.1316 20.9567 24.099 20.8849C24.1382 20.9045 24.1577 20.9176 24.1773 20.9241C24.2231 20.8718 24.21 20.8261 24.1643 20.8065M10.4369 21.1722C10.5284 21.2049 10.6328 21.2376 10.7439 21.1788C10.992 21.0678 11.2141 20.911 11.4231 20.7412C11.4753 20.702 11.5341 20.6694 11.5602 20.6171C11.619 20.5127 11.7104 20.4278 11.7692 20.3167C11.8737 20.1273 11.9063 19.938 11.8214 19.729C11.7953 19.6702 11.7626 19.6049 11.7431 19.5396C11.7235 19.4612 11.6712 19.4286 11.6059 19.4024C11.5613 19.3899 11.5151 19.3833 11.4688 19.3829C11.3055 19.3829 11.1618 19.4286 11.0312 19.5135C10.8745 19.618 10.7243 19.7355 10.5741 19.8596C10.5022 19.9118 10.4565 19.9902 10.3912 20.049C10.2933 20.1339 10.2802 20.2645 10.2345 20.369C10.1822 20.4669 10.1626 20.5845 10.1431 20.6498C10.1561 20.911 10.2345 21.0873 10.4304 21.1592M24.7651 14.0931C24.6335 14.0521 24.493 14.0498 24.3602 14.0865C24.099 14.1453 23.8769 14.289 23.6875 14.4784C23.5439 14.6155 23.459 14.7788 23.4067 14.9682C23.361 15.1184 23.3675 15.249 23.4328 15.3861C23.459 15.4384 23.4851 15.4971 23.5308 15.5429C23.5777 15.5837 23.6337 15.6128 23.6941 15.6278C23.89 15.6865 24.0859 15.7127 24.2688 15.5755L24.321 15.5494C24.4451 15.458 24.5757 15.3861 24.6606 15.249C24.7194 15.1576 24.7912 15.0727 24.8696 14.9943C24.9937 14.8702 25.0133 14.7004 25.0851 14.5567V14.5176C25.059 14.3739 25.0133 14.2367 24.9088 14.1322C24.863 14.1257 24.8043 14.1257 24.7651 14.1061" fill="#F40011" /> <path d="M29.2582 28.258C30.1398 28.258 30.5578 28.6498 30.9692 29.3812L35.5929 37.9102L40.2165 29.3812C40.6214 28.6498 41.0459 28.258 41.9276 28.258L35.5929 39.9478L29.2647 28.258H29.2582ZM30.9627 28.258H32.0533L35.5863 34.769L39.1194 28.258H40.21L35.5863 36.8196L30.9627 28.258ZM41.3986 33.9526C41.3986 30.6808 44.05 28.0294 47.3218 28.0294C50.5937 28.0294 53.2451 30.6808 53.2451 33.9526C53.2451 37.2245 50.5937 39.8759 47.3218 39.8759C44.05 39.8759 41.3986 37.2245 41.3986 33.9526ZM52.3374 33.9526C52.3374 31.1837 50.0908 28.9371 47.3218 28.9371C44.5529 28.9371 42.3063 31.1837 42.3063 33.9526C42.3063 36.7216 44.5529 38.9682 47.3218 38.9682C50.0908 38.9682 52.3374 36.7216 52.3374 33.9526ZM42.8941 33.9526C42.8941 31.4971 44.8663 29.5249 47.3218 29.5249C49.7774 29.5249 51.7496 31.4971 51.7496 33.9526C51.7496 36.4082 49.7774 38.3804 47.3218 38.3804C44.8663 38.3804 42.8941 36.4082 42.8941 33.9526ZM50.8418 33.9526C50.8418 32.0131 49.2614 30.4392 47.3284 30.4392C45.3953 30.4392 43.8149 32.0196 43.8149 33.9526C43.8149 35.8857 45.3953 37.4661 47.3284 37.4661C49.2614 37.4661 50.8418 35.8857 50.8418 33.9526ZM57.1635 39.6473V34.9584L53.4672 28.2514C54.3161 28.2514 54.7863 28.6563 55.1259 29.2767L58.0712 34.6514V39.6473H57.1569H57.1635ZM55.1716 28.258H56.2623L58.3651 32.1306L60.468 28.258H61.5586L58.3716 34.1029L55.1782 28.258H55.1716ZM58.659 34.6514L61.6043 29.2767C61.9439 28.6563 62.4206 28.2514 63.2631 28.2514L59.5667 34.9584V39.6473H58.6525V34.6514H58.659ZM68.801 27.9641L75.1357 39.6539C74.2541 39.6539 73.8361 39.262 73.4247 38.5306L68.801 30.0016L64.1774 38.5306C63.7725 39.262 63.348 39.6539 62.4663 39.6539L68.801 27.9641ZM68.801 31.0857L73.4247 39.6473H72.3341L68.801 33.1363L65.268 39.6473H64.1774L68.801 31.0857ZM86.7602 32.7837V37.5184C85.6696 38.9486 83.9586 39.8759 82.0255 39.8759C78.7537 39.8759 76.1022 37.2245 76.1022 33.9526C76.1022 30.6808 78.7537 28.0294 82.0255 28.0294C83.1161 28.0294 84.1414 28.3233 85.0231 28.8457C84.7488 29.3029 84.3569 29.4661 83.6908 29.218C83.1684 29.022 82.6329 28.9437 82.032 28.9437C79.2631 28.9437 77.0165 31.1902 77.0165 33.9592C77.0165 36.7282 79.2631 38.9747 82.032 38.9747C83.5276 38.9747 84.912 38.3412 85.8394 37.231V33.698H82.3716L82.8745 32.7837H86.7667H86.7602ZM78.5055 33.9526C78.5055 35.8922 80.0859 37.4661 82.019 37.4661C82.8484 37.4661 83.6125 37.1722 84.2133 36.702V35.1869H81.5423L82.0451 34.2726H85.2386V36.9763C84.3112 37.9037 83.3316 38.3739 82.0125 38.3739C79.5569 38.3739 77.5847 36.4016 77.5847 33.9461C77.5847 31.4906 79.5569 29.5184 82.0125 29.5184C82.8614 29.5184 83.6059 29.7469 84.2916 30.1518L83.8541 30.9486C83.3186 30.622 82.6851 30.4261 82.0125 30.4261C80.0729 30.4261 78.499 32.0065 78.499 33.9396L78.5055 33.9526ZM89.4574 28.258H96.5235C96.5235 28.8784 95.988 29.1722 95.2696 29.1722H90.3716V38.7461H95.2696C96.1643 38.7461 96.5235 39.1837 96.5235 39.6604H89.4574V28.258ZM90.9529 29.7535H96.5169V30.6678H91.8606V32.751H95.5569L95.0541 33.6653H90.9529V29.7535ZM91.8672 37.2441H96.5235V38.1584H90.9594V34.2531H94.7537L94.2639 35.1673H91.8737V37.2506L91.8672 37.2441ZM106.541 36.4408C106.541 38.4457 104.621 39.8759 102.617 39.8759C100.938 39.8759 99.6712 39.2098 98.6133 38.2629C98.8745 37.8253 99.4427 37.7926 99.9455 38.1322C100.71 38.6547 101.559 38.9616 102.682 38.9616C104.21 38.9616 105.627 37.871 105.627 36.4212C105.627 34.7755 104.308 34.1747 102.891 33.6065C101.702 33.1363 100.631 32.5682 100.631 31.3926C100.631 30.3673 101.513 29.4857 102.682 29.4857C103.413 29.4857 104.112 29.7469 104.863 30.302L104.426 31.0857C103.772 30.5502 103.204 30.4 102.682 30.4C102.029 30.4 101.546 30.7592 101.546 31.3469C101.546 31.8694 102.035 32.2743 103.27 32.7967C104.732 33.4171 106.541 34.1159 106.541 36.4408ZM99.1357 31.4645C99.1357 29.5575 100.697 28.0294 102.649 28.0294C103.674 28.0294 104.732 28.3363 105.562 29.0547C105.32 29.5249 104.928 29.6098 104.262 29.2963C103.89 29.12 103.381 28.9371 102.682 28.9371C101.134 28.9371 100.043 30.0604 100.043 31.4122C100.043 32.9404 101.363 33.6065 102.715 34.1486C104.001 34.6514 105.039 35.1739 105.039 36.4278C105.039 37.5184 103.949 38.3804 102.682 38.3804C101.415 38.3804 100.194 37.7273 99.3643 36.9175L99.7888 36.1208C100.422 36.8065 101.63 37.4726 102.669 37.4726C103.55 37.4726 104.132 37.0808 104.132 36.4473C104.132 35.8596 103.577 35.5526 102.257 34.9975C100.906 34.4294 99.1292 33.6784 99.1292 31.4645H99.1357Z" fill="#F40011" /> </svg>
